<svg xmlns="http://www.w3.org/2000/svg" xmlns:xlink="http://www.w3.org/1999/xlink" viewBox="0 0 1920.29 1080.35"><defs><style>.cls-1{isolation:isolate;}.cls-13,.cls-16,.cls-2,.cls-21,.cls-24,.cls-25,.cls-3,.cls-37,.cls-38,.cls-39,.cls-4,.cls-41,.cls-42,.cls-43,.cls-44,.cls-45,.cls-46,.cls-47,.cls-48,.cls-49,.cls-50,.cls-51,.cls-52,.cls-53,.cls-55,.cls-56,.cls-57,.cls-59,.cls-60,.cls-61,.cls-62,.cls-63,.cls-64{fill-rule:evenodd;}.cls-2{fill:url(#Degradado_sin_nombre_18);}.cls-14,.cls-3,.cls-4,.cls-45,.cls-65{fill:#fff;}.cls-4{opacity:0.64;}.cls-47,.cls-48,.cls-5,.cls-56,.cls-64,.cls-65{mix-blend-mode:screen;}.cls-6{fill:#fffefe;}.cls-7{fill:#f29e7d;}.cls-16,.cls-8{fill:#fff57f;}.cls-9{fill:#2a8bbc;}.cls-10{fill:#d9d9d9;mix-blend-mode:multiply;}.cls-11{fill:#55bece;}.cls-12{fill:#17acb3;}.cls-13,.cls-19{fill:#e7e5e4;}.cls-15{fill:#f7be7e;}.cls-17,.cls-39{mix-blend-mode:soft-light;}.cls-18{fill:#3d474d;}.cls-20{fill:#f2f2f2;}.cls-21{fill:#e74168;}.cls-22,.cls-25{fill:#60b2e3;}.cls-23{fill:#e8546b;}.cls-24{fill:#ef8333;}.cls-26{fill:#ffd01f;}.cls-27{fill:#2981e9;}.cls-28{fill:#ff581f;}.cls-29{fill:#fff0ff;}.cls-30{fill:#56417d;}.cls-31{fill:#fffbff;}.cls-32{fill:#ffe7af;}.cls-33{fill:#fffbcc;}.cls-34{fill:#fffff1;}.cls-35{fill:#bca1c8;}.cls-36{fill:#64486f;}.cls-37{fill:#7e668f;}.cls-38{fill:#fffeff;}.cls-39{fill:#42c5ee;}.cls-40{opacity:0.69;}.cls-41{fill:#f9b059;}.cls-42{fill:#f7ce78;}.cls-43{fill:#f6f0eb;}.cls-44{fill:url(#linear-gradient);}.cls-45{opacity:0.17;}.cls-46{fill:url(#linear-gradient-2);}.cls-47{fill:#db6e00;}.cls-47,.cls-48{opacity:0.24;}.cls-48{fill:#ce6612;}.cls-49,.cls-62{fill:#ea926a;}.cls-49,.cls-56,.cls-64{opacity:0.25;}.cls-50{fill:url(#linear-gradient-3);}.cls-51{fill:#e5eef9;}.cls-52{fill:url(#linear-gradient-4);}.cls-53,.cls-58{fill:#752994;}.cls-54{fill:#e47d7d;}.cls-55{fill:url(#radial-gradient);}.cls-56{fill:#0ea8ee;}.cls-57{fill:#31587d;}.cls-59{fill:#303030;}.cls-60{fill:url(#linear-gradient-5);}.cls-61{fill:url(#linear-gradient-6);}.cls-62{opacity:0.46;}.cls-63{fill:#fcfdff;}.cls-64{fill:#3dc6fa;}.cls-65{opacity:0.62;}.cls-66{fill:#f07622;}.cls-67{fill:#d8681a;}.cls-68{fill:url(#Degradado_sin_nombre_12);}.cls-69{fill:#f4f4f4;}.cls-70{fill:#dedede;}</style><radialGradient id="Degradado_sin_nombre_18" cx="1387" cy="242.62" r="1080.54" gradientTransform="translate(0) scale(1.19 1)" gradientUnits="userSpaceOnUse"><stop offset="0" stop-color="#d650d1"/><stop offset="1" stop-color="#3b1aaf"/></radialGradient><linearGradient id="linear-gradient" x1="1451.64" y1="638.47" x2="1451.64" y2="588.41" gradientUnits="userSpaceOnUse"><stop offset="0" stop-color="#ff5a19"/><stop offset="0.18" stop-color="#fd591c"/><stop offset="0.3" stop-color="#f75525"/><stop offset="0.41" stop-color="#ec4d34"/><stop offset="0.51" stop-color="#dd434a"/><stop offset="0.6" stop-color="#ca3666"/><stop offset="0.69" stop-color="#b22788"/><stop offset="0.71" stop-color="#ab2292"/></linearGradient><linearGradient id="linear-gradient-2" x1="1325.45" y1="419.09" x2="1401.26" y2="698.48" xlink:href="#linear-gradient"/><linearGradient id="linear-gradient-3" x1="1969.93" y1="419.09" x2="2045.74" y2="698.48" gradientTransform="matrix(-1, 0, 0, 1, 3547.81, 0)" xlink:href="#linear-gradient"/><linearGradient id="linear-gradient-4" x1="1398.26" y1="285.02" x2="1505.03" y2="285.02" gradientUnits="userSpaceOnUse"><stop offset="0" stop-color="#ff5a19"/><stop offset="0.71" stop-color="#ab2292"/></linearGradient><radialGradient id="radial-gradient" cx="1451.08" cy="397.78" r="55.91" gradientTransform="matrix(1, 0, 0, 1, 0, 0)" xlink:href="#Degradado_sin_nombre_18"/><linearGradient id="linear-gradient-5" x1="1387.92" y1="572.82" x2="1495.59" y2="588.46" xlink:href="#linear-gradient"/><linearGradient id="linear-gradient-6" x1="1471.61" y1="579.16" x2="1430.66" y2="585.14" xlink:href="#linear-gradient"/><linearGradient id="Degradado_sin_nombre_12" x1="1451.63" y1="409.66" x2="1451.63" y2="450.28" gradientUnits="userSpaceOnUse"><stop offset="0" stop-color="#f07622"/><stop offset="0.13" stop-color="#f26d1f"/><stop offset="0.34" stop-color="#f65317"/><stop offset="0.57" stop-color="#fc300c"/><stop offset="0.87" stop-color="#fc300c"/><stop offset="0.99" stop-color="#fc300c"/></linearGradient></defs><title>backgroundUnderConstruction</title><g class="cls-1"><g id="degradado"><path class="cls-2" d="M1013.12,0c-1.36.06-2.71.06-4.07,0H0V1080H833.47c6.65-1.08,13.87-.29,20.61-.06,9.71-.76,19.43,0,29.21.06h18a4.93,4.93,0,0,1,1.22-.18h8.82a5,5,0,0,1,1.23.18h2.09c1.78-.08,3.56-.13,5.35-.15.29,0,.57,0,.86,0l.19,0h3.21l.13,0,.7,0c4,0,8,.14,12,.16H952a36.77,36.77,0,0,1,6.2-.14,5.36,5.36,0,0,1,1.86-.33c2.87,0,5.72.07,8.56.26,13.3.17,26.6-.69,39.91-.73a4.74,4.74,0,0,1,3,.94h2.22q3.1-.35,6.24-.44c1.17-.12,2.35-.24,3.53-.34s2.21-.19,3.3-.23a36.32,36.32,0,0,1,11.47,1h21.41a180.44,180.44,0,0,0,20-1.7,5.14,5.14,0,0,1,4.34,1.3c2-.35,4-.72,6-1a102,102,0,0,1,14.1-.49,4.63,4.63,0,0,1,3.6,1.53,89.82,89.82,0,0,1,11.84.35h4.36a81.45,81.45,0,0,1,14.08-1.88,4.66,4.66,0,0,1,2.91.86,115.59,115.59,0,0,1,14.5,1h2.06a537.38,537.38,0,0,1,60.76-2.84c48.8-8.69,99.25-11.35,148.39-4,3.26.48,4.06,3.38,3.28,5.91a146.17,146.17,0,0,1,15.75-1.16,133.24,133.24,0,0,1,50.57-1.12c4.66-.12,9.51-.13,14.36.15a125.72,125.72,0,0,1,16.67-.13c2.19-.23,4.35-.42,6.44-.6l1-.08c5.94-3.24,13-4.68,19.55-5.47a93.86,93.86,0,0,1,20.25-.25c2-.25,3.94-.48,5.91-.67,13.39-1.33,28.71-1.75,41.33,4a228.44,228.44,0,0,1,30.62-2.49c1.93-.34,3.84-.63,5.71-.89,8.6-1.2,17.79-1.8,26.5-.26,24.09-1.52,48.39-.77,72.5.09a4.88,4.88,0,0,1,3.27,1.48l1-.07a4.18,4.18,0,0,1,3.56,1.49q10.23.51,20.44,1.33a5.47,5.47,0,0,1,4,2.47,244.79,244.79,0,0,1,27,.17c12.46-3.6,25.65-5.08,38.43-5.9,7.44-.47,14.88-.65,22.33-.65a199.83,199.83,0,0,1,56.38-.14,3.82,3.82,0,0,1,3.54,4.19c1.11,0,2.21.07,3.31.12,13.21-1.16,26.48-1.52,39.76-1.62V0Z" transform="translate(0 0.05)"/></g><g id="nubes"><path class="cls-3" d="M1920.29,1022.7a48.29,48.29,0,0,0-37.53,10.43,36.41,36.41,0,0,0-16.88-8.74,56.13,56.13,0,0,0-100.94-3.4,48.57,48.57,0,0,0-41.45-4.55,39,39,0,0,0-74-16.29,43.85,43.85,0,0,0-54.55,6.55c-.7-.45-1.42-.87-2.15-1.27a30.07,30.07,0,0,0-43.62-32.87,46.32,46.32,0,0,0-88.26-9.55,42.66,42.66,0,0,0-40.75-2.11,25.11,25.11,0,0,0,.35-4.19,24.53,24.53,0,0,0-49-1.77,42.63,42.63,0,0,0-40.25,6.15,42,42,0,0,0-82.23.26A54,54,0,0,0,1180,987.76a46.94,46.94,0,0,0-79.14,45,65.06,65.06,0,0,0-31.1,46.72c3.33-.28,6.65-.65,10-1.13a5.13,5.13,0,0,1,4.32,1.3c2-.35,4-.72,6-1a102,102,0,0,1,14.1-.49,4.63,4.63,0,0,1,3.6,1.53,100,100,0,0,1,14.88.64l.42-.11a86.24,86.24,0,0,1,15-2.06,4.66,4.66,0,0,1,2.91.86,115.59,115.59,0,0,1,14.5,1,3.88,3.88,0,0,1,.61.15,535.35,535.35,0,0,1,62.21-3c48.8-8.69,99.25-11.35,148.39-4,3.25.48,4.06,3.38,3.28,5.91a146.17,146.17,0,0,1,15.75-1.16,133.24,133.24,0,0,1,50.57-1.12c4.66-.12,9.51-.13,14.36.15a125.72,125.72,0,0,1,16.67-.13c2.19-.23,4.35-.42,6.44-.6l1-.08c5.94-3.24,13-4.68,19.55-5.47a93.86,93.86,0,0,1,20.25-.25c2-.25,3.94-.48,5.91-.67,13.39-1.33,28.71-1.75,41.33,4a228.44,228.44,0,0,1,30.62-2.49c1.93-.34,3.84-.63,5.71-.89,8.6-1.2,17.79-1.8,26.5-.26,24.09-1.52,48.39-.77,72.5.09a4.88,4.88,0,0,1,3.27,1.48l1-.07a4.18,4.18,0,0,1,3.55,1.49q10.23.51,20.45,1.33a5.47,5.47,0,0,1,4,2.47,244.79,244.79,0,0,1,27,.17c12.46-3.6,25.65-5.08,38.43-5.9,7.44-.47,14.88-.65,22.33-.65a199.83,199.83,0,0,1,56.38-.14,3.82,3.82,0,0,1,3.54,4.19c1.11,0,2.21.07,3.31.12,13.3-1.17,26.68-1.52,40-1.62Z" transform="translate(0 0.05)"/><path class="cls-4" d="M1592.29,1071.18c1.93-.34,3.84-.63,5.71-.89,8.6-1.2,17.79-1.8,26.5-.26,24.09-1.52,48.39-.77,72.5.09a4.88,4.88,0,0,1,3.27,1.48l1-.07a4.18,4.18,0,0,1,3.55,1.49q10.23.51,20.45,1.33a5.47,5.47,0,0,1,4,2.47c7-.33,14-.38,21-.12a79.08,79.08,0,0,0,.4-12.07c-1-23.73-12.32-44-28.32-54.68a56.53,56.53,0,0,0,.84-12.57c-1.13-25.89-19.18-46.13-40.3-45.21-10.87.48-20.44,6.46-27,15.69-7.91-17.69-23.51-29.44-40.93-28.68a36.89,36.89,0,0,0-16.54,4.75c-4.05-18.94-18.47-32.69-35-32s-29.57,15.53-32.05,34.63a30.71,30.71,0,0,0-21.38-7.74,29.1,29.1,0,0,0-11.7,3c-1.29-12.68-10.38-22.33-20.94-21.87-11,.48-19.52,11.85-18.93,25.38a30,30,0,0,0,.47,4.18,29.36,29.36,0,0,0-15.22-3.53,30,30,0,0,0-17.91,7.08c-6.44-16.4-20.39-27.51-36.06-26.83-18.52.81-33.21,17.82-35.48,39.52a21,21,0,0,0-11.77-3.08c-13.53.6-23.92,14.52-23.19,31.1a36.74,36.74,0,0,0,.83,6.37c-.58.42-1.14.87-1.69,1.35-6.85-7.85-16.12-12.51-26.14-12.07a31,31,0,0,0-18.63,7.46c-5.71-12.77-17-21.25-29.54-20.7-17.35.75-30.7,18.42-30.08,39.61a33,33,0,0,0-13.12-2.12,34.19,34.19,0,0,0-20.47,8.14c-8.44-17.45-24.22-28.91-41.78-28.14-18.65.81-34.1,15.2-40.36,35.13a28.24,28.24,0,0,0-13.38,9.33c-7.13-6.53-16-10.24-25.52-9.83-13.52.59-25.1,9.41-31.7,22.39-8.91-15.82-24-26-40.7-25.23-15,.66-28,10-35.94,23.94-6.79-6.75-15.5-10.64-24.83-10.24-13.78.61-25.38,10.42-31.07,24.44-6.55-10.68-17.11-17.42-28.72-16.92-15.9.7-28.64,14.76-31.42,33,6.23-.76,12.88-.06,19.12.15,9.71-.76,19.43,0,29.21.06a6,6,0,0,1,1.16.12c1.38,0,2.76-.1,4.14-.12a5.88,5.88,0,0,1,.6,0q.3,0,.63,0c3.36,0,6.71.16,10.06.18a5.58,5.58,0,0,1,.73,0,5,5,0,0,1,1.92-.41h8.82a4.91,4.91,0,0,1,1.58.29c2.34-.14,4.67-.23,7-.26l.94,0,.22,0h3.18l.13,0,.7,0c4,0,8,.14,12,.16a5.23,5.23,0,0,1,1.42.21,99.58,99.58,0,0,1,10.79,0l.58,0a47.22,47.22,0,0,1,8.29-.33,5.36,5.36,0,0,1,1.86-.33c2.87,0,5.72.07,8.56.26,13.3.17,26.6-.69,39.91-.73a4.62,4.62,0,0,1,3.09,1.06l1.54,0c2.26-.27,4.53-.45,6.81-.51,1.17-.12,2.35-.24,3.53-.34s2.21-.19,3.3-.23a36.44,36.44,0,0,1,11.49,1c13.83.33,27.72.31,41.38-1.7a5.13,5.13,0,0,1,4.32,1.3c2-.35,4-.72,6-1a102,102,0,0,1,14.1-.49,4.63,4.63,0,0,1,3.6,1.53,100,100,0,0,1,14.88.64l.42-.11a86.24,86.24,0,0,1,15-2.06,4.66,4.66,0,0,1,2.91.86,115.59,115.59,0,0,1,14.5,1,3.88,3.88,0,0,1,.61.15,535.35,535.35,0,0,1,62.21-3c48.8-8.69,99.25-11.35,148.39-4,3.25.48,4.06,3.38,3.28,5.91a146.17,146.17,0,0,1,15.75-1.16,133.24,133.24,0,0,1,50.57-1.12c4.66-.12,9.51-.13,14.36.15a125.72,125.72,0,0,1,16.67-.13c2.19-.23,4.35-.42,6.44-.6l1-.08c5.94-3.24,13-4.68,19.55-5.47a93.86,93.86,0,0,1,20.25-.25c2-.25,3.94-.48,5.91-.67,13.39-1.33,28.71-1.75,41.33,4A228.44,228.44,0,0,1,1592.29,1071.18Z" transform="translate(0 0.05)"/><path class="cls-4" d="M1920.29,935v0c-8.31-9-19.29-14.22-31.11-13.7a37,37,0,0,0-16.54,4.76c-4.05-18.95-18.47-32.7-35-32s-29.57,15.54-32.05,34.64a30.76,30.76,0,0,0-21.38-7.75,29.11,29.11,0,0,0-11.7,3c-1.29-12.68-10.38-22.33-20.94-21.87-11,.48-19.52,11.84-18.93,25.38a29.72,29.72,0,0,0,.47,4.17,29.54,29.54,0,0,0-15.22-3.53,30,30,0,0,0-17.91,7.09c-6.44-16.41-20.39-27.52-36.06-26.83-18.52.81-33.21,17.82-35.48,39.52a21,21,0,0,0-11.77-3.08c-13.53.59-23.92,14.51-23.19,31.09a36.49,36.49,0,0,0,.83,6.37c-.58.43-1.14.88-1.69,1.35-6.85-7.85-16.12-12.5-26.14-12.06a31,31,0,0,0-18.63,7.46c-5.7-12.77-17-21.26-29.54-20.71-17.35.76-30.7,18.43-30.07,39.62a32.87,32.87,0,0,0-13.13-2.13,34.26,34.26,0,0,0-20.47,8.15c-8.44-17.45-24.22-28.91-41.78-28.14-18.65.81-34.1,15.19-40.36,35.12a28.38,28.38,0,0,0-13.38,9.33c-7.13-6.52-16-10.24-25.52-9.82-13.52.59-25.1,9.41-31.7,22.39-8.91-15.83-24-26-40.7-25.23-15,.65-28,10-35.94,23.93-6.79-6.74-15.5-10.64-24.83-10.23-13.78.6-25.38,10.41-31.07,24.43-6.55-10.68-17.11-17.42-28.72-16.91-18.64.81-33,20-32,42.83l.35,7.94a103.54,103.54,0,0,1,13.5.67l.42-.11a86.24,86.24,0,0,1,15-2.06,4.66,4.66,0,0,1,2.91.86,115.59,115.59,0,0,1,14.5,1,3.88,3.88,0,0,1,.61.15,535.35,535.35,0,0,1,62.21-3c48.8-8.69,99.25-11.35,148.39-4,3.25.48,4.06,3.38,3.28,5.91a146.17,146.17,0,0,1,15.75-1.16,133.24,133.24,0,0,1,50.57-1.12c4.66-.12,9.51-.13,14.36.15a125.72,125.72,0,0,1,16.67-.13c2.19-.23,4.35-.42,6.44-.6l1-.08c5.94-3.24,13-4.68,19.55-5.47a93.86,93.86,0,0,1,20.25-.25c2-.25,3.94-.48,5.91-.67,13.39-1.33,28.71-1.75,41.33,4a228.44,228.44,0,0,1,30.62-2.49c1.93-.34,3.84-.63,5.71-.89,8.6-1.2,17.79-1.8,26.5-.26,24.09-1.52,48.39-.77,72.5.09a4.88,4.88,0,0,1,3.27,1.48l1-.07a4.18,4.18,0,0,1,3.55,1.49q10.23.51,20.45,1.33a5.47,5.47,0,0,1,4,2.47,244.79,244.79,0,0,1,27,.17c12.46-3.6,25.65-5.08,38.43-5.9,7.44-.47,14.88-.65,22.33-.65a199.83,199.83,0,0,1,56.38-.14,3.82,3.82,0,0,1,3.54,4.19c1.11,0,2.21.07,3.31.12,13.3-1.17,26.68-1.52,40-1.62Z" transform="translate(0 0.05)"/></g><g id="objetos"><g class="cls-5"><rect class="cls-6" x="1540.45" y="548.45" width="153.29" height="221.79"/><rect class="cls-6" x="1540.45" y="668.65" width="153.29" height="101.59"/><rect class="cls-7" x="1547.23" y="675.69" width="43.34" height="29.57"/><rect class="cls-8" x="1642.76" y="675.69" width="43.34" height="29.57"/><rect class="cls-9" x="1594.99" y="675.69" width="43.34" height="29.57"/><path class="cls-10" d="M1595,711.89h43.34V710H1595Zm47.77,0h43.33V710h-43.33Zm-95.53,0h43.34V710h-43.34Zm47.76,3.79h43.34v-1.89H1595Zm47.77,0h43.33v-1.89h-43.33Zm-95.53,0h43.34v-1.89h-43.34Zm0,3.8h43.34v-1.9h-43.34Zm47.76,0h43.34v-1.9H1595Zm47.77,0h43.33v-1.9h-43.33Zm-47.77,3.8h43.34v-1.9H1595Zm47.77,0h43.33v-1.9h-43.33Zm-95.53,0h43.34v-1.9h-43.34Zm47.76,3.8h43.34v-1.9H1595Zm-47.76,0h43.34v-1.9h-43.34Zm95.53,0h43.33v-1.9h-43.33Zm0,3.8h43.33V729h-43.33Zm-47.77,0h43.34V729H1595Zm-47.76,0h43.34V729h-43.34Zm95.53,3.79h43.33v-1.9h-43.33Zm-47.77,0h43.34v-1.9H1595Zm-47.76,0h43.34v-1.9h-43.34Zm0,3.8h43.34v-1.9h-43.34Zm95.53,0h43.33v-1.9h-43.33Zm-47.77,0h43.34v-1.9H1595Zm47.77,3.8h43.33v-1.9h-43.33Zm-95.53,0h43.34v-1.9h-43.34Zm47.76,0h43.34v-1.9H1595Zm-47.76,3.8h43.34v-1.9h-43.34Zm47.76,0h43.34v-1.9H1595Zm47.77,0h43.33v-1.9h-43.33Zm-95.53,3.79h43.34V748h-43.34Zm95.53,0h43.33V748h-43.33Zm-47.77,0h43.34V748H1595Z" transform="translate(0 0.05)"/><rect class="cls-11" x="1547.23" y="756.95" width="138.86" height="5.13"/><rect class="cls-12" x="1540.45" y="548.45" width="153.39" height="5.32"/><path class="cls-13" d="M1691.23,551a1.25,1.25,0,1,1-1.25-1.25A1.25,1.25,0,0,1,1691.23,551Z" transform="translate(0 0.05)"/><path class="cls-13" d="M1687.07,551a1.25,1.25,0,1,1-1.24-1.25A1.24,1.24,0,0,1,1687.07,551Z" transform="translate(0 0.05)"/><rect class="cls-11" x="1540.36" y="558.75" width="153.46" height="12.45"/><rect class="cls-14" x="1638.17" y="562.24" width="47.04" height="5.46"/><rect class="cls-8" x="1550.8" y="563.14" width="13.76" height="3.68"/><rect class="cls-8" x="1565.69" y="563.14" width="13.76" height="3.68"/><rect class="cls-8" x="1580.57" y="563.14" width="13.76" height="3.68"/><rect class="cls-8" x="1595.46" y="563.14" width="13.76" height="3.68"/><path class="cls-3" d="M1688.29,563.46a1.12,1.12,0,1,0,1.09,1.12,1.1,1.1,0,0,0-1.09-1.12Zm-1,.09h0a1.47,1.47,0,0,1,2.07,0,1.44,1.44,0,0,1,0,2.05,1.47,1.47,0,0,1-2.07,0A1.44,1.44,0,0,1,1687.25,563.55Z" transform="translate(0 0.05)"/><path class="cls-3" d="M1689.57,566.17l-.32-.32a.8.8,0,0,0,.17-.15.91.91,0,0,0,.18-.21l.32.33Z" transform="translate(0 0.05)"/><path class="cls-3" d="M1691.3,567.13a.3.3,0,1,1-.42.42l-1.28-1.29.42-.42Z" transform="translate(0 0.05)"/><path class="cls-3" d="M1688.2,565.49a.71.71,0,0,0,.32-.07h0a.1.1,0,0,0,0-.13.09.09,0,0,0-.12,0,.79.79,0,0,1-.25,0,.49.49,0,0,1-.47-.29.09.09,0,0,0-.12-.06.1.1,0,0,0-.06.13.69.69,0,0,0,.65.42Z" transform="translate(0 0.05)"/><rect class="cls-7" x="1566.5" y="583.3" width="31.55" height="25.56"/><rect class="cls-15" x="1601.59" y="583.09" width="31.55" height="25.57"/><rect class="cls-9" x="1636.68" y="582.97" width="31.55" height="25.56"/><rect class="cls-11" x="1540.45" y="623.26" width="153.37" height="45.27"/><rect class="cls-8" x="1554.32" y="630.74" width="39.69" height="30.3"/><rect class="cls-14" x="1604.25" y="641.38" width="63.51" height="1"/><rect class="cls-14" x="1604.25" y="643.85" width="63.51" height="1"/><rect class="cls-14" x="1604.25" y="646.3" width="63.51" height="1"/><rect class="cls-14" x="1604.25" y="648.77" width="41.84" height="1"/><polygon class="cls-16" points="1541.66 645.9 1543.55 644.87 1545.44 643.84 1545.44 645.9 1545.44 647.96 1543.55 646.93 1541.66 645.9"/><polygon class="cls-16" points="1692.05 645.9 1690.16 644.87 1688.27 643.84 1688.27 645.9 1688.27 647.96 1690.16 646.93 1692.05 645.9"/></g><g class="cls-17"><rect class="cls-18" x="1155.4" y="647.48" width="213.39" height="152.85"/><rect class="cls-12" x="1155.4" y="647.48" width="213.39" height="9.22"/><circle class="cls-19" cx="1352.48" cy="652.09" r="2.38"/><path class="cls-19" d="M1361.91,652a2.38,2.38,0,1,1-2.38-2.38A2.39,2.39,0,0,1,1361.91,652Z" transform="translate(0 0.05)"/><path class="cls-20" d="M1263.32,666.68h-89c-.46,0-.84-.67-.84-1.49s.38-1.5.84-1.5h89c.47,0,.84.67.84,1.5S1263.79,666.68,1263.32,666.68Z" transform="translate(0 0.05)"/><path class="cls-20" d="M1290,675.22H1174.72a1.51,1.51,0,0,1,0-3H1290a1.51,1.51,0,0,1,0,3Z" transform="translate(0 0.05)"/><path class="cls-20" d="M1247.06,683.75h-67.9c-.46,0-.84-.66-.84-1.49s.38-1.49.84-1.49h67.9c.46,0,.84.66.84,1.49S1247.52,683.75,1247.06,683.75Z" transform="translate(0 0.05)"/><path class="cls-20" d="M1272.83,692.29H1179.6a1.51,1.51,0,0,1,0-3h93.23a1.51,1.51,0,0,1,0,3Z" transform="translate(0 0.05)"/><path class="cls-20" d="M1240.55,700.83h-61.39c-.46,0-.84-.67-.84-1.49s.38-1.5.84-1.5h61.39c.47,0,.84.67.84,1.5S1241,700.83,1240.55,700.83Z" transform="translate(0 0.05)"/><path class="cls-20" d="M1340.18,709.37h-157a1.5,1.5,0,1,1,0-3h157a1.5,1.5,0,1,1,0,3Z" transform="translate(0 0.05)"/><path class="cls-20" d="M1250.31,717.9H1193.8c-.47,0-.84-.66-.84-1.49s.37-1.5.84-1.5h56.51c.47,0,.84.67.84,1.5S1250.78,717.9,1250.31,717.9Z" transform="translate(0 0.05)"/><path class="cls-20" d="M1235.67,726.44H1200.3c-.46,0-.84-.67-.84-1.49s.38-1.5.84-1.5h35.37c.47,0,.85.67.85,1.5S1236.14,726.44,1235.67,726.44Z" transform="translate(0 0.05)"/><path class="cls-20" d="M1222.66,735h-48.38c-.46,0-.84-.67-.84-1.5s.38-1.49.84-1.49h48.38c.47,0,.84.67.84,1.49S1223.13,735,1222.66,735Z" transform="translate(0 0.05)"/><path class="cls-20" d="M1283.41,743.51H1182.88a1.51,1.51,0,0,1,0-3h100.53a1.51,1.51,0,0,1,0,3Z" transform="translate(0 0.05)"/><path class="cls-20" d="M1230.79,752.05h-48.38c-.46,0-.84-.67-.84-1.49s.38-1.5.84-1.5h48.38c.47,0,.85.67.85,1.5S1231.26,752.05,1230.79,752.05Z" transform="translate(0 0.05)"/><path class="cls-20" d="M1247.06,760.59h-61.39c-.47,0-.84-.67-.84-1.5s.37-1.49.84-1.49h61.39c.46,0,.84.67.84,1.49S1247.52,760.59,1247.06,760.59Z" transform="translate(0 0.05)"/><path class="cls-20" d="M1255.19,769.13h-64.64c-.47,0-.85-.67-.85-1.5s.38-1.49.85-1.49h64.64c.47,0,.84.67.84,1.49S1255.66,769.13,1255.19,769.13Z" transform="translate(0 0.05)"/><path class="cls-20" d="M1238.72,777.66h-43.3c-.46,0-.84-.67-.84-1.49s.38-1.5.84-1.5h43.3c.46,0,.84.67.84,1.5S1239.18,777.66,1238.72,777.66Z" transform="translate(0 0.05)"/><path class="cls-20" d="M1247.06,786.2h-61.39c-.47,0-.84-.67-.84-1.49s.37-1.5.84-1.5h61.39c.46,0,.84.67.84,1.5S1247.52,786.2,1247.06,786.2Z" transform="translate(0 0.05)"/><path class="cls-20" d="M1233.33,794.74h-50.92c-.46,0-.84-.67-.84-1.5s.38-1.49.84-1.49h50.92c.46,0,.84.67.84,1.49S1233.79,794.74,1233.33,794.74Z" transform="translate(0 0.05)"/><path class="cls-20" d="M1161,665.19a1.5,1.5,0,1,1-1.5-1.5A1.5,1.5,0,0,1,1161,665.19Z" transform="translate(0 0.05)"/><path class="cls-20" d="M1161,673.72a1.5,1.5,0,1,1-1.5-1.49A1.5,1.5,0,0,1,1161,673.72Z" transform="translate(0 0.05)"/><path class="cls-20" d="M1161,682.26a1.5,1.5,0,1,1-1.5-1.49A1.49,1.49,0,0,1,1161,682.26Z" transform="translate(0 0.05)"/><path class="cls-20" d="M1161,690.8a1.5,1.5,0,1,1-1.5-1.5A1.5,1.5,0,0,1,1161,690.8Z" transform="translate(0 0.05)"/><path class="cls-20" d="M1161,699.33a1.5,1.5,0,1,1-1.5-1.49A1.5,1.5,0,0,1,1161,699.33Z" transform="translate(0 0.05)"/><path class="cls-20" d="M1161,707.87a1.5,1.5,0,1,1-1.5-1.49A1.49,1.49,0,0,1,1161,707.87Z" transform="translate(0 0.05)"/><path class="cls-20" d="M1161,716.41a1.5,1.5,0,1,1-1.5-1.5A1.5,1.5,0,0,1,1161,716.41Z" transform="translate(0 0.05)"/><path class="cls-20" d="M1161,724.94a1.5,1.5,0,1,1-1.5-1.49A1.5,1.5,0,0,1,1161,724.94Z" transform="translate(0 0.05)"/><path class="cls-20" d="M1161,733.48a1.5,1.5,0,1,1-1.5-1.49A1.5,1.5,0,0,1,1161,733.48Z" transform="translate(0 0.05)"/><path class="cls-20" d="M1161,742a1.5,1.5,0,1,1-1.5-1.5A1.5,1.5,0,0,1,1161,742Z" transform="translate(0 0.05)"/><path class="cls-20" d="M1161,750.55a1.5,1.5,0,1,1-1.5-1.49A1.5,1.5,0,0,1,1161,750.55Z" transform="translate(0 0.05)"/><path class="cls-20" d="M1161,759.09a1.5,1.5,0,1,1-1.5-1.49A1.5,1.5,0,0,1,1161,759.09Z" transform="translate(0 0.05)"/><path class="cls-20" d="M1161,767.63a1.5,1.5,0,1,1-1.5-1.5A1.5,1.5,0,0,1,1161,767.63Z" transform="translate(0 0.05)"/><path class="cls-20" d="M1161,776.16a1.5,1.5,0,1,1-1.5-1.49A1.5,1.5,0,0,1,1161,776.16Z" transform="translate(0 0.05)"/><path class="cls-20" d="M1161,784.7a1.5,1.5,0,1,1-1.5-1.49A1.5,1.5,0,0,1,1161,784.7Z" transform="translate(0 0.05)"/><path class="cls-20" d="M1161,793.24a1.5,1.5,0,1,1-1.5-1.5A1.5,1.5,0,0,1,1161,793.24Z" transform="translate(0 0.05)"/></g><path class="cls-20" d="M1620.49,851.85c0-.89-.06-1.76-.13-2.63l7.66-2.49-4.71-14.52-7.67,2.49a34.09,34.09,0,0,0-3.09-4.27l4.73-6.51-12.35-9-4.72,6.49a32.74,32.74,0,0,0-5-1.6v-8.06h-15.26v8.06a32.74,32.74,0,0,0-5,1.6l-4.72-6.49-12.35,9,4.74,6.51a33.11,33.11,0,0,0-3.09,4.27l-7.67-2.49-4.72,14.52,7.66,2.48c-.06.88-.13,1.75-.13,2.64s.07,1.77.13,2.64l-7.66,2.49,4.72,14.51,7.67-2.49a31.78,31.78,0,0,0,3.09,4.27l-4.74,6.52,12.35,9,4.72-6.5a32.77,32.77,0,0,0,5,1.61v8h15.26v-8a32.77,32.77,0,0,0,5-1.61l4.72,6.5,12.35-9-4.73-6.52a33.65,33.65,0,0,0,3.09-4.27l7.66,2.49L1628,857l-7.66-2.49C1620.43,853.62,1620.49,852.74,1620.49,851.85Zm-32.94,14.09a14.09,14.09,0,1,1,14.09-14.09A14.08,14.08,0,0,1,1587.55,865.94Z" transform="translate(0 0.05)"/><path class="cls-20" d="M1301.72,602.5c0-.55,0-1.1-.08-1.64l4.79-1.56-3-9.07-4.79,1.56a21.34,21.34,0,0,0-1.93-2.67l3-4.07-7.71-5.61-3,4.06a20.87,20.87,0,0,0-3.14-1v-5h-9.54v5a20.51,20.51,0,0,0-3.14,1l-3-4.06-7.72,5.61,3,4.07a20.37,20.37,0,0,0-1.93,2.67l-4.79-1.56-3,9.07,4.79,1.56c-.05.54-.09,1.09-.09,1.64s0,1.11.09,1.65l-4.79,1.56,3,9.07,4.79-1.56a20.37,20.37,0,0,0,1.93,2.67l-3,4.07,7.72,5.6,3-4a20.51,20.51,0,0,0,3.14,1v5h9.54v-5a20.87,20.87,0,0,0,3.14-1l3,4,7.71-5.6-3-4.07a21.34,21.34,0,0,0,1.93-2.67l4.79,1.56,3-9.07-4.79-1.56C1301.68,603.61,1301.72,603.06,1301.72,602.5Zm-20.58,8.81a8.81,8.81,0,1,1,8.8-8.81A8.8,8.8,0,0,1,1281.14,611.31Z" transform="translate(0 0.05)"/><rect class="cls-14" x="1280.53" y="727.56" width="111.89" height="101.77" rx="6.57"/><path class="cls-21" d="M1385.85,727.51H1287.1a6.59,6.59,0,0,0-6.57,6.57v9.49h111.89v-9.49a6.4,6.4,0,0,0-.35-2.11A6.58,6.58,0,0,0,1385.85,727.51Z" transform="translate(0 0.05)"/><path class="cls-3" d="M1363.88,738a2.53,2.53,0,1,0-2.54-2.53A2.54,2.54,0,0,0,1363.88,738Z" transform="translate(0 0.05)"/><path class="cls-3" d="M1372.25,738a2.53,2.53,0,1,0-2.54-2.53A2.54,2.54,0,0,0,1372.25,738Z" transform="translate(0 0.05)"/><path class="cls-3" d="M1380.61,738a2.53,2.53,0,1,0-2.53-2.53A2.54,2.54,0,0,0,1380.61,738Z" transform="translate(0 0.05)"/><rect class="cls-22" x="1292.7" y="789.53" width="87.07" height="2.03"/><rect class="cls-22" x="1292.7" y="798.15" width="87.07" height="2.03"/><rect class="cls-22" x="1292.7" y="806.77" width="42.64" height="2.03"/><rect class="cls-22" x="1292.7" y="748.62" width="87.07" height="38.54"/><circle class="cls-23" cx="1337.17" cy="766.82" r="14.29" transform="translate(-191.14 566.07) rotate(-22.35)"/><polygon class="cls-3" points="1345.57 766.88 1332.6 774.5 1332.6 766.88 1332.6 759.25 1345.57 766.88"/><rect class="cls-14" x="1663.33" y="607.08" width="115.37" height="104.93" rx="6.78"/><path class="cls-24" d="M1670.1,607a6.79,6.79,0,0,0-6.77,6.77v6.62H1778.7V613.8a6.55,6.55,0,0,0-.57-2.69,6.78,6.78,0,0,0-6.21-4.08Z" transform="translate(0 0.05)"/><path class="cls-3" d="M1754.8,615.7a2.12,2.12,0,1,0-2.12-2.11A2.12,2.12,0,0,0,1754.8,615.7Z" transform="translate(0 0.05)"/><path class="cls-3" d="M1761.78,615.7a2.12,2.12,0,1,0-2.11-2.11A2.12,2.12,0,0,0,1761.78,615.7Z" transform="translate(0 0.05)"/><path class="cls-3" d="M1768.76,615.7a2.12,2.12,0,1,0-2.11-2.11A2.12,2.12,0,0,0,1768.76,615.7Z" transform="translate(0 0.05)"/><path class="cls-25" d="M1688.2,657.1a11.92,11.92,0,1,0-11.92-11.92A11.94,11.94,0,0,0,1688.2,657.1Z" transform="translate(0 0.05)"/><path class="cls-25" d="M1688.76,693.77a11.92,11.92,0,1,0-11.91-11.92A11.94,11.94,0,0,0,1688.76,693.77Z" transform="translate(0 0.05)"/><rect class="cls-22" x="1706.25" y="637.87" width="61.53" height="1.69"/><rect class="cls-22" x="1706.25" y="645.07" width="61.53" height="1.69"/><rect class="cls-22" x="1706.25" y="652.26" width="46.83" height="1.69"/><rect class="cls-22" x="1706.25" y="673.98" width="61.53" height="1.69"/><rect class="cls-22" x="1706.25" y="681.17" width="61.53" height="1.69"/><rect class="cls-22" x="1706.25" y="688.37" width="46.83" height="1.69"/><g class="cls-5"><path class="cls-26" d="M1198.83,549.44h14v-33c-5.3,2.22-10.37,4.34-14,5.86Z" transform="translate(0 0.05)"/><path class="cls-27" d="M1220.11,549.44h14V507.6c-3.34,1.37-8.48,3.5-14,5.8Z" transform="translate(0 0.05)"/><path class="cls-26" d="M1241.1,549.44h14V509.6l-14-3Z" transform="translate(0 0.05)"/><path class="cls-27" d="M1261.41,549.44h14V513.93l-14-3Z" transform="translate(0 0.05)"/><path class="cls-26" d="M1282.31,549.44h14V504.87l-14,8.18Z" transform="translate(0 0.05)"/><path class="cls-27" d="M1305.37,549.44h14V491.37l-14,8.19Z" transform="translate(0 0.05)"/><path class="cls-28" d="M1332.07,476.27l-18,2.6,3,4.73-38.05,22.26-41.24-8.79-.43.18c-7.2,3-43.18,17.88-44.57,18.69a1.52,1.52,0,0,0-.55,2,1.54,1.54,0,0,0,1.34.78,1.44,1.44,0,0,0,.73-.18c1.32-.7,26.74-11.28,43.77-18.34l41.48,8.85,39.16-22.93,2.94,4.39Z" transform="translate(0 0.05)"/></g><path class="cls-29" d="M1750.36,817.47c.31-12.06-13.92-22.25-31.82-22.72s-32.6,9-32.91,21.06c-.16,7.14,4.71,13.61,12.47,17.8a46.75,46.75,0,0,1-10.35,4.14s7.86,1.86,13.3-.41a19.34,19.34,0,0,0,2.48-1.3,44.2,44.2,0,0,0,13.87,2.49c17.9.46,32.65-9,33-21.06Z" transform="translate(0 0.05)"/><path class="cls-30" d="M1708.86,817.1a4.43,4.43,0,1,1-4.29-4.55,4.41,4.41,0,0,1,4.29,4.55Z" transform="translate(0 0.05)"/><path class="cls-30" d="M1723.66,817.47a4.43,4.43,0,1,1-4.3-4.56,4.41,4.41,0,0,1,4.3,4.56Z" transform="translate(0 0.05)"/><path class="cls-30" d="M1738.36,817.88a4.46,4.46,0,1,1-4.35-4.55,4.45,4.45,0,0,1,4.35,4.55Z" transform="translate(0 0.05)"/><path class="cls-31" d="M1566.38,497h-7.74c-2.11,0-2.39.92-1.27,1.62a6.71,6.71,0,0,0,3.17.85h3.94a6.64,6.64,0,0,0,3.17-.85c1.13-.7.85-1.62-1.27-1.62Z" transform="translate(0 0.05)"/><path class="cls-32" d="M1562.72,447.47a16.7,16.7,0,0,0-11.26,29c.07.21.07.35.14.56l4.51,17.18a1.63,1.63,0,0,0,1.62,1.12h10.06a1.76,1.76,0,0,0,1.62-1.12l4.51-17.18a1.54,1.54,0,0,0,.07-.56,16.44,16.44,0,0,0,5.49-12.32,16.74,16.74,0,0,0-16.76-16.69Z" transform="translate(0 0.05)"/><path class="cls-33" d="M1560.47,473.66a11.64,11.64,0,1,1,8-3.1c.14-1,.35-1.9.49-2.88a1.1,1.1,0,0,0,.49-.57c.35-.84-.28-2-1.48-2.81-.14.07-.21.21-.28.28,1.13.77,1.69,1.76,1.41,2.39a1.08,1.08,0,0,1-.49.5l-.64,3.44a11.7,11.7,0,0,1-7.46,2.75Zm-3-20.7h0a6.31,6.31,0,1,0,6.27,6.34,6.29,6.29,0,0,0-6.27-6.34Z" transform="translate(0 0.05)"/><path class="cls-34" d="M1557.51,465.57a6.31,6.31,0,1,1,6.27-6.27,6.28,6.28,0,0,1-6.27,6.27Zm-1.69-10.63h0a2.92,2.92,0,1,0,3,2.95,2.92,2.92,0,0,0-3-2.95Z" transform="translate(0 0.05)"/><path class="cls-14" d="M1555.82,460.78a2.92,2.92,0,1,1,3-2.89,2.92,2.92,0,0,1-3,2.89Z" transform="translate(0 0.05)"/><path class="cls-35" d="M1555.75,467c-.21-.63.29-1.62,1.41-2.39-.07-.07-.14-.21-.21-.28-1.27.84-1.83,2-1.55,2.81a1.57,1.57,0,0,0,.5.57q1.57,8.55,3.16,17.1h.43c-1.13-5.77-2.19-11.54-3.24-17.31a1.75,1.75,0,0,1-.5-.5Z" transform="translate(0 0.05)"/><path class="cls-35" d="M1567.93,464.3c-.14.07-.21.21-.28.28,1.13.77,1.69,1.76,1.41,2.39a1.08,1.08,0,0,1-.49.5q-1.59,8.65-3.17,17.31h.35q1.59-8.55,3.17-17.1a1.1,1.1,0,0,0,.49-.57c.35-.84-.28-2-1.48-2.81Z" transform="translate(0 0.05)"/><path class="cls-36" d="M1554.06,486.47a.94.94,0,0,0-.21,1.83c-1,.35-.84,2,.21,2h0c-.84.43-.63,2,.36,2h.07c-.85.43-.64,1.91.35,1.91h.28c-.91.42-.63,2,.28,2h.42v.07a1,1,0,0,0,.29,1.83h13c.77-.14.91-1.41.21-1.83l.07-.07h.35c.92,0,1.2-1.55.28-2h.29a1,1,0,0,0,.35-1.91h.14c.91,0,1.2-1.54.28-2h0a1,1,0,0,0,.28-2c.78-.21.85-1.76.07-1.83Z" transform="translate(0 0.05)"/><path class="cls-35" d="M1568,464.86a3.8,3.8,0,0,0-1.55-1.13,1,1,0,0,0-.63-.14.87.87,0,0,0-.7.29,2.88,2.88,0,0,0-.78,1.19c-.14.42-.42.57-.77.42s-.57-.42-.92-.77a2.69,2.69,0,0,0-.77-.77c-.35-.29-.63-.29-1,.14a6.16,6.16,0,0,1-.42.7,1.94,1.94,0,0,1-.35.56c-.35.29-.78.14-1.69-1a.57.57,0,0,0-.92-.07c0,.07-.07.07-.14.14s-.14.14-.21.14l-.21-.35a.24.24,0,0,1,.14-.07c.07-.07.14-.14.14-.21a1,1,0,0,1,1.55.14c.71.84.92,1.05,1.06.91a4.15,4.15,0,0,0,.28-.42,3,3,0,0,1,.42-.78,1,1,0,0,1,1.62-.21,4.84,4.84,0,0,1,.84.85,2.92,2.92,0,0,0,.78.63q.1.1.21-.21a3.29,3.29,0,0,1,.85-1.34,1.65,1.65,0,0,1,.91-.35,2.13,2.13,0,0,1,.92.14,5.32,5.32,0,0,1,1.69,1.27Z" transform="translate(0 0.05)"/><path class="cls-37" d="M1554.7,487h15.84a.35.35,0,1,1,0,.7H1554.7a.36.36,0,1,1,0-.7Z" transform="translate(0 0.05)"/><path class="cls-37" d="M1554.7,488.8h15.84a.39.39,0,0,1,.35.42.33.33,0,0,1-.35.35H1554.7a.39.39,0,0,1-.42-.35.45.45,0,0,1,.42-.42Z" transform="translate(0 0.05)"/><path class="cls-37" d="M1554.7,490.77h15.84a.33.33,0,0,1,.35.35.39.39,0,0,1-.35.42H1554.7a.45.45,0,0,1-.42-.42.39.39,0,0,1,.42-.35Z" transform="translate(0 0.05)"/><path class="cls-37" d="M1555.05,492.81h15.06a.45.45,0,0,1,.43.42.4.4,0,0,1-.43.35h-15.06a.33.33,0,0,1-.35-.35.39.39,0,0,1,.35-.42Z" transform="translate(0 0.05)"/><path class="cls-37" d="M1555.82,494.85h13.52a.33.33,0,0,1,.35.35.39.39,0,0,1-.35.42h-13.52a.39.39,0,0,1-.35-.42.33.33,0,0,1,.35-.35Z" transform="translate(0 0.05)"/><path class="cls-37" d="M1556.67,496.54h11.83a.39.39,0,0,1,.42.35.45.45,0,0,1-.42.42h-11.83a.39.39,0,0,1-.35-.42.33.33,0,0,1,.35-.35Z" transform="translate(0 0.05)"/><path class="cls-38" d="M1216.44,846.42a19.36,19.36,0,0,0,5.79-.29c3-.75,8-8,10.11-11,2.23-3,1.19-10.55,1.78-10.85s1.19-1.34,3-.45,3.86,3.72,3.71,8-1.93,8.62-1.78,10.7c0,2.23,2.23,2.38,5.79,3.42s6.69,1.78,8,3.71-1.34,5.35-1.78,5.65.74.89,0,3.42a4.57,4.57,0,0,1-2.83,3.12,5.36,5.36,0,0,1-.59,3.27,5.75,5.75,0,0,1-3,2.08s.45,2.23-1.18,3.12c-1.79.89-10.26.59-13.38-.89-3-1.49-5.94-4.16-8.47-4.76-1.63-.3-4.46-.15-6.54-.3a.48.48,0,0,0,.15-.29l1.19-17.54v-.15Z" transform="translate(0 0.05)"/><path class="cls-38" d="M1209.6,844.64l4.61.3a1.45,1.45,0,0,1,1.19,1.48L1214.21,864a1.22,1.22,0,0,1-1.34,1.19l-4.61-.3a1.2,1.2,0,0,1-1.18-1.34l1.18-17.53a1.33,1.33,0,0,1,1.34-1.34Z" transform="translate(0 0.05)"/></g><g id="cohete"><polygon class="cls-39" points="1471.2 564.37 1412.92 616.87 1356.96 1013.66 1447.78 1010.43 1471.2 564.37"/><polygon class="cls-39" points="1433.25 564.37 1491.54 616.87 1547.49 1013.66 1456.68 1010.43 1433.25 564.37"/><g class="cls-40"><path class="cls-3" d="M1385.59,1077.87a133.24,133.24,0,0,1,50.57-1.12c4.66-.12,9.51-.13,14.36.15a125.72,125.72,0,0,1,16.67-.13c2.19-.23,4.35-.42,6.44-.6l1-.08c5.94-3.24,13-4.68,19.55-5.47a93.86,93.86,0,0,1,20.25-.25c2-.25,3.94-.48,5.91-.67,1.51-.15,3.05-.29,4.6-.41l-34-429.92-21.57-38.47-18.15,1.27-18.15-1.27-21.57,38.47-34.69,438.93C1379.75,1078.07,1382.67,1077.92,1385.59,1077.87Z" transform="translate(0 0.05)"/></g><g class="cls-40"><path class="cls-3" d="M1436.16,1076.75c4.66-.12,9.51-.13,14.36.15a125.72,125.72,0,0,1,16.67-.13c2.19-.23,4.35-.42,6.44-.6l1-.07a41,41,0,0,1,9.18-3.56l-15.31-446.23-9.36-38.47-7.88,1.27-7.88-1.27L1434,626.31,1418.61,1075A130.59,130.59,0,0,1,1436.16,1076.75Z" transform="translate(0 0.05)"/></g><path class="cls-41" d="M1434.23,600.53c-.86,1-14,8.21-14,8.21s-2.08,2.07-5,12.1a150.57,150.57,0,0,0-3.92,19c0-.85,5.75-7.46,5.75-7.46A143,143,0,0,0,1414.4,656a127.58,127.58,0,0,0,1.35,20.2c-.13-1.35,3.67-10.9,3.67-10.9a111.17,111.17,0,0,0,5.87,25.71c4.65,12.24,8.08,18.6,7.84,16.89s3.18-13.47,3.18-13.47,2,16.89,8.81,31.82c2.53,5.52,4.57,9.77,6.12,12.94,1.56-3.17,3.59-7.42,6.12-12.94,6.85-14.93,8.81-31.82,8.81-31.82s3.43,11.75,3.19,13.47,3.18-4.65,7.83-16.89a111.17,111.17,0,0,0,5.87-25.71s3.8,9.55,3.68,10.9a130.06,130.06,0,0,0,1.34-20.2,143,143,0,0,0-2.69-23.62s5.75,6.61,5.75,7.46a150.57,150.57,0,0,0-3.92-19c-2.93-10-5-12.1-5-12.1s-13.1-7.23-14-8.21l-17-.48Z" transform="translate(0 0.05)"/><path class="cls-42" d="M1421.85,618.56l4.94-5.54-4.19,20.46a133.45,133.45,0,0,0-2.07,13.54l2.28-5.81,2.2,23.54a98.59,98.59,0,0,0,5.54,24.23c.27.74.56,1.47.84,2.21l7.34-25,3.16,27.57a108.43,108.43,0,0,0,8.34,30.12c.33.73.67,1.47,1,2.2.34-.73.68-1.47,1-2.2a108.09,108.09,0,0,0,8.34-30.12l3.16-27.57,7.34,25c.28-.74.57-1.47.85-2.21a99,99,0,0,0,5.53-24.23l2.2-23.54L1482,647a133.45,133.45,0,0,0-2.07-13.54L1475.69,613l4.94,5.54a33.7,33.7,0,0,0-2.27-5.53c-2-1.12-4-2.26-6-3.4-1.37-.79-4-2.19-6-3.53l-15.11-.43-15.11.43c-2,1.34-4.61,2.74-6,3.53-2,1.14-4,2.28-6,3.4A34.6,34.6,0,0,0,1421.85,618.56Z" transform="translate(0 0.05)"/><path class="cls-43" d="M1451.24,706.56a95.82,95.82,0,0,0,2.64-13.57l7-60.71,9.77,33.3h0l2.81-30-4.07-19.84-.38-.22c-1.57-.9-3.14-1.76-4.67-2.7l-13.06-.37-13,.37c-1.54.94-3.11,1.8-4.68,2.7l-.38.22-3.93,19.16c0,.38,0,1-.07,1.36l2.74,29.35,9.78-33.3L1448.6,693A95.82,95.82,0,0,0,1451.24,706.56Z" transform="translate(0 0.05)"/><polygon class="cls-44" points="1422.19 582.05 1481.1 582.05 1490.37 616.87 1412.92 616.87 1422.19 582.05"/><path class="cls-45" d="M1420,590.43h2.46c-.92,3.72-1.89,7.67-2.92,11.88q-1.66,6.75-3.57,14.5h-3q2.07-7.75,3.86-14.5C1417.9,598.1,1419,594.15,1420,590.43Z" transform="translate(0 0.05)"/><path class="cls-45" d="M1426,590.43h2.47c-.72,3.72-1.49,7.67-2.31,11.88q-1.32,6.75-2.82,14.5h-3q1.68-7.75,3.13-14.5C1424.38,598.1,1425.23,594.15,1426,590.43Z" transform="translate(0 0.05)"/><path class="cls-45" d="M1432.13,590.43h2.46c-.53,3.72-1.1,7.67-1.7,11.88q-1,6.75-2.08,14.5h-3l2.38-14.5Z" transform="translate(0 0.05)"/><path class="cls-45" d="M1438.22,590.43h2.46c-.34,3.72-.7,7.67-1.09,11.88q-.63,6.75-1.34,14.5h-3q.87-7.75,1.64-14.5C1437.35,598.1,1437.8,594.15,1438.22,590.43Z" transform="translate(0 0.05)"/><path class="cls-45" d="M1444.31,590.43h2.47c-.16,3.72-.32,7.67-.49,11.88q-.27,6.75-.59,14.5h-3q.48-7.75.9-14.5C1443.84,598.1,1444.08,594.15,1444.31,590.43Z" transform="translate(0 0.05)"/><path class="cls-45" d="M1450.4,590.43h2.47c0,3.72.08,7.67.12,11.88q.08,6.75.15,14.5h-3q.07-7.75.15-14.5C1450.32,598.1,1450.36,594.15,1450.4,590.43Z" transform="translate(0 0.05)"/><path class="cls-45" d="M1456.49,590.43H1459c.23,3.72.47,7.67.73,11.88q.42,6.75.89,14.5h-3q-.32-7.75-.59-14.5C1456.81,598.1,1456.65,594.15,1456.49,590.43Z" transform="translate(0 0.05)"/><path class="cls-45" d="M1462.59,590.43h2.46c.42,3.72.87,7.67,1.34,11.88q.77,6.75,1.64,14.5h-3q-.71-7.75-1.33-14.5C1463.29,598.1,1462.93,594.15,1462.59,590.43Z" transform="translate(0 0.05)"/><path class="cls-45" d="M1468.68,590.43h2.47c.6,3.72,1.25,7.67,1.94,11.88l2.38,14.5h-3q-1.12-7.75-2.08-14.5C1469.78,598.1,1469.21,594.15,1468.68,590.43Z" transform="translate(0 0.05)"/><path class="cls-45" d="M1474.77,590.43h2.47c.8,3.72,1.65,7.67,2.55,11.88q1.45,6.75,3.12,14.5h-3c-1-5.17-1.94-10-2.82-14.5C1476.26,598.1,1475.49,594.15,1474.77,590.43Z" transform="translate(0 0.05)"/><path class="cls-45" d="M1480.86,590.43h2.48c1,3.72,2.05,7.67,3.17,11.88q1.8,6.75,3.86,14.5h-3q-1.9-7.75-3.56-14.5C1482.75,598.1,1481.78,594.15,1480.86,590.43Z" transform="translate(0 0.05)"/><path class="cls-46" d="M1401.1,528.69c-1.21,1-53.19,35.89-56.4,40.95s-8.22,59.27-8.22,59.27l24.68-30.84L1411,587.84Z" transform="translate(0 0.05)"/><path class="cls-47" d="M1399.3,560.16c-16.68,6.49-40.42,15.87-40.42,15.87l-22.4,52.88,24.68-30.84L1411,587.84A251,251,0,0,1,1399.3,560.16Z" transform="translate(0 0.05)"/><polygon class="cls-48" points="1358.88 576.08 1336.48 628.96 1361.16 598.13 1358.88 576.08"/><polygon class="cls-49" points="1391.16 539.15 1393.85 550.57 1351.38 574.42 1340.57 604.85 1346.47 570.24 1391.16 539.15"/><path class="cls-50" d="M1502.23,528.69c1.2,1,53.18,35.89,56.39,40.95s8.23,59.27,8.23,59.27l-24.68-30.84-49.85-10.23Z" transform="translate(0 0.05)"/><path class="cls-47" d="M1504,560.16c16.67,6.49,40.42,15.87,40.42,15.87l22.4,52.88-24.68-30.84-49.85-10.23A251,251,0,0,0,1504,560.16Z" transform="translate(0 0.05)"/><polygon class="cls-48" points="1544.44 576.08 1566.85 628.96 1542.16 598.13 1544.44 576.08"/><polygon class="cls-49" points="1512.16 539.15 1509.48 550.57 1551.95 574.42 1562.76 604.85 1556.86 570.24 1512.16 539.15"/><path class="cls-51" d="M1451.65,232.26c72.49,91.14,93.29,249.6,40.64,355.58H1411C1358.35,481.86,1379.15,323.4,1451.65,232.26Z" transform="translate(0 0.05)"/><path class="cls-52" d="M1451.65,232.26c-23.46,29.48-41.5,66-53.39,105.52H1505C1493.14,298.26,1475.1,261.74,1451.65,232.26Z" transform="translate(0 0.05)"/><path class="cls-53" d="M1505,337.78H1398.26c-.84,2.79-1.66,5.6-2.44,8.43h111.65Q1506.29,342,1505,337.78Z" transform="translate(0 0.05)"/><circle class="cls-54" cx="1451.65" cy="424.02" r="39.87" transform="translate(-40.93 180.6) rotate(-7.02)"/><path class="cls-55" d="M1451.65,458.23A34.21,34.21,0,1,0,1417.44,424,34.27,34.27,0,0,0,1451.65,458.23Z" transform="translate(0 0.05)"/><path class="cls-56" d="M1482.74,419.58A37.44,37.44,0,0,1,1445.3,457c-1.07,0-2.13,0-3.18-.13a34.22,34.22,0,0,0,37.18-53A37.28,37.28,0,0,1,1482.74,419.58Z" transform="translate(0 0.05)"/><polygon class="cls-57" points="1451.64 386.13 1452.15 386.37 1452.66 386.62 1452.78 387.16 1452.91 387.71 1452.56 388.15 1452.21 388.59 1451.64 388.59 1451.08 388.59 1450.73 388.15 1450.38 387.71 1450.51 387.16 1450.63 386.62 1451.14 386.37 1451.64 386.13"/><polygon class="cls-57" points="1424.81 397.24 1425.34 397.06 1425.87 396.87 1426.35 397.17 1426.82 397.47 1426.89 398.03 1426.95 398.59 1426.55 398.98 1426.15 399.38 1425.6 399.32 1425.04 399.25 1424.74 398.78 1424.44 398.3 1424.63 397.77 1424.81 397.24"/><polygon class="cls-57" points="1413.7 424.08 1413.94 423.57 1414.18 423.06 1414.73 422.94 1415.28 422.81 1415.72 423.16 1416.16 423.51 1416.16 424.08 1416.16 424.64 1415.72 424.99 1415.28 425.34 1414.73 425.21 1414.18 425.09 1413.94 424.58 1413.7 424.08"/><polygon class="cls-57" points="1424.81 450.91 1424.63 450.38 1424.44 449.85 1424.74 449.37 1425.04 448.9 1425.6 448.83 1426.15 448.77 1426.55 449.17 1426.95 449.57 1426.89 450.12 1426.82 450.68 1426.35 450.98 1425.87 451.28 1425.34 451.1 1424.81 450.91"/><polygon class="cls-57" points="1451.64 462.02 1451.14 461.78 1450.63 461.54 1450.51 460.99 1450.38 460.44 1450.73 460 1451.08 459.56 1451.64 459.56 1452.21 459.56 1452.56 460 1452.91 460.44 1452.78 460.99 1452.66 461.54 1452.15 461.78 1451.64 462.02"/><polygon class="cls-57" points="1478.48 450.91 1477.95 451.1 1477.42 451.28 1476.94 450.98 1476.47 450.68 1476.4 450.12 1476.34 449.57 1476.74 449.17 1477.13 448.77 1477.69 448.83 1478.25 448.9 1478.55 449.37 1478.85 449.85 1478.66 450.38 1478.48 450.91"/><polygon class="cls-57" points="1489.59 424.08 1489.35 424.58 1489.11 425.09 1488.56 425.21 1488.01 425.34 1487.57 424.99 1487.13 424.64 1487.13 424.08 1487.13 423.51 1487.57 423.16 1488.01 422.81 1488.56 422.94 1489.11 423.06 1489.35 423.57 1489.59 424.08"/><polygon class="cls-57" points="1478.48 397.24 1478.66 397.77 1478.85 398.3 1478.55 398.78 1478.25 399.25 1477.69 399.32 1477.13 399.38 1476.74 398.98 1476.34 398.59 1476.4 398.03 1476.47 397.47 1476.94 397.17 1477.42 396.87 1477.95 397.06 1478.48 397.24"/><rect class="cls-58" x="1411" y="587.9" width="81.29" height="13.06"/><polygon class="cls-59" points="1416.92 592.53 1417.81 592.95 1418.68 593.37 1418.9 594.33 1419.12 595.28 1418.51 596.04 1417.9 596.81 1416.92 596.81 1415.95 596.81 1415.34 596.04 1414.73 595.28 1414.95 594.33 1415.16 593.37 1416.05 592.95 1416.92 592.53"/><polygon class="cls-59" points="1434.29 592.53 1435.16 592.95 1436.05 593.37 1436.26 594.33 1436.48 595.28 1435.87 596.04 1435.26 596.81 1434.29 596.81 1433.31 596.81 1432.7 596.04 1432.09 595.28 1432.31 594.33 1432.53 593.37 1433.4 592.95 1434.29 592.53"/><polygon class="cls-59" points="1451.64 592.53 1452.53 592.95 1453.4 593.37 1453.62 594.33 1453.84 595.28 1453.23 596.04 1452.62 596.81 1451.64 596.81 1450.67 596.81 1450.06 596.04 1449.45 595.28 1449.67 594.33 1449.88 593.37 1450.77 592.95 1451.64 592.53"/><polygon class="cls-59" points="1469.01 592.53 1469.88 592.95 1470.77 593.37 1470.98 594.33 1471.2 595.28 1470.59 596.04 1469.98 596.81 1469.01 596.81 1468.03 596.81 1467.42 596.04 1466.81 595.28 1467.03 594.33 1467.24 593.37 1468.13 592.95 1469.01 592.53"/><polygon class="cls-59" points="1486.37 592.53 1487.24 592.95 1488.13 593.37 1488.34 594.33 1488.56 595.28 1487.95 596.04 1487.34 596.81 1486.37 596.81 1485.39 596.81 1484.78 596.04 1484.17 595.28 1484.39 594.33 1484.61 593.37 1485.48 592.95 1486.37 592.53"/><polygon class="cls-60" points="1451.64 535.19 1458.02 559.51 1451.64 628.96 1451.64 535.19"/><polygon class="cls-61" points="1451.64 535.19 1445.27 559.51 1451.64 628.96 1451.64 535.19"/><path class="cls-62" d="M1447.82,242.78c-7.94,6.17-33.88,67.61-40.4,87.09h24.26C1435.09,302.68,1439.82,271.73,1447.82,242.78Z" transform="translate(0 0.05)"/><path class="cls-63" d="M1398.9,354.25s-9.81,44.16-10.11,81.57c-.16,18.72,6.41,117.09,20.54,128.5l24.54-.92V466.18c-32.12-7.37-37.26-67.66,1.38-86.48l-.46-27.29C1422.71,352.41,1411,353.49,1398.9,354.25Z" transform="translate(0 0.05)"/><path class="cls-64" d="M1445.22,453.28c-13.2-1.06-23.62-13.91-23.62-29.62S1432,395.09,1445.22,394Z" transform="translate(0 0.05)"/></g><g id="estrellas"><path class="cls-65" d="M1853.78,1020a1.8,1.8,0,0,0,2.43-.78,1.82,1.82,0,1,0-3.23-1.66A1.81,1.81,0,0,0,1853.78,1020Z" transform="translate(0 0.05)"/><path class="cls-65" d="M1865.93,241.63a1.8,1.8,0,0,0,2.43-.78,1.82,1.82,0,1,0-3.23-1.66A1.81,1.81,0,0,0,1865.93,241.63Z" transform="translate(0 0.05)"/><path class="cls-65" d="M833,572.37a2.42,2.42,0,1,0-1-3.25A2.42,2.42,0,0,0,833,572.37Z" transform="translate(0 0.05)"/><path class="cls-65" d="M870.81,944.48A1.81,1.81,0,1,0,870,942,1.82,1.82,0,0,0,870.81,944.48Z" transform="translate(0 0.05)"/><path class="cls-65" d="M773.35,844.94a1.81,1.81,0,0,0,2.45-.77,1.81,1.81,0,1,0-3.23-1.65A1.8,1.8,0,0,0,773.35,844.94Z" transform="translate(0 0.05)"/><path class="cls-65" d="M665.71,875.07a1.81,1.81,0,1,0-.79-2.43A1.81,1.81,0,0,0,665.71,875.07Z" transform="translate(0 0.05)"/><path class="cls-65" d="M542.18,1059.22a1.82,1.82,0,0,0,2.44-.78,1.82,1.82,0,1,0-3.24-1.66A1.82,1.82,0,0,0,542.18,1059.22Z" transform="translate(0 0.05)"/><path class="cls-65" d="M609.67,1010.89a2.42,2.42,0,0,0,2.2-4.31,2.42,2.42,0,1,0-2.2,4.31Z" transform="translate(0 0.05)"/><path class="cls-65" d="M779.49,882.92a2.38,2.38,0,0,0,3.23-1,2.41,2.41,0,1,0-3.23,1Z" transform="translate(0 0.05)"/><path class="cls-65" d="M1069.94,999.07a2.41,2.41,0,1,1-3-1.61A2.42,2.42,0,0,1,1069.94,999.07Z" transform="translate(0 0.05)"/><path class="cls-65" d="M840,1059.55a1.82,1.82,0,1,1-2.27-1.19A1.81,1.81,0,0,1,840,1059.55Z" transform="translate(0 0.05)"/><path class="cls-65" d="M845.23,769a1.82,1.82,0,0,1-1.2,2.26,1.81,1.81,0,1,1,1.2-2.26Z" transform="translate(0 0.05)"/><path class="cls-65" d="M727.71,742.87a1.81,1.81,0,1,1-3.46,1,1.8,1.8,0,0,1,1.21-2.25A1.77,1.77,0,0,1,727.71,742.87Z" transform="translate(0 0.05)"/><path class="cls-65" d="M1002.1,778.38a1.81,1.81,0,1,1-2.26-1.19A1.8,1.8,0,0,1,1002.1,778.38Z" transform="translate(0 0.05)"/><path class="cls-65" d="M881.11,720a1.81,1.81,0,1,1-2.27-1.2A1.81,1.81,0,0,1,881.11,720Z" transform="translate(0 0.05)"/><path class="cls-65" d="M788.14,857.83a1.81,1.81,0,1,1-2.26-1.2A1.8,1.8,0,0,1,788.14,857.83Z" transform="translate(0 0.05)"/><path class="cls-65" d="M772.27,751.52a2.42,2.42,0,1,1-3-1.6A2.41,2.41,0,0,1,772.27,751.52Z" transform="translate(0 0.05)"/><path class="cls-65" d="M1041.17,1027.28a3.51,3.51,0,1,1-4.38-2.33A3.52,3.52,0,0,1,1041.17,1027.28Z" transform="translate(0 0.05)"/><path class="cls-65" d="M883,166.16a1.81,1.81,0,1,0-.79-2.44A1.82,1.82,0,0,0,883,166.16Z" transform="translate(0 0.05)"/><path class="cls-65" d="M785.5,66.62a1.81,1.81,0,0,0,2.45-.77,1.81,1.81,0,1,0-3.23-1.65A1.8,1.8,0,0,0,785.5,66.62Z" transform="translate(0 0.05)"/><path class="cls-65" d="M677.86,96.75a1.81,1.81,0,1,0-.79-2.43A1.81,1.81,0,0,0,677.86,96.75Z" transform="translate(0 0.05)"/><path class="cls-65" d="M554.33,280.9a1.82,1.82,0,0,0,2.44-.78,1.82,1.82,0,0,0-3.24-1.66A1.82,1.82,0,0,0,554.33,280.9Z" transform="translate(0 0.05)"/><path class="cls-65" d="M664.63,385.32a1.82,1.82,0,1,0-.78-2.43A1.81,1.81,0,0,0,664.63,385.32Z" transform="translate(0 0.05)"/><path class="cls-65" d="M830.89,530.4a1.83,1.83,0,0,0,2.44-.79,1.8,1.8,0,1,0-2.44.79Z" transform="translate(0 0.05)"/><path class="cls-65" d="M796.82,347.32a1.82,1.82,0,0,0,1.65-3.24,1.8,1.8,0,0,0-2.43.79A1.82,1.82,0,0,0,796.82,347.32Z" transform="translate(0 0.05)"/><path class="cls-65" d="M673.34,461.49a1.82,1.82,0,1,0-.78-2.44A1.82,1.82,0,0,0,673.34,461.49Z" transform="translate(0 0.05)"/><path class="cls-65" d="M776.73,319.93a1.82,1.82,0,0,0,2.44-.79,1.86,1.86,0,0,0-.78-2.45,1.82,1.82,0,0,0-1.66,3.24Z" transform="translate(0 0.05)"/><path class="cls-65" d="M938.47,507.07a1.81,1.81,0,1,0-.78-2.44A1.8,1.8,0,0,0,938.47,507.07Z" transform="translate(0 0.05)"/><path class="cls-65" d="M943.18,318.27a1.79,1.79,0,0,0,2.43-.78,1.82,1.82,0,0,0-.79-2.44,1.81,1.81,0,0,0-1.64,3.22Z" transform="translate(0 0.05)"/><path class="cls-65" d="M621.82,232.57a2.42,2.42,0,0,0,2.2-4.31,2.42,2.42,0,1,0-2.2,4.31Z" transform="translate(0 0.05)"/><path class="cls-65" d="M791.64,104.6a2.39,2.39,0,0,0,3.23-1,2.41,2.41,0,1,0-3.23,1Z" transform="translate(0 0.05)"/><path class="cls-65" d="M1082.09,220.75a2.41,2.41,0,1,1-3-1.61A2.42,2.42,0,0,1,1082.09,220.75Z" transform="translate(0 0.05)"/><path class="cls-65" d="M852.19,281.23a1.82,1.82,0,1,1-2.27-1.19A1.81,1.81,0,0,1,852.19,281.23Z" transform="translate(0 0.05)"/><path class="cls-65" d="M1014.2,0c-1.13.07-2.27.1-3.4.1a1.85,1.85,0,0,0,0,1.07A1.83,1.83,0,0,0,1013,2.34a1.83,1.83,0,0,0,1.21-2.28A.54.54,0,0,0,1014.2,0Z" transform="translate(0 0.05)"/><path class="cls-65" d="M800.29,79.51a1.81,1.81,0,1,1-2.26-1.2A1.8,1.8,0,0,1,800.29,79.51Z" transform="translate(0 0.05)"/><path class="cls-65" d="M1006.94,411.94a2.42,2.42,0,1,1-3-1.61A2.42,2.42,0,0,1,1006.94,411.94Z" transform="translate(0 0.05)"/><path class="cls-65" d="M843.17,317.32a2.42,2.42,0,0,1-4.63,1.43,2.44,2.44,0,0,1,1.61-3A2.41,2.41,0,0,1,843.17,317.32Z" transform="translate(0 0.05)"/><path class="cls-65" d="M1053.32,249a3.51,3.51,0,1,1-4.38-2.33A3.52,3.52,0,0,1,1053.32,249Z" transform="translate(0 0.05)"/><path class="cls-65" d="M1398.49,513.47a2.42,2.42,0,1,0-1-3.26A2.43,2.43,0,0,0,1398.49,513.47Z" transform="translate(0 0.05)"/><path class="cls-65" d="M1436.28,885.58a1.82,1.82,0,0,0,1.66-3.24,1.82,1.82,0,0,0-1.66,3.24Z" transform="translate(0 0.05)"/><path class="cls-65" d="M1338.83,786a1.81,1.81,0,0,0,2.45-.76,1.81,1.81,0,1,0-3.23-1.65A1.79,1.79,0,0,0,1338.83,786Z" transform="translate(0 0.05)"/><path class="cls-65" d="M1231.18,816.17a1.82,1.82,0,1,0-.78-2.44A1.83,1.83,0,0,0,1231.18,816.17Z" transform="translate(0 0.05)"/><path class="cls-65" d="M1107.66,1000.32a1.81,1.81,0,0,0,2.43-.78,1.82,1.82,0,1,0-2.43.78Z" transform="translate(0 0.05)"/><path class="cls-65" d="M1350.15,1066.73a1.81,1.81,0,1,0-.78-2.44A1.8,1.8,0,0,0,1350.15,1066.73Z" transform="translate(0 0.05)"/><path class="cls-65" d="M1330.06,1039.34a1.81,1.81,0,0,0,2.43-.78,1.81,1.81,0,1,0-3.22-1.65A1.82,1.82,0,0,0,1330.06,1039.34Z" transform="translate(0 0.05)"/><path class="cls-65" d="M1496.51,1037.69a1.78,1.78,0,0,0,2.42-.78,1.81,1.81,0,0,0-.78-2.44,1.78,1.78,0,0,0-2.43.8A1.8,1.8,0,0,0,1496.51,1037.69Z" transform="translate(0 0.05)"/><path class="cls-65" d="M1175.15,952a2.42,2.42,0,1,0-1.06-3.26A2.44,2.44,0,0,0,1175.15,952Z" transform="translate(0 0.05)"/><path class="cls-65" d="M1345,824a2.42,2.42,0,1,0-1-3.25A2.41,2.41,0,0,0,1345,824Z" transform="translate(0 0.05)"/><path class="cls-65" d="M1635.42,940.16a2.42,2.42,0,1,1-3-1.6A2.41,2.41,0,0,1,1635.42,940.16Z" transform="translate(0 0.05)"/><path class="cls-65" d="M1405.52,1000.65a1.81,1.81,0,0,1-1.21,2.26,1.83,1.83,0,0,1-2.27-1.21,1.78,1.78,0,0,1,1.2-2.24A1.81,1.81,0,0,1,1405.52,1000.65Z" transform="translate(0 0.05)"/><path class="cls-65" d="M1410.71,710.1a1.81,1.81,0,1,1-3.46,1,1.81,1.81,0,1,1,3.46-1Z" transform="translate(0 0.05)"/><path class="cls-65" d="M1293.19,684a1.81,1.81,0,1,1-3.46,1.06,1.81,1.81,0,0,1,3.46-1.06Z" transform="translate(0 0.05)"/><path class="cls-65" d="M1567.58,719.48a1.81,1.81,0,1,1-3.47,1,1.81,1.81,0,0,1,3.47-1Z" transform="translate(0 0.05)"/><path class="cls-65" d="M1446.59,661.06a1.81,1.81,0,1,1-2.27-1.2A1.82,1.82,0,0,1,1446.59,661.06Z" transform="translate(0 0.05)"/><path class="cls-65" d="M1353.61,798.93a1.81,1.81,0,0,1-3.46,1.06,1.81,1.81,0,1,1,3.46-1.06Z" transform="translate(0 0.05)"/><path class="cls-65" d="M1396.49,1036.74a2.42,2.42,0,0,1-4.62,1.42,2.44,2.44,0,0,1,1.61-3A2.4,2.4,0,0,1,1396.49,1036.74Z" transform="translate(0 0.05)"/><path class="cls-65" d="M1337.75,692.62a2.43,2.43,0,0,1-1.61,3,2.42,2.42,0,0,1-1.42-4.62A2.44,2.44,0,0,1,1337.75,692.62Z" transform="translate(0 0.05)"/><path class="cls-65" d="M1606.64,968.38a3.51,3.51,0,1,1-4.37-2.34A3.51,3.51,0,0,1,1606.64,968.38Z" transform="translate(0 0.05)"/><path class="cls-65" d="M1448.43,107.26a1.82,1.82,0,1,0,1.66-3.24,1.82,1.82,0,0,0-1.66,3.24Z" transform="translate(0 0.05)"/><path class="cls-65" d="M1351,7.71a1.81,1.81,0,0,0,2.45-.76,1.81,1.81,0,1,0-3.23-1.65A1.79,1.79,0,0,0,1351,7.71Z" transform="translate(0 0.05)"/><path class="cls-65" d="M1243.33,37.85a1.81,1.81,0,1,0,1.66-3.22,1.81,1.81,0,0,0-1.66,3.22Z" transform="translate(0 0.05)"/><path class="cls-65" d="M1119.81,222a1.8,1.8,0,0,0,2.43-.78,1.82,1.82,0,1,0-3.23-1.66A1.82,1.82,0,0,0,1119.81,222Z" transform="translate(0 0.05)"/><path class="cls-65" d="M1230.11,326.42a1.82,1.82,0,0,0,2.44-.79,1.84,1.84,0,0,0-.78-2.45,1.82,1.82,0,0,0-1.66,3.24Z" transform="translate(0 0.05)"/><path class="cls-65" d="M1396.37,471.5a1.84,1.84,0,0,0,2.44-.79,1.8,1.8,0,1,0-2.44.79Z" transform="translate(0 0.05)"/><path class="cls-65" d="M1362.3,288.41a1.81,1.81,0,1,0-.78-2.44A1.8,1.8,0,0,0,1362.3,288.41Z" transform="translate(0 0.05)"/><path class="cls-65" d="M1238.81,402.58a1.81,1.81,0,1,0-.77-2.44A1.81,1.81,0,0,0,1238.81,402.58Z" transform="translate(0 0.05)"/><path class="cls-65" d="M1342.21,261a1.81,1.81,0,0,0,2.43-.78,1.81,1.81,0,1,0-3.22-1.65A1.82,1.82,0,0,0,1342.21,261Z" transform="translate(0 0.05)"/><path class="cls-65" d="M1504,448.16a1.8,1.8,0,1,0-.78-2.43A1.79,1.79,0,0,0,1504,448.16Z" transform="translate(0 0.05)"/><path class="cls-65" d="M1508.66,259.37a1.78,1.78,0,0,0,2.42-.78,1.81,1.81,0,0,0-.78-2.44,1.81,1.81,0,0,0-1.64,3.22Z" transform="translate(0 0.05)"/><path class="cls-65" d="M1187.3,173.66a2.42,2.42,0,1,0-1.06-3.25A2.43,2.43,0,0,0,1187.3,173.66Z" transform="translate(0 0.05)"/><path class="cls-65" d="M1357.11,45.7a2.42,2.42,0,1,0-1-3.25A2.41,2.41,0,0,0,1357.11,45.7Z" transform="translate(0 0.05)"/><path class="cls-65" d="M1647.57,161.84a2.42,2.42,0,1,1-3-1.6A2.41,2.41,0,0,1,1647.57,161.84Z" transform="translate(0 0.05)"/><path class="cls-65" d="M1417.67,222.33a1.81,1.81,0,0,1-1.21,2.26,1.83,1.83,0,0,1-2.27-1.21,1.78,1.78,0,0,1,1.2-2.24A1.81,1.81,0,0,1,1417.67,222.33Z" transform="translate(0 0.05)"/><path class="cls-65" d="M1365.76,20.61a1.81,1.81,0,0,1-3.46,1.06,1.81,1.81,0,1,1,3.46-1.06Z" transform="translate(0 0.05)"/><path class="cls-65" d="M1572.42,353a2.42,2.42,0,1,1-4.63,1.4,2.42,2.42,0,0,1,4.63-1.4Z" transform="translate(0 0.05)"/><path class="cls-65" d="M1408.64,258.42a2.42,2.42,0,0,1-4.62,1.42,2.43,2.43,0,0,1,1.6-3A2.41,2.41,0,0,1,1408.64,258.42Z" transform="translate(0 0.05)"/><path class="cls-65" d="M1618.79,190.06a3.51,3.51,0,1,1-4.38-2.34A3.51,3.51,0,0,1,1618.79,190.06Z" transform="translate(0 0.05)"/><path class="cls-65" d="M1732.28,525.25a2.42,2.42,0,1,0-1-3.25A2.43,2.43,0,0,0,1732.28,525.25Z" transform="translate(0 0.05)"/><path class="cls-65" d="M1770.07,897.36a1.84,1.84,0,0,0,2.45-.79,1.82,1.82,0,0,0-.8-2.44,1.81,1.81,0,0,0-1.65,3.23Z" transform="translate(0 0.05)"/><path class="cls-65" d="M1672.62,797.81a1.81,1.81,0,0,0,2.45-.76,1.81,1.81,0,1,0-3.23-1.65A1.79,1.79,0,0,0,1672.62,797.81Z" transform="translate(0 0.05)"/><path class="cls-65" d="M1565,828a1.83,1.83,0,0,0,2.44-.78,1.81,1.81,0,1,0-2.44.78Z" transform="translate(0 0.05)"/><path class="cls-65" d="M1441.45,1012.1a1.8,1.8,0,0,0,2.43-.78,1.82,1.82,0,1,0-3.23-1.66A1.82,1.82,0,0,0,1441.45,1012.1Z" transform="translate(0 0.05)"/><path class="cls-65" d="M1663.85,1051.12a1.81,1.81,0,0,0,2.43-.78,1.81,1.81,0,1,0-3.22-1.65A1.82,1.82,0,0,0,1663.85,1051.12Z" transform="translate(0 0.05)"/><path class="cls-65" d="M1830.3,1049.47a1.78,1.78,0,0,0,2.42-.78,1.81,1.81,0,0,0-.78-2.44,1.81,1.81,0,0,0-1.64,3.22Z" transform="translate(0 0.05)"/><path class="cls-65" d="M1508.94,963.77a2.42,2.42,0,1,0-1.06-3.26A2.45,2.45,0,0,0,1508.94,963.77Z" transform="translate(0 0.05)"/><path class="cls-65" d="M1678.75,835.8a2.42,2.42,0,1,0-1-3.25A2.42,2.42,0,0,0,1678.75,835.8Z" transform="translate(0 0.05)"/><path class="cls-65" d="M1739.31,1012.43a1.81,1.81,0,0,1-1.21,2.26,1.83,1.83,0,0,1-2.27-1.21,1.78,1.78,0,0,1,1.2-2.24A1.81,1.81,0,0,1,1739.31,1012.43Z" transform="translate(0 0.05)"/><path class="cls-65" d="M1744.5,721.88a1.82,1.82,0,0,1-1.2,2.26,1.81,1.81,0,1,1,1.2-2.26Z" transform="translate(0 0.05)"/><path class="cls-65" d="M1627,695.74a1.83,1.83,0,0,1-1.2,2.27,1.81,1.81,0,0,1-2.26-1.21,1.81,1.81,0,0,1,3.46-1.06Z" transform="translate(0 0.05)"/><path class="cls-65" d="M1901.37,731.26a1.81,1.81,0,1,1-3.47,1,1.81,1.81,0,0,1,3.47-1Z" transform="translate(0 0.05)"/><path class="cls-65" d="M1780.38,672.84a1.81,1.81,0,1,1-2.27-1.2A1.82,1.82,0,0,1,1780.38,672.84Z" transform="translate(0 0.05)"/><path class="cls-65" d="M1687.4,810.71a1.81,1.81,0,0,1-3.46,1.06,1.81,1.81,0,1,1,3.46-1.06Z" transform="translate(0 0.05)"/><path class="cls-65" d="M1730.28,1048.52a2.42,2.42,0,0,1-4.62,1.42,2.43,2.43,0,0,1,1.6-3A2.41,2.41,0,0,1,1730.28,1048.52Z" transform="translate(0 0.05)"/><path class="cls-65" d="M1671.54,704.4a2.42,2.42,0,1,1-4.63,1.41,2.41,2.41,0,0,1,1.6-3A2.44,2.44,0,0,1,1671.54,704.4Z" transform="translate(0 0.05)"/><path class="cls-65" d="M1782.22,119a1.84,1.84,0,0,0,2.45-.79,1.82,1.82,0,0,0-.8-2.44,1.81,1.81,0,0,0-1.65,3.23Z" transform="translate(0 0.05)"/><path class="cls-65" d="M1684.77,19.49a1.8,1.8,0,0,0,2.45-.76,1.81,1.81,0,1,0-3.23-1.65A1.79,1.79,0,0,0,1684.77,19.49Z" transform="translate(0 0.05)"/><path class="cls-65" d="M1577.12,49.63a1.83,1.83,0,0,0,2.44-.78,1.81,1.81,0,1,0-2.44.78Z" transform="translate(0 0.05)"/><path class="cls-65" d="M1453.6,233.78A1.8,1.8,0,0,0,1456,233a1.82,1.82,0,1,0-2.43.78Z" transform="translate(0 0.05)"/><path class="cls-65" d="M1563.9,338.2a1.81,1.81,0,0,0,2.44-.79,1.84,1.84,0,0,0-.79-2.45,1.82,1.82,0,0,0-1.65,3.24Z" transform="translate(0 0.05)"/><path class="cls-65" d="M1730.16,483.28a1.84,1.84,0,0,0,2.44-.79,1.8,1.8,0,1,0-2.44.79Z" transform="translate(0 0.05)"/><path class="cls-65" d="M1696.09,300.19a1.81,1.81,0,1,0-.78-2.44A1.8,1.8,0,0,0,1696.09,300.19Z" transform="translate(0 0.05)"/><path class="cls-65" d="M1572.6,414.37a1.82,1.82,0,1,0-.77-2.45A1.81,1.81,0,0,0,1572.6,414.37Z" transform="translate(0 0.05)"/><path class="cls-65" d="M1676,272.8a1.8,1.8,0,0,0,2.43-.78,1.81,1.81,0,1,0-3.22-1.65A1.82,1.82,0,0,0,1676,272.8Z" transform="translate(0 0.05)"/><path class="cls-65" d="M1837.74,460a1.8,1.8,0,1,0-.78-2.44A1.8,1.8,0,0,0,1837.74,460Z" transform="translate(0 0.05)"/><path class="cls-65" d="M1842.45,271.15a1.78,1.78,0,0,0,2.42-.78,1.81,1.81,0,0,0-.78-2.44,1.81,1.81,0,0,0-1.64,3.22Z" transform="translate(0 0.05)"/><path class="cls-65" d="M1521.09,185.45a2.42,2.42,0,1,0-1.06-3.26A2.45,2.45,0,0,0,1521.09,185.45Z" transform="translate(0 0.05)"/><path class="cls-65" d="M1690.9,57.48a2.41,2.41,0,0,0,3.24-1,2.41,2.41,0,1,0-3.24,1Z" transform="translate(0 0.05)"/><path class="cls-65" d="M1751.46,234.11a1.82,1.82,0,0,1-3.48,1,1.78,1.78,0,0,1,1.2-2.24A1.82,1.82,0,0,1,1751.46,234.11Z" transform="translate(0 0.05)"/><path class="cls-65" d="M1699.55,32.39a1.81,1.81,0,0,1-3.46,1.06,1.81,1.81,0,1,1,3.46-1.06Z" transform="translate(0 0.05)"/><path class="cls-65" d="M1906.21,364.82a2.42,2.42,0,1,1-3-1.61A2.43,2.43,0,0,1,1906.21,364.82Z" transform="translate(0 0.05)"/><path class="cls-65" d="M1742.43,270.2a2.42,2.42,0,0,1-4.62,1.42,2.43,2.43,0,0,1,1.6-3A2.41,2.41,0,0,1,1742.43,270.2Z" transform="translate(0 0.05)"/></g><g id="logo"><polygon class="cls-66" points="1431.37 419.58 1450.42 408.96 1431.37 398.29 1431.37 419.58"/><polygon class="cls-66" points="1453.71 408.91 1472 398.29 1472 419.58 1453.71 408.91"/><polygon class="cls-67" points="1465.02 415.49 1472 398.29 1472 419.58 1465.02 415.49"/><polygon class="cls-67" points="1438.41 415.49 1431.37 398.29 1431.37 419.58 1438.41 415.49"/><polygon class="cls-68" points="1431.66 421.14 1451.86 409.66 1471.6 421.14 1452.09 450.28 1431.66 421.14"/><polygon class="cls-69" points="1431.37 423.22 1431.37 439.03 1449.55 449.48 1431.37 423.22"/><polygon class="cls-69" points="1454.28 449.48 1472 423.22 1472 439.44 1454.28 449.48"/><polygon class="cls-70" points="1472 433.89 1454.28 449.48 1472 439.44 1472 433.89"/><polyline class="cls-70" points="1431.37 439.03 1449.55 449.48 1431.37 433.89"/></g></g></svg>