<svg xmlns="http://www.w3.org/2000/svg" xmlns:xlink="http://www.w3.org/1999/xlink" viewBox="0 0 1920.2948 1080.34766"><defs><style>.cls-1{isolation:isolate;}.cls-13,.cls-16,.cls-2,.cls-21,.cls-24,.cls-25,.cls-3,.cls-37,.cls-38,.cls-39,.cls-4,.cls-41,.cls-42,.cls-43,.cls-44,.cls-45,.cls-46,.cls-47,.cls-48,.cls-49,.cls-50,.cls-51,.cls-52,.cls-53,.cls-55,.cls-56,.cls-57,.cls-59,.cls-60,.cls-61,.cls-62,.cls-63,.cls-64{fill-rule:evenodd;}.cls-2{fill:url(#Degradado_sin_nombre_18);}.cls-14,.cls-3,.cls-4,.cls-45,.cls-65{fill:#fff;}.cls-4{opacity:0.64;}.cls-47,.cls-48,.cls-5,.cls-56,.cls-64,.cls-65{mix-blend-mode:screen;}.cls-6{fill:#fffefe;}.cls-7{fill:#f29e7d;}.cls-16,.cls-8{fill:#fff57f;}.cls-9{fill:#2a8bbc;}.cls-10{fill:#d9d9d9;mix-blend-mode:multiply;}.cls-11{fill:#55bece;}.cls-12{fill:#17acb3;}.cls-13,.cls-19{fill:#e7e5e4;}.cls-15{fill:#f7be7e;}.cls-17,.cls-39{mix-blend-mode:soft-light;}.cls-18{fill:#3d474d;}.cls-20{fill:#f2f2f2;}.cls-21{fill:#e74168;}.cls-22,.cls-25{fill:#60b2e3;}.cls-23{fill:#e8546b;}.cls-24{fill:#ef8333;}.cls-26{fill:#ffd01f;}.cls-27{fill:#2981e9;}.cls-28{fill:#ff581f;}.cls-29{fill:#fff0ff;}.cls-30{fill:#56417d;}.cls-31{fill:#fffbff;}.cls-32{fill:#ffe7af;}.cls-33{fill:#fffbcc;}.cls-34{fill:#fffff1;}.cls-35{fill:#bca1c8;}.cls-36{fill:#64486f;}.cls-37{fill:#7e668f;}.cls-38{fill:#fffeff;}.cls-39{fill:#42c5ee;}.cls-40{opacity:0.69;}.cls-41{fill:#f9b059;}.cls-42{fill:#f7ce78;}.cls-43{fill:#f6f0eb;}.cls-44{fill:url(#linear-gradient);}.cls-45{opacity:0.17;}.cls-46{fill:url(#linear-gradient-2);}.cls-47{fill:#db6e00;}.cls-47,.cls-48{opacity:0.24;}.cls-48{fill:#ce6612;}.cls-49,.cls-62{fill:#ea926a;}.cls-49,.cls-56,.cls-64{opacity:0.25;}.cls-50{fill:url(#linear-gradient-3);}.cls-51{fill:#e5eef9;}.cls-52{fill:url(#linear-gradient-4);}.cls-53,.cls-58{fill:#752994;}.cls-54{fill:#e47d7d;}.cls-55{fill:url(#radial-gradient);}.cls-56{fill:#0ea8ee;}.cls-57{fill:#31587d;}.cls-59{fill:#303030;}.cls-60{fill:url(#linear-gradient-5);}.cls-61{fill:url(#linear-gradient-6);}.cls-62{opacity:0.46;}.cls-63{fill:#fcfdff;}.cls-64{fill:#3dc6fa;}.cls-65{opacity:0.62;}.cls-66{fill:#f07622;}.cls-67{fill:#d8681a;}.cls-68{fill:url(#Degradado_sin_nombre_12);}.cls-69{fill:#f4f4f4;}.cls-70{fill:#dedede;}</style><radialGradient id="Degradado_sin_nombre_18" cx="1386.99701" cy="242.62416" r="1080.53811" gradientTransform="translate(0.00001) scale(1.18519 1)" gradientUnits="userSpaceOnUse"><stop offset="0" stop-color="#d650d1"/><stop offset="1" stop-color="#3b1aaf"/></radialGradient><linearGradient id="linear-gradient" x1="1451.64495" y1="638.4742" x2="1451.64495" y2="588.41336" gradientUnits="userSpaceOnUse"><stop offset="0" stop-color="#ff5a19"/><stop offset="0.18001" stop-color="#fd591c"/><stop offset="0.304" stop-color="#f75525"/><stop offset="0.41115" stop-color="#ec4d34"/><stop offset="0.50877" stop-color="#dd434a"/><stop offset="0.5999" stop-color="#ca3666"/><stop offset="0.68504" stop-color="#b22788"/><stop offset="0.70687" stop-color="#ab2292"/></linearGradient><linearGradient id="linear-gradient-2" x1="1325.45255" y1="419.09176" x2="1401.26077" y2="698.48237" xlink:href="#linear-gradient"/><linearGradient id="linear-gradient-3" x1="1969.93456" y1="419.09176" x2="2045.74278" y2="698.48237" gradientTransform="matrix(-1, 0, 0, 1, 3547.807, 0)" xlink:href="#linear-gradient"/><linearGradient id="linear-gradient-4" x1="1398.25771" y1="285.01659" x2="1505.03218" y2="285.01659" gradientUnits="userSpaceOnUse"><stop offset="0" stop-color="#ff5a19"/><stop offset="0.70687" stop-color="#ab2292"/></linearGradient><radialGradient id="radial-gradient" cx="1451.07693" cy="397.77559" r="55.90827" gradientTransform="matrix(1, 0, 0, 1, 0, 0)" xlink:href="#Degradado_sin_nombre_18"/><linearGradient id="linear-gradient-5" x1="1387.91708" y1="572.81836" x2="1495.58571" y2="588.46252" xlink:href="#linear-gradient"/><linearGradient id="linear-gradient-6" x1="1471.60639" y1="579.16224" x2="1430.65544" y2="585.14386" xlink:href="#linear-gradient"/><linearGradient id="Degradado_sin_nombre_12" x1="1451.62875" y1="409.65723" x2="1451.62875" y2="450.28431" gradientUnits="userSpaceOnUse"><stop offset="0" stop-color="#f07622"/><stop offset="0.12643" stop-color="#f26d1f"/><stop offset="0.33657" stop-color="#f65317"/><stop offset="0.56742" stop-color="#fc300c"/><stop offset="0.86517" stop-color="#fc300c"/><stop offset="0.99438" stop-color="#fc300c"/></linearGradient></defs><title>backgroundUnderConstruction</title><g class="cls-1"><g id="degradado"><path class="cls-2" d="M1013.116,0q-2.03164.08954-4.06336,0H0V1080H833.46643c6.649-1.083,13.87354-.28662,20.61023-.05835,9.71692-.76514,19.43561-.00293,29.21747.05835H901.3103a4.785,4.785,0,0,1,1.21912-.17651H911.353a4.77885,4.77885,0,0,1,1.22259.17651h2.09638q2.67014-.12671,5.34472-.15283c.28858-.00757.57636-.02344.86566-.02368.06537,0,.12391.01.18781.0122q1.60629-.00951,3.21411.00025c.0448-.0011.082-.01221.1275-.01245.23426-.00147.46686.01611.70063.01989,3.9934.037,7.99475.13733,12.00531.15662h14.88378a35.88572,35.88572,0,0,1,6.19532-.13708,5.27267,5.27267,0,0,1,1.86206-.3335c2.876.00281,5.72272.06995,8.562.25586,13.30273.172,26.60138-.68128,39.90863-.72644a4.7441,4.7441,0,0,1,2.97864.94116h2.21991c2.07043-.22729,4.14862-.384,6.24029-.43811,1.17273-.12439,2.35181-.24377,3.53174-.34485q1.6582-.1701,3.30127-.22363A36.1098,36.1098,0,0,1,1038.26941,1080h21.40979a179.11887,179.11887,0,0,0,19.99158-1.70374,5.16647,5.16647,0,0,1,4.34314,1.30518c1.97485-.35144,3.94995-.71826,5.94567-.99377a102.582,102.582,0,0,1,14.09925-.49,4.60284,4.60284,0,0,1,3.59668,1.53393A90.84583,90.84583,0,0,1,1119.5,1080h4.36206a82.1114,82.1114,0,0,1,14.0791-1.88232,4.62651,4.62651,0,0,1,2.905.863A116.988,116.988,0,0,1,1155.353,1080h2.05346a535.447,535.447,0,0,1,60.76075-2.83569c48.7987-8.69043,99.25171-11.35059,148.39721-4.04456,3.25171.48328,4.052,3.37659,3.27173,5.91248a145.09439,145.09439,0,0,1,15.75781-1.16016,133.13416,133.13416,0,0,1,50.56922-1.12231c4.65539-.11988,9.50525-.12891,14.35705.14965a124.07023,124.07023,0,0,1,16.667-.12524c2.189-.23535,4.34924-.4281,6.44751-.603.32861-.02734.662-.05237.99267-.07873,5.93823-3.244,12.96118-4.68177,19.55652-5.47364a93.53846,93.53846,0,0,1,20.245-.24975q2.94964-.37629,5.91186-.6731c13.38538-1.326,28.70984-1.74157,41.33252,3.97144a229.063,229.063,0,0,1,30.615-2.48755c1.92834-.33655,3.83948-.63367,5.70752-.89343,8.60266-1.19654,17.79712-1.79407,26.49976-.25269,24.09606-1.52685,48.39794-.77563,72.50439.084a4.91021,4.91021,0,0,1,3.27271,1.48071c.3208-.02185.64184-.0481.96264-.069a4.186,4.186,0,0,1,3.56189,1.49072q10.22736.50317,20.43811,1.33277a5.49774,5.49774,0,0,1,4.05908,2.4674,246.02906,246.02906,0,0,1,26.95545.167c12.46484-3.598,25.65368-5.08227,38.43262-5.89526,7.43762-.47327,14.88049-.65417,22.32458-.65344a200.2232,200.2232,0,0,1,56.38086-.14234,3.83066,3.83066,0,0,1,3.54333,4.19812c1.104.035,2.20838.06519,3.31116.1139,13.20288-1.16175,26.481-1.51416,39.75757-1.62049V0Z" transform="translate(0 0.0542)"/></g><g id="nubes"><path class="cls-3" d="M1920.29419,1022.69775a48.29041,48.29041,0,0,0-37.53711,10.4281,36.40094,36.40094,0,0,0-16.87793-8.73779,56.13536,56.13536,0,0,0-100.94226-3.39819,48.53217,48.53217,0,0,0-41.4458-4.55,38.95043,38.95043,0,0,0-73.99976-16.29236,43.85734,43.85734,0,0,0-54.55481,6.55292q-1.051-.67109-2.14758-1.275a30.06372,30.06372,0,0,0-43.62012-32.86249,46.319,46.319,0,0,0-88.25732-9.5564,42.684,42.684,0,0,0-40.75623-2.1095,24.53542,24.53542,0,1,0-48.647-5.95807,42.67946,42.67946,0,0,0-40.24634,6.1471,42.02166,42.02166,0,0,0-82.229.26807,54.02071,54.02071,0,0,0-69.08057,26.40655,46.93364,46.93364,0,0,0-79.13867,44.95014,65.04119,65.04119,0,0,0-31.09936,46.71472c3.32971-.27722,6.65014-.64295,9.95642-1.12928a5.13433,5.13433,0,0,1,4.32312,1.30872c1.98169-.35254,3.96313-.72082,5.96569-.99731a102.582,102.582,0,0,1,14.09925-.49,4.60284,4.60284,0,0,1,3.59668,1.53393,99.21225,99.21225,0,0,1,14.88574.64185,3.77087,3.77087,0,0,1,.42358-.11487,86.45752,86.45752,0,0,1,14.97632-2.06091,4.62651,4.62651,0,0,1,2.905.863A116.988,116.988,0,0,1,1155.353,1080a5.24529,5.24529,0,0,1,.60888.14624,535.55178,535.55178,0,0,1,62.20533-2.98193c48.7987-8.69043,99.25171-11.35059,148.39721-4.04456,3.25049.48328,4.053,3.37634,3.27515,5.91223a145.03177,145.03177,0,0,1,15.75439-1.15991,133.13416,133.13416,0,0,1,50.56922-1.12231c4.65539-.11988,9.50525-.12891,14.35705.14965a124.07023,124.07023,0,0,1,16.667-.12524c2.189-.23535,4.34924-.4281,6.44751-.603.32861-.02734.662-.05237.99267-.07873,5.93823-3.244,12.96118-4.68177,19.55652-5.47364a93.53846,93.53846,0,0,1,20.245-.24975q2.94964-.37629,5.91186-.6731c13.38538-1.326,28.70984-1.74157,41.33252,3.97144a229.063,229.063,0,0,1,30.615-2.48755c1.92834-.33655,3.83948-.63367,5.70752-.89343,8.60266-1.19654,17.79712-1.79407,26.49976-.25269,24.09606-1.52685,48.39794-.77563,72.50439.084a4.91021,4.91021,0,0,1,3.27271,1.48071c.3208-.02185.64184-.0481.96264-.069a4.18244,4.18244,0,0,1,3.55444,1.49036q10.231.50316,20.44556,1.33313a5.49774,5.49774,0,0,1,4.05908,2.4674,246.02906,246.02906,0,0,1,26.95545.167c12.46484-3.598,25.65368-5.08227,38.43262-5.89526,7.43762-.47327,14.88049-.65417,22.32458-.65344a200.2232,200.2232,0,0,1,56.38086-.14234,3.83066,3.83066,0,0,1,3.54333,4.19812c1.104.035,2.20838.06519,3.31116.1139,13.30054-1.17029,26.677-1.51917,40.05176-1.6222Z" transform="translate(0 0.0542)"/><path class="cls-4" d="M1592.28833,1071.17981c1.92834-.33655,3.83948-.63367,5.70752-.89343,8.60266-1.19654,17.79712-1.79407,26.49976-.25269,24.09606-1.52685,48.39794-.77563,72.50439.084a4.91021,4.91021,0,0,1,3.27271,1.48071c.3208-.02185.64184-.0481.96264-.069a4.18244,4.18244,0,0,1,3.55444,1.49036q10.231.50316,20.44556,1.33313a5.49774,5.49774,0,0,1,4.05908,2.4674q10.49909-.48981,20.95508-.12195a79.49978,79.49978,0,0,0,.39917-12.0697c-1.0354-23.72436-12.32275-44.02136-28.31567-54.68017a56.93258,56.93258,0,0,0,.83374-12.57038c-1.13013-25.889-19.17212-46.12817-40.29883-45.20611-10.87073.47436-20.439,6.45977-27.014,15.68512-7.91418-17.688-23.51294-29.44135-40.93628-28.68079a37.00477,37.00477,0,0,0-16.53454,4.75769c-4.05078-18.94885-18.472-32.69806-35.00281-31.97638-16.453.718-29.57385,15.53583-32.04761,34.63452a30.74583,30.74583,0,0,0-21.38611-7.74572,29.06091,29.06091,0,0,0-11.69323,3.03668c-1.29493-12.67865-10.381-22.33252-20.942-21.87165-11.04651.48224-19.52234,11.84656-18.93164,25.383a30.16027,30.16027,0,0,0,.47314,4.1723,29.48514,29.48514,0,0,0-15.224-3.52838,30.067,30.067,0,0,0-17.91149,7.08618c-6.43946-16.40576-20.38746-27.51574-36.0553-26.83178-18.51966.8081-33.21009,17.82214-35.48157,39.51959a20.96,20.96,0,0,0-11.77393-3.07746c-13.53149.59076-23.915,14.51227-23.19116,31.0943a36.7163,36.7163,0,0,0,.83606,6.36634q-.86627.64269-1.69543,1.35028c-6.84546-7.84864-16.11817-12.501-26.13355-12.06391a30.97806,30.97806,0,0,0-18.6289,7.45874c-5.70948-12.76855-16.96729-21.25274-29.54261-20.70385-17.35022.75738-30.70349,18.4259-30.07653,39.61389a32.99971,32.99971,0,0,0-13.12623-2.12226,34.20256,34.20256,0,0,0-20.46484,8.1427c-8.447-17.45037-24.22119-28.907-41.7793-28.14074-18.65405.81433-34.10168,15.19641-40.36767,35.12774a28.30194,28.30194,0,0,0-13.379,9.32984c-7.12366-6.5271-16.01917-10.24048-25.51575-9.826-13.52221.59021-25.0979,9.41028-31.69861,22.38952-8.91-15.8225-24.01379-25.95947-40.70275-25.23095-15.04169.65661-28.03034,9.99365-35.938,23.939-6.79023-6.74646-15.49823-10.64331-24.83545-10.23572-13.777.60132-25.37537,10.41614-31.06806,24.43641-6.55023-10.68018-17.10724-17.42237-28.72235-16.91529-15.89972.69409-28.635,14.75147-31.42041,33.04492,6.22931-.75659,12.884-.05944,19.12079.15186,9.71692-.76514,19.43561-.00293,29.21747.05835a5.71779,5.71779,0,0,1,1.16.12378c1.37732-.05786,2.75507-.1062,4.13416-.12378a4.44576,4.44576,0,0,1,.60077.03394,5.76764,5.76764,0,0,1,.63452-.03394c3.35382.01294,6.705.16357,10.05877.17651a5.64866,5.64866,0,0,1,.731.05591,4.84317,4.84317,0,0,1,1.91614-.40893H911.353a4.80262,4.80262,0,0,1,1.5791.28979q3.50061-.21972,7.0083-.26538c.3139-.00879.6272-.02417.942-.02441.07465,0,.143.00927.21582.01184q1.5923-.00917,3.1861.00061c.0448-.0011.082-.01221.1275-.01245.23426-.00147.46686.01611.70063.01989,3.9934.037,7.99475.13733,12.00531.15662a5.29683,5.29683,0,0,1,1.42688.213,97.64866,97.64866,0,0,1,10.78961,0c.1933-.006.38672-.01574.58-.01928a46.91881,46.91881,0,0,1,8.2826-.33081,5.27267,5.27267,0,0,1,1.86206-.3335c2.876.00281,5.72272.06995,8.562.25586,13.30273.172,26.60138-.68128,39.90863-.72644a4.65482,4.65482,0,0,1,3.08594,1.05835c.5158-.01587,1.03149-.03321,1.54718-.04907,2.25726-.26539,4.52343-.44715,6.80572-.50623,1.17273-.12439,2.35181-.24377,3.53174-.34485q1.6582-.1701,3.30127-.22363a36.083,36.083,0,0,1,11.48462,1.01074c13.8374.32935,27.72876.3009,41.38489-1.70789a5.13433,5.13433,0,0,1,4.32312,1.30872c1.98169-.35254,3.96313-.72082,5.96569-.99731a102.582,102.582,0,0,1,14.09925-.49,4.60284,4.60284,0,0,1,3.59668,1.53393,99.21225,99.21225,0,0,1,14.88574.64185,3.77087,3.77087,0,0,1,.42358-.11487,86.45752,86.45752,0,0,1,14.97632-2.06091,4.62651,4.62651,0,0,1,2.905.863A116.988,116.988,0,0,1,1155.353,1080a5.24529,5.24529,0,0,1,.60888.14624,535.55178,535.55178,0,0,1,62.20533-2.98193c48.7987-8.69043,99.25171-11.35059,148.39721-4.04456,3.25049.48328,4.053,3.37634,3.27515,5.91223a145.03177,145.03177,0,0,1,15.75439-1.15991,133.13416,133.13416,0,0,1,50.56922-1.12231c4.65539-.11988,9.50525-.12891,14.35705.14965a124.07023,124.07023,0,0,1,16.667-.12524c2.189-.23535,4.34924-.4281,6.44751-.603.32861-.02734.662-.05237.99267-.07873,5.93823-3.244,12.96118-4.68177,19.55652-5.47364a93.53846,93.53846,0,0,1,20.245-.24975q2.94964-.37629,5.91186-.6731c13.38538-1.326,28.70984-1.74157,41.33252,3.97144A229.063,229.063,0,0,1,1592.28833,1071.17981Z" transform="translate(0 0.0542)"/><path class="cls-4" d="M1920.29419,935l.00061-.02246c-8.31091-8.95746-19.29041-14.21259-31.11609-13.69653a37.00232,37.00232,0,0,0-16.53479,4.75793c-4.05078-18.9491-18.4718-32.69806-35.00281-31.97662-16.45288.7182-29.57361,15.53582-32.0476,34.63452a30.74594,30.74594,0,0,0-21.38623-7.74573,29.06162,29.06162,0,0,0-11.69312,3.03668c-1.29492-12.67865-10.38062-22.33252-20.942-21.87164-11.04651.48224-19.52234,11.8465-18.93127,25.383a30.10353,30.10353,0,0,0,.47266,4.1723,29.48325,29.48325,0,0,0-15.22388-3.52838,30.06907,30.06907,0,0,0-17.91126,7.08618c-6.43957-16.40552-20.38769-27.51575-36.05554-26.83179-18.51953.80835-33.21,17.82239-35.4812,39.51959a20.95927,20.95927,0,0,0-11.77417-3.07715c-13.53162.59046-23.91479,14.51221-23.19116,31.094a36.73375,36.73375,0,0,0,.83594,6.36658q-.86628.64233-1.69532,1.35c-6.84558-7.84839-16.11816-12.50073-26.13354-12.0636a30.97533,30.97533,0,0,0-18.62891,7.45844c-5.70947-12.76856-16.96741-21.25275-29.5426-20.70386-17.35022.75733-30.70361,18.42615-30.07666,39.61389a33.00406,33.00406,0,0,0-13.12585-2.12225,34.20444,34.20444,0,0,0-20.46509,8.1427c-8.447-17.45038-24.22119-28.907-41.7793-28.14075-18.65405.81433-34.10156,15.19666-40.36768,35.12781a28.30157,28.30157,0,0,0-13.37915,9.32983c-7.12365-6.527-16.01879-10.24053-25.51587-9.82586-13.52209.59027-25.09777,9.41009-31.69848,22.38959-8.90991-15.82288-24.0138-25.95978-40.70276-25.23133-15.04163.65668-28.03027,9.99378-35.93811,23.93933-6.79028-6.74682-15.49829-10.64343-24.83545-10.236-13.77661.60132-25.37524,10.41632-31.068,24.43634-6.55017-10.67981-17.1073-17.422-28.72205-16.91516-18.64111.81372-32.94372,19.99072-31.947,42.83386l.34644,7.93347a103.30358,103.30358,0,0,1,13.50439.67652,3.77087,3.77087,0,0,1,.42358-.11487,86.45752,86.45752,0,0,1,14.97632-2.06091,4.62651,4.62651,0,0,1,2.905.863A116.988,116.988,0,0,1,1155.353,1080a5.24529,5.24529,0,0,1,.60888.14624,535.55178,535.55178,0,0,1,62.20533-2.98193c48.7987-8.69043,99.25171-11.35059,148.39721-4.04456,3.25049.48328,4.053,3.37634,3.27515,5.91223a145.03177,145.03177,0,0,1,15.75439-1.15991,133.13416,133.13416,0,0,1,50.56922-1.12231c4.65539-.11988,9.50525-.12891,14.35705.14965a124.07023,124.07023,0,0,1,16.667-.12524c2.189-.23535,4.34924-.4281,6.44751-.603.32861-.02734.662-.05237.99267-.07873,5.93823-3.244,12.96118-4.68177,19.55652-5.47364a93.53846,93.53846,0,0,1,20.245-.24975q2.94964-.37629,5.91186-.6731c13.38538-1.326,28.70984-1.74157,41.33252,3.97144a229.063,229.063,0,0,1,30.615-2.48755c1.92834-.33655,3.83948-.63367,5.70752-.89343,8.60266-1.19654,17.79712-1.79407,26.49976-.25269,24.09606-1.52685,48.39794-.77563,72.50439.084a4.91021,4.91021,0,0,1,3.27271,1.48071c.3208-.02185.64184-.0481.96264-.069a4.18244,4.18244,0,0,1,3.55444,1.49036q10.231.50316,20.44556,1.33313a5.49774,5.49774,0,0,1,4.05908,2.4674,246.02906,246.02906,0,0,1,26.95545.167c12.46484-3.598,25.65368-5.08227,38.43262-5.89526,7.43762-.47327,14.88049-.65417,22.32458-.65344a200.2232,200.2232,0,0,1,56.38086-.14234,3.83066,3.83066,0,0,1,3.54333,4.19812c1.104.035,2.20838.06519,3.31116.1139,13.30054-1.17029,26.677-1.51917,40.05176-1.6222Z" transform="translate(0 0.0542)"/></g><g id="objetos"><g class="cls-5"><rect class="cls-6" x="1540.45132" y="548.45309" width="153.29034" height="221.79339"/><rect class="cls-6" x="1540.45132" y="668.65196" width="153.29034" height="101.59452"/><rect class="cls-7" x="1547.23453" y="675.6914" width="43.33824" height="29.57418"/><rect class="cls-8" x="1642.75513" y="675.6914" width="43.33824" height="29.57418"/><rect class="cls-9" x="1594.99483" y="675.6914" width="43.33851" height="29.57418"/><path class="cls-10" d="M1594.99483,711.8874h43.33851v-1.89864h-43.33851Zm47.7603,0h43.33824v-1.89864h-43.33824Zm-95.5206,0h43.33824v-1.89864h-43.33824Zm47.7603,3.79755h43.33851v-1.89864h-43.33851Zm47.7603,0h43.33824v-1.89864h-43.33824Zm-95.5206,0h43.33824v-1.89864h-43.33824Zm0,3.79782h43.33824v-1.89891h-43.33824Zm47.7603,0h43.33851v-1.89891h-43.33851Zm47.7603,0h43.33824v-1.89891h-43.33824Zm-47.7603,3.79755h43.33851v-1.89864h-43.33851Zm47.7603,0h43.33824v-1.89864h-43.33824Zm-95.5206,0h43.33824v-1.89864h-43.33824Zm47.7603,3.79782h43.33851v-1.89891h-43.33851Zm-47.7603,0h43.33824v-1.89891h-43.33824Zm95.5206,0h43.33824v-1.89891h-43.33824Zm0,3.79755h43.33824v-1.89864h-43.33824Zm-47.7603,0h43.33851v-1.89864h-43.33851Zm-47.7603,0h43.33824v-1.89864h-43.33824Zm95.5206,3.79755h43.33824v-1.89891h-43.33824Zm-47.7603,0h43.33851v-1.89891h-43.33851Zm-47.7603,0h43.33824v-1.89891h-43.33824Zm0,3.79782h43.33824v-1.89891h-43.33824Zm95.5206,0h43.33824v-1.89891h-43.33824Zm-47.7603,0h43.33851v-1.89891h-43.33851Zm47.7603,3.79755h43.33824V740.3697h-43.33824Zm-95.5206,0h43.33824V740.3697h-43.33824Zm47.7603,0h43.33851V740.3697h-43.33851Zm-47.7603,3.79782h43.33824v-1.89891h-43.33824Zm47.7603,0h43.33851v-1.89891h-43.33851Zm47.7603,0h43.33824v-1.89891h-43.33824Zm-95.5206,3.79755h43.33824v-1.89891h-43.33824Zm95.5206,0h43.33824v-1.89891h-43.33824Zm-47.7603,0h43.33851v-1.89891h-43.33851Z" transform="translate(0 0.0542)"/><rect class="cls-11" x="1547.23453" y="756.94628" width="138.85884" height="5.1327"/><rect class="cls-12" x="1540.45132" y="548.45309" width="153.38754" height="5.32089"/><path class="cls-13" d="M1691.2285,550.986a1.24646,1.24646,0,1,1-1.24632-1.24632A1.24627,1.24627,0,0,1,1691.2285,550.986Z" transform="translate(0 0.0542)"/><path class="cls-13" d="M1687.07347,550.986a1.24632,1.24632,0,1,1-1.246-1.24632A1.246,1.246,0,0,1,1687.07347,550.986Z" transform="translate(0 0.0542)"/><rect class="cls-11" x="1540.35979" y="558.75143" width="153.45909" height="12.44997"/><rect class="cls-14" x="1638.17458" y="562.24388" width="47.03616" height="5.45508"/><rect class="cls-8" x="1550.8015" y="563.13812" width="13.75947" height="3.67632"/><rect class="cls-8" x="1565.68714" y="563.13812" width="13.75866" height="3.67632"/><rect class="cls-8" x="1580.57116" y="563.13812" width="13.75974" height="3.67632"/><rect class="cls-8" x="1595.45626" y="563.13812" width="13.75947" height="3.67632"/><path class="cls-3" d="M1688.28739,563.46165a1.11367,1.11367,0,1,0,1.09323,1.11348,1.10308,1.10308,0,0,0-1.09323-1.11348Zm-1.03329.08451h0a1.46666,1.46666,0,0,1,2.06793,0,1.45069,1.45069,0,0,1,0,2.05794,1.46616,1.46616,0,0,1-2.06793,0A1.45021,1.45021,0,0,1,1687.2541,563.54616Z" transform="translate(0 0.0542)"/><path class="cls-3" d="M1689.57205,566.17353l-.32373-.32508a1.40325,1.40325,0,0,0,.17469-.14607,1.31283,1.31283,0,0,0,.17226-.212l.32886.32994Z" transform="translate(0 0.0542)"/><path class="cls-3" d="M1691.29789,567.12744a.29416.29416,0,0,1,0,.41823.29937.29937,0,0,1-.42093,0l-1.2771-1.28142.41931-.41985Z" transform="translate(0 0.0542)"/><path class="cls-3" d="M1688.20315,565.488a.82733.82733,0,0,0,.31644-.06345h-.00081a.10017.10017,0,0,0,.05481-.13014.0972.0972,0,0,0-.12771-.05481.65052.65052,0,0,1-.24273.0486.4865.4865,0,0,1-.46926-.29106.098.098,0,0,0-.12825-.05535.1.1,0,0,0-.05346.13014.68257.68257,0,0,0,.64881.41607Z" transform="translate(0 0.0542)"/><rect class="cls-7" x="1566.49525" y="583.30037" width="31.55193" height="25.56468"/><rect class="cls-15" x="1601.58904" y="583.09247" width="31.55274" height="25.56549"/><rect class="cls-9" x="1636.68283" y="582.96503" width="31.5522" height="25.56495"/><rect class="cls-11" x="1540.45132" y="623.26415" width="153.36756" height="45.27198"/><rect class="cls-8" x="1554.3223" y="630.74234" width="39.69459" height="30.30291"/><rect class="cls-14" x="1604.25205" y="641.38466" width="63.50724" height="0.9963"/><rect class="cls-14" x="1604.25205" y="643.84733" width="63.50724" height="0.99657"/><rect class="cls-14" x="1604.25205" y="646.30406" width="63.50724" height="0.99657"/><rect class="cls-14" x="1604.25205" y="648.767" width="41.84055" height="0.99549"/><polygon class="cls-16" points="1541.66 645.9 1543.55 644.872 1545.439 643.844 1545.439 645.9 1545.439 647.956 1543.55 646.928 1541.66 645.9"/><polygon class="cls-16" points="1692.053 645.9 1690.163 644.872 1688.274 643.844 1688.274 645.9 1688.274 647.956 1690.163 646.928 1692.053 645.9"/></g><g class="cls-17"><rect class="cls-18" x="1155.39832" y="647.47721" width="213.39267" height="152.84538"/><rect class="cls-12" x="1155.39832" y="647.47721" width="213.39267" height="9.22185"/><circle class="cls-19" cx="1352.47914" cy="652.08827" r="2.38275"/><path class="cls-19" d="M1361.91132,652.03407a2.38289,2.38289,0,1,1-2.38275-2.38275A2.38289,2.38289,0,0,1,1361.91132,652.03407Z" transform="translate(0 0.0542)"/><path class="cls-20" d="M1263.32326,666.68076h-89.04195c-.46494,0-.84132-.66825-.84132-1.49445,0-.82566.37638-1.49418.84132-1.49418h89.04195c.46521,0,.84132.66852.84132,1.49418C1264.16458,666.01251,1263.78847,666.68076,1263.32326,666.68076Z" transform="translate(0 0.0542)"/><path class="cls-20" d="M1289.99385,675.21762H1174.71547a1.51309,1.51309,0,0,1,0-2.98863h115.27838a1.51307,1.51307,0,0,1,0,2.98863Z" transform="translate(0 0.0542)"/><path class="cls-20" d="M1247.059,683.75394h-67.89852c-.46488,0-.84132-.66825-.84132-1.49418,0-.82566.37644-1.49418.84132-1.49418H1247.059c.46521,0,.84132.66852.84132,1.49418C1247.90032,683.08569,1247.52421,683.75394,1247.059,683.75394Z" transform="translate(0 0.0542)"/><path class="cls-20" d="M1272.83239,692.2908H1179.5968a1.51269,1.51269,0,0,1,0-2.98863h93.23559a1.51269,1.51269,0,0,1,0,2.98863Z" transform="translate(0 0.0542)"/><path class="cls-20" d="M1240.55308,700.83036h-61.3926c-.46488,0-.84132-.66825-.84132-1.49445,0-.82593.37644-1.49418.84132-1.49418h61.3926c.46521,0,.84132.66825.84132,1.49418C1241.3944,700.16211,1241.01829,700.83036,1240.55308,700.83036Z" transform="translate(0 0.0542)"/><path class="cls-20" d="M1340.17956,709.36668H1183.20373a1.5,1.5,0,1,1,0-2.98836h156.97583a1.5,1.5,0,1,1,0,2.98836Z" transform="translate(0 0.0542)"/><path class="cls-20" d="M1250.31169,717.90354H1193.798c-.46494,0-.84132-.66852-.84132-1.49418,0-.8262.37638-1.49445.84132-1.49445h56.5137c.46494,0,.84111.66825.84111,1.49445C1251.1528,717.235,1250.77663,717.90354,1250.31169,717.90354Z" transform="translate(0 0.0542)"/><path class="cls-20" d="M1235.67391,726.44013h-35.37c-.46494,0-.84132-.66825-.84132-1.49445,0-.82566.37638-1.49418.84132-1.49418h35.37c.46521,0,.84132.66852.84132,1.49418C1236.51523,725.77188,1236.13912,726.44013,1235.67391,726.44013Z" transform="translate(0 0.0542)"/><path class="cls-20" d="M1222.66315,734.977h-48.38184c-.46494,0-.84132-.66879-.84132-1.49445,0-.82593.37638-1.49418.84132-1.49418h48.38184c.46494,0,.84132.66825.84132,1.49418C1223.50447,734.3082,1223.12809,734.977,1222.66315,734.977Z" transform="translate(0 0.0542)"/><path class="cls-20" d="M1283.40937,743.51331H1182.87973a1.50756,1.50756,0,0,1,0-2.98863h100.52964a1.50752,1.50752,0,0,1,0,2.98863Z" transform="translate(0 0.0542)"/><path class="cls-20" d="M1230.7948,752.05017h-48.3819c-.46494,0-.84132-.66852-.84132-1.49418,0-.8262.37638-1.49445.84132-1.49445h48.3819c.46515,0,.84126.66825.84126,1.49445C1231.63606,751.38165,1231.25995,752.05017,1230.7948,752.05017Z" transform="translate(0 0.0542)"/><path class="cls-20" d="M1247.059,760.58676h-61.39287c-.46467,0-.841-.66825-.841-1.49445,0-.82593.37638-1.49418.841-1.49418H1247.059c.46521,0,.84132.66825.84132,1.49418C1247.90032,759.91851,1247.52421,760.58676,1247.059,760.58676Z" transform="translate(0 0.0542)"/><path class="cls-20" d="M1255.19086,769.12605H1190.5453c-.46467,0-.841-.66825-.841-1.49418,0-.82566.37638-1.49418.841-1.49418h64.64556c.46494,0,.841.66852.841,1.49418C1256.03191,768.4578,1255.6558,769.12605,1255.19086,769.12605Z" transform="translate(0 0.0542)"/><path class="cls-20" d="M1238.71708,777.66291h-43.29261c-.46467,0-.841-.66852-.841-1.49418,0-.8262.37638-1.49445.841-1.49445h43.29261c.46494,0,.84132.66825.84132,1.49445C1239.5584,776.99439,1239.182,777.66291,1238.71708,777.66291Z" transform="translate(0 0.0542)"/><path class="cls-20" d="M1247.059,786.1995h-61.39287c-.46467,0-.841-.66825-.841-1.49445,0-.82566.37638-1.49418.841-1.49418H1247.059c.46521,0,.84132.66852.84132,1.49418C1247.90032,785.53125,1247.52421,786.1995,1247.059,786.1995Z" transform="translate(0 0.0542)"/><path class="cls-20" d="M1233.32761,794.73636H1182.4129c-.46494,0-.84132-.66879-.84132-1.49445,0-.82593.37638-1.49418.84132-1.49418h50.91471c.46494,0,.84132.66825.84132,1.49418C1234.16893,794.06757,1233.79255,794.73636,1233.32761,794.73636Z" transform="translate(0 0.0542)"/><path class="cls-20" d="M1160.98651,665.18631a1.49432,1.49432,0,1,1-1.49445-1.49418A1.49441,1.49441,0,0,1,1160.98651,665.18631Z" transform="translate(0 0.0542)"/><path class="cls-20" d="M1160.98651,673.72317a1.49432,1.49432,0,1,1-1.49445-1.49418A1.49441,1.49441,0,0,1,1160.98651,673.72317Z" transform="translate(0 0.0542)"/><path class="cls-20" d="M1160.98651,682.26a1.49432,1.49432,0,1,1-1.49445-1.49418A1.49418,1.49418,0,0,1,1160.98651,682.26Z" transform="translate(0 0.0542)"/><path class="cls-20" d="M1160.98651,690.79689a1.49432,1.49432,0,1,1-1.49445-1.49445A1.49436,1.49436,0,0,1,1160.98651,690.79689Z" transform="translate(0 0.0542)"/><path class="cls-20" d="M1160.98651,699.33375a1.49432,1.49432,0,1,1-1.49445-1.49445A1.49436,1.49436,0,0,1,1160.98651,699.33375Z" transform="translate(0 0.0542)"/><path class="cls-20" d="M1160.98651,707.87034a1.49432,1.49432,0,1,1-1.49445-1.49418A1.49441,1.49441,0,0,1,1160.98651,707.87034Z" transform="translate(0 0.0542)"/><path class="cls-20" d="M1160.98651,716.4072a1.49432,1.49432,0,1,1-1.49445-1.49418A1.49418,1.49418,0,0,1,1160.98651,716.4072Z" transform="translate(0 0.0542)"/><path class="cls-20" d="M1160.98651,724.94406a1.49432,1.49432,0,1,1-1.49445-1.49445A1.49436,1.49436,0,0,1,1160.98651,724.94406Z" transform="translate(0 0.0542)"/><path class="cls-20" d="M1160.98651,733.48092a1.49432,1.49432,0,1,1-1.49445-1.49445A1.49436,1.49436,0,0,1,1160.98651,733.48092Z" transform="translate(0 0.0542)"/><path class="cls-20" d="M1160.98651,742.01751a1.49432,1.49432,0,1,1-1.49445-1.49418A1.49441,1.49441,0,0,1,1160.98651,742.01751Z" transform="translate(0 0.0542)"/><path class="cls-20" d="M1160.98651,750.55437a1.49432,1.49432,0,1,1-1.49445-1.49418A1.49418,1.49418,0,0,1,1160.98651,750.55437Z" transform="translate(0 0.0542)"/><path class="cls-20" d="M1160.98651,759.09123a1.49432,1.49432,0,1,1-1.49445-1.49445A1.49436,1.49436,0,0,1,1160.98651,759.09123Z" transform="translate(0 0.0542)"/><path class="cls-20" d="M1160.98651,767.62809a1.49432,1.49432,0,1,1-1.49445-1.49445A1.49436,1.49436,0,0,1,1160.98651,767.62809Z" transform="translate(0 0.0542)"/><path class="cls-20" d="M1160.98651,776.16468a1.49432,1.49432,0,1,1-1.49445-1.49418A1.49441,1.49441,0,0,1,1160.98651,776.16468Z" transform="translate(0 0.0542)"/><path class="cls-20" d="M1160.98651,784.70154a1.49432,1.49432,0,1,1-1.49445-1.49418A1.49418,1.49418,0,0,1,1160.98651,784.70154Z" transform="translate(0 0.0542)"/><path class="cls-20" d="M1160.98651,793.2384a1.49432,1.49432,0,1,1-1.49445-1.49418A1.49436,1.49436,0,0,1,1160.98651,793.2384Z" transform="translate(0 0.0542)"/></g><path class="cls-20" d="M1620.4912,851.85162c0-.89019-.06345-1.76418-.13284-2.63628l7.66233-2.48967-4.71555-14.51385-7.66827,2.49183a32.98778,32.98778,0,0,0-3.0915-4.2714l4.73337-6.5151-12.34629-8.96994-4.71879,6.49458a32.72482,32.72482,0,0,0-5.03172-1.60542V811.779h-15.26067v8.05734a32.74366,32.74366,0,0,0-5.03172,1.60542l-4.71906-6.49485-12.34629,8.96994,4.73364,6.51537a32.97133,32.97133,0,0,0-3.091,4.27086l-7.66854-2.49156-4.71636,14.51358,7.6626,2.48967c-.06939.87264-.13284,1.74663-.13284,2.63682s.06345,1.76418.13284,2.63628l-7.6626,2.48967,4.71582,14.51385,7.66881-2.49183a33.00242,33.00242,0,0,0,3.091,4.2714l-4.73337,6.51483,12.34629,8.97021,4.71879-6.49512a32.72648,32.72648,0,0,0,5.03172,1.606v8.05734h15.26067v-8.05734a32.67942,32.67942,0,0,0,5.032-1.60569l4.71879,6.49485,12.34629-8.97021-4.73337-6.51456a32.98391,32.98391,0,0,0,3.091-4.2714l7.66827,2.49183,4.71609-14.51385-7.66233-2.48967C1620.42775,853.6158,1620.4912,852.74181,1620.4912,851.85162Zm-32.93946,14.08617a14.08631,14.08631,0,1,1,14.08644-14.08617A14.08637,14.08637,0,0,1,1587.55174,865.93779Z" transform="translate(0 0.0542)"/><path class="cls-20" d="M1301.7213,602.50419c0-.5562-.03969-1.10241-.08316-1.64754l4.78791-1.55547-2.94651-9.0693-4.79169,1.55709a20.63626,20.63626,0,0,0-1.93185-2.66922l2.95785-4.07106-7.715-5.6052-2.94866,4.05837a20.4824,20.4824,0,0,0-3.14388-1.003v-5.035h-9.53613v5.035a20.50456,20.50456,0,0,0-3.14415,1.003l-2.94894-4.05837-7.71471,5.6052,2.95785,4.07106a20.62074,20.62074,0,0,0-1.93125,2.66868l-4.792-1.55682-2.947,9.0693,4.78818,1.55574c-.04341.54513-.08316,1.09134-.08316,1.64754s.03975,1.10241.08316,1.64727l-4.78818,1.55574,2.94678,9.0693,4.792-1.55709a20.63432,20.63432,0,0,0,1.93158,2.66922l-2.95785,4.07079,7.71471,5.6052,2.94894-4.05864a20.42507,20.42507,0,0,0,3.14388,1.00359v5.03469h9.53613v-5.03469a20.42748,20.42748,0,0,0,3.14415-1.00332l2.94866,4.05837,7.715-5.6052-2.95785-4.07079a20.613,20.613,0,0,0,1.93158-2.66895l4.79169,1.55682,2.94678-9.069-4.78791-1.55574C1301.68161,603.6066,1301.7213,603.06039,1301.7213,602.50419Zm-20.58317,8.802a8.80214,8.80214,0,1,1,8.80253-8.802A8.80222,8.80222,0,0,1,1281.13813,611.30619Z" transform="translate(0 0.0542)"/><path class="cls-14" d="M1287.10033,727.56353h98.75061a6.57153,6.57153,0,0,1,6.57153,6.57153v88.628a6.57153,6.57153,0,0,1-6.57153,6.57153h-98.75068a6.57146,6.57146,0,0,1-6.57146-6.57146V734.13506A6.57153,6.57153,0,0,1,1287.10033,727.56353Z"/><path class="cls-21" d="M1385.85094,727.50933h-98.75067a6.59061,6.59061,0,0,0-6.57147,6.57153V743.57h111.89367v-9.48915a6.517,6.517,0,0,0-.35046-2.11275A6.59723,6.59723,0,0,0,1385.85094,727.50933Z" transform="translate(0 0.0542)"/><path class="cls-3" d="M1363.878,737.9532a2.53382,2.53382,0,1,0-2.534-2.53368A2.53883,2.53883,0,0,0,1363.878,737.9532Z" transform="translate(0 0.0542)"/><path class="cls-3" d="M1372.24645,737.9532a2.53382,2.53382,0,1,0-2.534-2.53368A2.53876,2.53876,0,0,0,1372.24645,737.9532Z" transform="translate(0 0.0542)"/><path class="cls-3" d="M1380.61456,737.9532a2.53382,2.53382,0,1,0-2.534-2.53368A2.53882,2.53882,0,0,0,1380.61456,737.9532Z" transform="translate(0 0.0542)"/><rect class="cls-22" x="1292.7006" y="789.52718" width="87.06994" height="2.02878"/><rect class="cls-22" x="1292.7006" y="798.14909" width="87.06994" height="2.02851"/><rect class="cls-22" x="1292.70087" y="806.77073" width="42.64083" height="2.02878"/><rect class="cls-22" x="1292.7006" y="748.61651" width="87.06994" height="38.54439"/><circle class="cls-23" cx="1337.16937" cy="766.82106" r="14.28512" transform="translate(-191.13513 566.0723) rotate(-22.34762)"/><polygon class="cls-3" points="1345.569 766.875 1332.603 774.5 1332.603 766.875 1332.603 759.25 1345.569 766.875"/><rect class="cls-14" x="1663.32778" y="607.08008" width="115.36857" height="104.93172" rx="6.77565"/><path class="cls-24" d="M1670.10343,607.02588a6.79566,6.79566,0,0,0-6.77565,6.77565v6.62283h115.36857v-6.62283a6.71347,6.71347,0,0,0-.56241-2.69514,6.79919,6.79919,0,0,0-6.21324-4.08051Z" transform="translate(0 0.0542)"/><path class="cls-3" d="M1754.79865,615.70152a2.114,2.114,0,1,0-2.1141-2.1141A2.118,2.118,0,0,0,1754.79865,615.70152Z" transform="translate(0 0.0542)"/><path class="cls-3" d="M1761.78,615.70152a2.114,2.114,0,1,0-2.1141-2.1141A2.118,2.118,0,0,0,1761.78,615.70152Z" transform="translate(0 0.0542)"/><path class="cls-3" d="M1768.76116,615.70152a2.114,2.114,0,1,0-2.11383-2.1141A2.11822,2.11822,0,0,0,1768.76116,615.70152Z" transform="translate(0 0.0542)"/><path class="cls-25" d="M1688.19883,657.09981a11.91767,11.91767,0,1,0-11.9178-11.9178A11.94058,11.94058,0,0,0,1688.19883,657.09981Z" transform="translate(0 0.0542)"/><path class="cls-25" d="M1688.76286,693.76959a11.9178,11.9178,0,1,0-11.91753-11.9178A11.94081,11.94081,0,0,0,1688.76286,693.76959Z" transform="translate(0 0.0542)"/><rect class="cls-22" x="1706.2459" y="637.87412" width="61.52652" height="1.69236"/><rect class="cls-22" x="1706.2459" y="645.06692" width="61.52652" height="1.69263"/><rect class="cls-22" x="1706.2459" y="652.25999" width="46.82988" height="1.69236"/><rect class="cls-22" x="1706.2459" y="673.9796" width="61.52652" height="1.69263"/><rect class="cls-22" x="1706.2459" y="681.17267" width="61.52652" height="1.69236"/><rect class="cls-22" x="1706.2459" y="688.36547" width="46.82988" height="1.69263"/><g class="cls-5"><path class="cls-26" d="M1198.82512,549.43731h13.95528V516.442c-5.30178,2.21751-10.374,4.33323-13.95528,5.86251Z" transform="translate(0 0.0542)"/><path class="cls-27" d="M1220.10841,549.43731h13.96791v-41.84c-3.33882,1.37646-8.475,3.5046-13.96791,5.79879Z" transform="translate(0 0.0542)"/><path class="cls-26" d="M1241.09875,549.43731h13.96791v-39.839c-5.58225-1.1853-10.80729-2.30688-13.96791-2.98242Z" transform="translate(0 0.0542)"/><path class="cls-27" d="M1261.41328,549.43731h13.96791V513.93123c-3.38979-.7263-8.55144-1.8225-13.96791-2.98215Z" transform="translate(0 0.0542)"/><path class="cls-26" d="M1282.31425,549.43731h13.9679V504.87q-6.97734,4.09091-13.9679,8.18181Z" transform="translate(0 0.0542)"/><path class="cls-27" d="M1305.369,549.43731h13.96791V491.37354q-6.97734,4.09091-13.96791,8.18208Z" transform="translate(0 0.0542)"/><path class="cls-28" d="M1332.06876,476.27136l-17.9442,2.59983,3.02049,4.72824L1279.1026,505.8639l-41.24115-8.79363-.43335.17847c-7.20063,2.98215-43.17813,17.88048-44.56728,18.69615a1.50761,1.50761,0,0,0-.5481,2.039,1.536,1.536,0,0,0,1.33818.7776,1.46154,1.46154,0,0,0,.72651-.17847c1.32549-.70092,26.73789-11.279,43.77726-18.33948l41.47065,8.84466,39.16376-22.92705,2.94381,4.384Z" transform="translate(0 0.0542)"/></g><path class="cls-29" d="M1750.36012,817.4655c.3105-12.05658-13.91958-22.25043-31.82355-22.71618-17.85213-.41391-32.59953,9.00369-32.91,21.06054-.15525,7.14069,4.7088,13.60908,12.47049,17.80029a46.41386,46.41386,0,0,1-10.3491,4.13964s7.86537,1.863,13.29858-.41391a19.2457,19.2457,0,0,0,2.48373-1.29357,44.00351,44.00351,0,0,0,13.868,2.48373c17.904.46575,32.65137-8.95185,32.96187-21.06054Z" transform="translate(0 0.0542)"/><path class="cls-30" d="M1708.86,817.10343a4.42611,4.42611,0,1,1-4.29489-4.55355,4.40744,4.40744,0,0,1,4.29489,4.55355Z" transform="translate(0 0.0542)"/><path class="cls-30" d="M1723.65928,817.4655a4.42551,4.42551,0,1,1-4.29489-4.55355,4.41831,4.41831,0,0,1,4.29489,4.55355Z" transform="translate(0 0.0542)"/><path class="cls-30" d="M1738.35511,817.87968a4.4521,4.4521,0,1,1-4.34673-4.55355,4.44185,4.44185,0,0,1,4.34673,4.55355Z" transform="translate(0 0.0542)"/><path class="cls-31" d="M1566.384,497.03139h-7.7436c-2.11167,0-2.39328.9153-1.26711,1.61919a6.62642,6.62642,0,0,0,3.16791.84483h3.942a6.62642,6.62642,0,0,0,3.16791-.84483c1.12644-.70389.84483-1.61919-1.26711-1.61919Z" transform="translate(0 0.0542)"/><path class="cls-32" d="M1562.72335,447.47343A16.69127,16.69127,0,0,0,1551.4603,476.476c.07047.21141.07047.35208.14067.56322l4.50522,17.17659a1.63174,1.63174,0,0,0,1.61919,1.12617h10.06641a1.7677,1.7677,0,0,0,1.61919-1.12617l4.50522-17.17659a1.548,1.548,0,0,0,.07047-.56322,16.42593,16.42593,0,0,0,5.49072-12.319,16.73388,16.73388,0,0,0-16.754-16.68357Z" transform="translate(0 0.0542)"/><path class="cls-33" d="M1560.47074,473.66046a11.637,11.637,0,1,1,7.95474-3.09744c.14067-.9855.35208-1.9008.49275-2.8863a1.09691,1.09691,0,0,0,.49275-.56322c.35208-.84456-.28161-1.971-1.47825-2.81556-.14094.0702-.21114.21114-.28161.28134,1.12644.77436,1.68939,1.75986,1.40778,2.39355a1.03719,1.03719,0,0,1-.49275.49275c-.21114,1.12644-.42228,2.32308-.63342,3.44925a11.71727,11.71727,0,0,1-7.462,2.74563Zm-2.9565-20.69631h0a6.30055,6.30055,0,1,0,6.26508,6.33555,6.29436,6.29436,0,0,0-6.26508-6.33555Z" transform="translate(0 0.0542)"/><path class="cls-34" d="M1557.51424,465.56505a6.30055,6.30055,0,1,1,6.26508-6.26535,6.27909,6.27909,0,0,1-6.26508,6.26535Zm-1.68939-10.6299h0a2.92161,2.92161,0,1,0,2.9565,2.95677,2.9296,2.9296,0,0,0-2.9565-2.95677Z" transform="translate(0 0.0542)"/><path class="cls-14" d="M1555.82485,460.778a2.92161,2.92161,0,1,1,2.9565-2.886,2.91472,2.91472,0,0,1-2.9565,2.886Z" transform="translate(0 0.0542)"/><path class="cls-35" d="M1555.75438,466.97283c-.21114-.63369.28161-1.61919,1.40778-2.39355-.0702-.0702-.14067-.21114-.21114-.28134-1.26711.84456-1.83033,1.971-1.54872,2.81556a1.61807,1.61807,0,0,0,.49275.56322q1.584,8.5532,3.16791,17.10612h.42228c-1.12617-5.7726-2.18214-11.54493-3.23811-17.31726a1.573,1.573,0,0,1-.49275-.49275Z" transform="translate(0 0.0542)"/><path class="cls-35" d="M1567.93273,464.29794c-.14094.0702-.21114.21114-.28161.28134,1.12644.77436,1.68939,1.75986,1.40778,2.39355a1.03719,1.03719,0,0,1-.49275.49275q-1.58355,8.6585-3.16764,17.31726h.35181q1.584-8.5532,3.16791-17.10612a1.09691,1.09691,0,0,0,.49275-.56322c.35208-.84456-.28161-1.971-1.47825-2.81556Z" transform="translate(0 0.0542)"/><path class="cls-36" d="M1554.065,486.47223a.93619.93619,0,0,0-.21141,1.83033c-.9855.35181-.84456,1.971.21141,1.971h0c-.84483.42228-.63369,1.971.35181,1.971h.07047c-.84483.42255-.63369,1.9008.35181,1.9008h.28161c-.915.42228-.63342,1.971.28161,1.971h.42255v.07047a1.0214,1.0214,0,0,0,.28134,1.83033h13.02318a1.03461,1.03461,0,0,0,.21114-1.83033l.07047-.07047h.35208c.915,0,1.19664-1.54872.28161-1.971h.28134a1.00487,1.00487,0,0,0,.35208-1.9008h.14067c.9153,0,1.19691-1.54872.28161-1.971h0a1.02631,1.02631,0,0,0,.28161-1.971c.77436-.21114.84483-1.75986.07047-1.83033Z" transform="translate(0 0.0542)"/><path class="cls-35" d="M1568.0032,464.86089a3.75641,3.75641,0,0,0-1.54872-1.12617,1.04564,1.04564,0,0,0-.63369-.14094.90373.90373,0,0,0-.70389.28161,2.89514,2.89514,0,0,0-.77436,1.19664c-.14067.42255-.42228.56322-.77436.42255-.28161-.07047-.56322-.42255-.915-.77436a2.70248,2.70248,0,0,0-.77436-.77436c-.35208-.28161-.63369-.28161-.9855.14067a6.21144,6.21144,0,0,1-.42255.70416,1.94912,1.94912,0,0,1-.35181.563c-.35208.28161-.77436.14094-1.68966-.9855a.56219.56219,0,0,0-.915-.0702c0,.0702-.07047.0702-.14094.14067-.0702.07047-.14067.14067-.21114.14067l-.21114-.35181a.246.246,0,0,1,.14094-.07047c.0702-.07047.14067-.14067.14067-.21114a1.00689,1.00689,0,0,1,1.54872.14067c.70389.84483.915,1.056,1.056.9153a4.22009,4.22009,0,0,0,.28161-.42255,2.86379,2.86379,0,0,1,.42228-.77436,1.0032,1.0032,0,0,1,1.61919-.21114,4.7829,4.7829,0,0,1,.84456.84483,2.77035,2.77035,0,0,0,.77436.63342q.1057.10571.21114-.21114a3.36786,3.36786,0,0,1,.84483-1.33731,1.65643,1.65643,0,0,1,.915-.35208,2.08142,2.08142,0,0,1,.9153.14067,5.17382,5.17382,0,0,1,1.68939,1.26711Z" transform="translate(0 0.0542)"/><path class="cls-37" d="M1554.69841,487.03545h15.839a.35195.35195,0,0,1,0,.70389h-15.839a.3578.3578,0,1,1,0-.70389Z" transform="translate(0 0.0542)"/><path class="cls-37" d="M1554.69841,488.79531h15.839a.39405.39405,0,0,1,.35181.42228.33254.33254,0,0,1-.35181.35208h-15.839a.39426.39426,0,0,1-.42228-.35208.45412.45412,0,0,1,.42228-.42228Z" transform="translate(0 0.0542)"/><path class="cls-37" d="M1554.69841,490.76631h15.839a.33254.33254,0,0,1,.35181.35208.39405.39405,0,0,1-.35181.42228h-15.839a.45412.45412,0,0,1-.42228-.42228.39426.39426,0,0,1,.42228-.35208Z" transform="translate(0 0.0542)"/><path class="cls-37" d="M1555.05049,492.80778h15.06438a.45437.45437,0,0,1,.42255.42228.39433.39433,0,0,1-.42255.35208h-15.06438a.33247.33247,0,0,1-.35208-.35208.39407.39407,0,0,1,.35208-.42228Z" transform="translate(0 0.0542)"/><path class="cls-37" d="M1555.82485,494.84925h13.51566a.33261.33261,0,0,1,.35208.35208.39426.39426,0,0,1-.35208.42228h-13.51566a.39407.39407,0,0,1-.35208-.42228.33247.33247,0,0,1,.35208-.35208Z" transform="translate(0 0.0542)"/><path class="cls-37" d="M1556.66941,496.53864H1568.496a.39426.39426,0,0,1,.42228.35208.45412.45412,0,0,1-.42228.42228h-11.82654a.39405.39405,0,0,1-.35181-.42228.33254.33254,0,0,1,.35181-.35208Z" transform="translate(0 0.0542)"/><path class="cls-38" d="M1216.43857,846.423a19.26341,19.26341,0,0,0,5.79609-.29727c2.97216-.743,8.02494-8.02494,10.10556-10.99737,2.22918-2.97216,1.18881-10.55133,1.78335-10.8486.44583-.44577,1.18881-1.33758,2.97216-.44577,1.78335.89154,3.864,3.7152,3.71547,8.02494-.14877,4.45851-1.93212,8.61948-1.78335,10.7001,0,2.22912,2.22912,2.37789,5.79582,3.4182,3.4182,1.04031,6.68763,1.78335,8.02494,3.7152,1.48635,2.08062-1.33731,5.35005-1.78335,5.64732-.297.29727.743.89154,0,3.4182a4.54074,4.54074,0,0,1-2.82339,3.12066,5.36517,5.36517,0,0,1-.59454,3.2697,5.71175,5.71175,0,0,1-2.97243,2.08035s.4461,2.22939-1.18881,3.12093c-1.78329.89181-10.25433.59454-13.375-.89154-2.97243-1.48635-5.94459-4.16124-8.471-4.75578-1.63485-.29727-4.45851-.1485-6.53913-.29727a.51819.51819,0,0,0,.14877-.297l1.18881-17.5365v-.1485Z" transform="translate(0 0.0542)"/><path class="cls-38" d="M1209.6025,844.63965l4.607.29727a1.447,1.447,0,0,1,1.18881,1.48608l-1.18881,17.53623a1.214,1.214,0,0,1-1.33758,1.18908l-4.607-.29727a1.20218,1.20218,0,0,1-1.18881-1.33758l1.18881-17.53623a1.33211,1.33211,0,0,1,1.33764-1.33758Z" transform="translate(0 0.0542)"/></g><g id="cohete"><polygon class="cls-39" points="1471.2 564.372 1412.919 616.866 1356.964 1013.658 1447.775 1010.43 1471.2 564.372"/><polygon class="cls-39" points="1433.253 564.372 1491.535 616.866 1547.489 1013.658 1456.678 1010.43 1433.253 564.372"/><g class="cls-40"><path class="cls-3" d="M1385.594,1077.87207a133.13416,133.13416,0,0,1,50.56922-1.12231c4.65539-.11988,9.50525-.12891,14.35705.14965a124.07023,124.07023,0,0,1,16.667-.12524c2.189-.23535,4.34924-.4281,6.44751-.603.32861-.02734.662-.05237.99267-.07873,5.93823-3.244,12.96118-4.68177,19.55652-5.47364a93.53846,93.53846,0,0,1,20.245-.24975q2.94964-.37629,5.91186-.6731c1.511-.14966,3.04932-.28515,4.603-.40417l-33.97974-429.9231-21.57373-38.46423-18.14978,1.269-18.14966-1.269-21.57361,38.46423-34.692,438.92969Q1381.20739,1077.951,1385.594,1077.87207Z" transform="translate(0 0.0542)"/></g><g class="cls-40"><path class="cls-3" d="M1436.16321,1076.74976c4.65539-.11988,9.50525-.12891,14.35705.14965a124.07023,124.07023,0,0,1,16.667-.12524c2.189-.23535,4.34924-.4281,6.44751-.603.32153-.02685.65576-.04541.97949-.07116a41.30717,41.30717,0,0,1,9.17309-3.56263l-15.30664-446.22943-9.363-38.46423-7.87708,1.26874-7.87732-1.26874-9.363,38.46423-15.389,448.6424A130.63128,130.63128,0,0,1,1436.16321,1076.74976Z" transform="translate(0 0.0542)"/></g><path class="cls-41" d="M1434.22684,600.52806c-.85725.97875-13.95333,8.20989-13.95333,8.20989s-2.07927,2.0709-5.01714,12.10653a150.38247,150.38247,0,0,0-3.91662,18.97047c0-.85644,5.75262-7.466,5.75262-7.466a143.24425,143.24425,0,0,0-2.693,23.6223,127.68785,127.68785,0,0,0,1.34595,20.19438c-.12258-1.34568,3.67227-10.89288,3.67227-10.89288a111.218,111.218,0,0,0,5.87466,25.70265c4.651,12.23964,8.07813,18.60408,7.83324,16.89039-.24435-1.71288,3.18249-13.463,3.18249-13.463s1.95885,16.889,8.81226,31.82139c2.53368,5.52069,4.56516,9.76806,6.12036,12.93111,1.55547-3.163,3.58668-7.41042,6.12063-12.93111,6.85341-14.93235,8.81226-31.82139,8.81226-31.82139s3.42657,11.75013,3.18222,13.463c-.24462,1.71369,3.18195-4.65075,7.83351-16.89039a111.218,111.218,0,0,0,5.87466-25.70265s3.79485,9.5472,3.67173,10.89288a127.55637,127.55637,0,0,0,1.34649-20.19438,143.22908,143.22908,0,0,0-2.69325-23.6223s5.75235,6.6096,5.75235,7.466a150.3473,150.3473,0,0,0-3.91635-18.97047c-2.9376-10.03563-5.01687-12.10653-5.01687-12.10653s-13.09635-7.23114-13.9536-8.20989l-17.01378-.4806Z" transform="translate(0 0.0542)"/><path class="cls-42" d="M1421.85328,618.56217l4.9356-5.538-4.19148,20.453a133.7793,133.7793,0,0,0-2.06253,13.54482l2.278-5.81445,2.19942,23.54211a98.54377,98.54377,0,0,0,5.53284,24.2298q.41958,1.10444.84942,2.20968l7.33752-25.00119,3.15792,27.57132A108.40971,108.40971,0,0,0,1450.227,723.88q.505,1.10038,1.01358,2.19915.50868-1.09877,1.01385-2.19915a108.389,108.389,0,0,0,8.33625-30.11877l3.15846-27.57321,7.33752,25.00119q.42971-1.104.84969-2.20968a98.54333,98.54333,0,0,0,5.53257-24.2298l2.19942-23.54211,2.27826,5.81445a133.77889,133.77889,0,0,0-2.0628-13.54482l-4.19175-20.453,4.93614,5.538a34.08493,34.08493,0,0,0-2.27016-5.53122q-3.02778-1.68075-6.03288-3.40281c-1.36782-.78327-3.96819-2.18646-5.9778-3.53268l-15.10677-.4266-15.1065.4266c-2.00988,1.34622-4.61025,2.74941-5.9778,3.53268q-3.0047,1.71963-6.03315,3.40281A34.08606,34.08606,0,0,0,1421.85328,618.56217Z" transform="translate(0 0.0542)"/><path class="cls-43" d="M1451.24062,706.559a95.52761,95.52761,0,0,0,2.64141-13.56615l6.95385-60.7095,9.77346,33.30018.00027-.00027,2.80557-30.03534-4.06647-19.84257c-.12636-.07263-.25272-.14418-.37908-.21681-1.56654-.89721-3.13875-1.75959-4.67451-2.69541l-13.0545-.36855-13.0545.36855c-1.53576.93582-3.108,1.7982-4.67451,2.69541-.12636.07263-.25272.14418-.37908.21681l-3.9285,19.16838c-.02025.378-.05319.98145-.074,1.35945l2.74158,29.35008,9.77373-33.301,6.95331,60.70869A95.5176,95.5176,0,0,0,1451.24062,706.559Z" transform="translate(0 0.0542)"/><polygon class="cls-44" points="1422.193 582.055 1481.096 582.055 1490.371 616.866 1412.919 616.866 1422.193 582.055"/><path class="cls-45" d="M1419.94654,590.43357h2.46024q-1.3685,5.57078-2.91843,11.87811-1.65969,6.75338-3.56481,14.50062h-3.00483q2.06793-7.7594,3.86424-14.50332Q1418.46411,595.99746,1419.94654,590.43357Z" transform="translate(0 0.0542)"/><path class="cls-45" d="M1426.03288,590.43357h2.46591q-1.08216,5.57078-2.31012,11.87811-1.31342,6.75338-2.82177,14.50062H1420.354q1.671-7.7594,3.12255-14.50062Q1424.83611,595.99733,1426.03288,590.43357Z" transform="translate(0 0.0542)"/><path class="cls-45" d="M1432.12543,590.43357h2.46591q-.79825,5.57078-1.70208,11.87811-.96835,6.75338-2.07954,14.50062h-3.01266q1.27413-7.7594,2.38-14.50062Q1431.21351,595.99611,1432.12543,590.43357Z" transform="translate(0 0.0542)"/><path class="cls-45" d="M1438.21744,590.43357h2.46645q-.51314,5.57078-1.094,11.87811-.62249,6.75338-1.3365,14.50062h-3.01293q.876-7.7594,1.63728-14.50062Q1437.5901,595.99611,1438.21744,590.43357Z" transform="translate(0 0.0542)"/><path class="cls-45" d="M1444.31,590.43357h2.46672q-.228,5.57078-.48654,11.87811-.27621,6.75338-.59319,14.50062h-3.0132q.4783-7.7594.89424-14.50062Q1443.96763,595.99611,1444.31,590.43357Z" transform="translate(0 0.0542)"/><path class="cls-45" d="M1450.40281,590.43357h2.46564q.05832,5.57078.12231,11.87811.06885,6.75338.149,14.50062h-3.01293q.08059-7.7594.15174-14.50062Q1450.34462,595.99611,1450.40281,590.43357Z" transform="translate(0 0.0542)"/><path class="cls-45" d="M1456.49482,590.43357h2.46564q.34384,5.57078.73035,11.87811c.277,4.50306.57375,9.32769.89181,14.50062h-3.01293c-.21087-5.17293-.40743-9.99756-.591-14.50062Q1456.72189,595.99733,1456.49482,590.43357Z" transform="translate(0 0.0542)"/><path class="cls-45" d="M1462.58683,590.43357h2.46645c.41823,3.71682.864,7.66854,1.33866,11.87811.50652,4.50306,1.05057,9.32526,1.63431,14.50062h-3.01293c-.47655-5.17536-.91962-9.99837-1.33407-14.50062Q1463.09929,595.99611,1462.58683,590.43357Z" transform="translate(0 0.0542)"/><path class="cls-45" d="M1468.67938,590.43357h2.46591c.60912,3.71682,1.25685,7.66773,1.94724,11.87811.73764,4.50225,1.5282,9.32526,2.37735,14.50062h-3.0132c-.74169-5.17536-1.43208-9.99837-2.0763-14.50062C1469.77747,598.1013,1469.21128,594.15039,1468.67938,590.43357Z" transform="translate(0 0.0542)"/><path class="cls-45" d="M1474.77193,590.43357h2.46591c.7992,3.71682,1.65,7.66773,2.555,11.87811.96795,4.50225,2.00583,9.32526,3.11985,14.50062h-3.01293c-1.00683-5.17536-1.94454-9.99756-2.81961-14.50062Q1475.85342,595.99733,1474.77193,590.43357Z" transform="translate(0 0.0542)"/><path class="cls-45" d="M1480.86394,590.43357h2.47914c.98928,3.71682,2.04282,7.66773,3.1644,11.87811,1.19907,4.50225,2.48427,9.32526,3.8637,14.50062h-3.02805c-1.27143-5.17536-2.45673-9.99837-3.56238-14.50062C1482.74746,598.1013,1481.776,594.15039,1480.86394,590.43357Z" transform="translate(0 0.0542)"/><path class="cls-46" d="M1401.0973,528.68862c-1.20366.96363-53.18251,35.89623-56.39362,40.95549-3.21111,5.05872-8.22818,59.26392-8.22818,59.26392l24.68468-30.8367,49.84207-10.2276Z" transform="translate(0 0.0542)"/><path class="cls-47" d="M1399.29964,560.1636c-16.67655,6.48945-40.41988,15.86169-40.41988,15.86169L1336.4755,628.908l24.68468-30.8367,49.84207-10.2276A251.53162,251.53162,0,0,1,1399.29964,560.1636Z" transform="translate(0 0.0542)"/><polygon class="cls-48" points="1358.88 576.079 1336.476 628.962 1361.16 598.126 1358.88 576.079"/><polygon class="cls-49" points="1391.165 539.15 1393.849 550.573 1351.375 574.417 1340.566 604.854 1346.467 570.235 1391.165 539.15"/><path class="cls-50" d="M1502.22769,528.68862c1.20393.96363,53.18244,35.89623,56.39382,40.95549,3.21111,5.05872,8.228,59.26392,8.228,59.26392l-24.68448-30.8367-49.842-10.2276Z" transform="translate(0 0.0542)"/><path class="cls-47" d="M1504.02562,560.1636c16.67655,6.48945,40.41981,15.86169,40.41981,15.86169l22.40406,52.88274-24.68448-30.8367-49.842-10.2276A251.53162,251.53162,0,0,0,1504.02562,560.1636Z" transform="translate(0 0.0542)"/><polygon class="cls-48" points="1544.445 576.079 1566.849 628.962 1542.165 598.126 1544.445 576.079"/><polygon class="cls-49" points="1512.16 539.15 1509.477 550.573 1551.95 574.417 1562.759 604.854 1556.858 570.235 1512.16 539.15"/><path class="cls-51" d="M1451.64508,232.25805c72.49824,91.14228,93.29769,249.59745,40.64256,355.58568h-81.28539C1358.34705,481.8555,1379.14657,323.40033,1451.64508,232.25805Z" transform="translate(0 0.0542)"/><path class="cls-52" d="M1451.64508,232.25805c-23.45058,29.48076-41.49144,66.00447-53.38737,105.51708h106.77447C1493.13625,298.26252,1475.09539,261.73881,1451.64508,232.25805Z" transform="translate(0 0.0542)"/><path class="cls-53" d="M1505.03218,337.77513H1398.25771q-1.26319,4.19418-2.433,8.43156h111.64041Q1506.2947,341.96958,1505.03218,337.77513Z" transform="translate(0 0.0542)"/><circle class="cls-54" cx="1451.64501" cy="424.02184" r="39.87069" transform="translate(-40.932 180.59789) rotate(-7.01812)"/><path class="cls-55" d="M1451.64508,458.23185a34.20981,34.20981,0,1,0-34.20954-34.21008A34.2757,34.2757,0,0,0,1451.64508,458.23185Z" transform="translate(0 0.0542)"/><path class="cls-56" d="M1482.74179,419.58324a37.43738,37.43738,0,0,1-37.43766,37.43766q-1.61028,0-3.18816-.13392a34.21753,34.21753,0,0,0,37.18278-53.00721A37.288,37.288,0,0,1,1482.74179,419.58324Z" transform="translate(0 0.0542)"/><polygon class="cls-57" points="1451.645 386.129 1452.151 386.372 1452.657 386.616 1452.782 387.164 1452.907 387.712 1452.557 388.151 1452.207 388.59 1451.645 388.59 1451.083 388.59 1450.733 388.151 1450.383 387.712 1450.508 387.164 1450.633 386.616 1451.139 386.372 1451.645 386.129"/><polygon class="cls-57" points="1424.812 397.243 1425.342 397.058 1425.872 396.872 1426.349 397.171 1426.824 397.47 1426.887 398.029 1426.95 398.587 1426.553 398.984 1426.155 399.381 1425.597 399.318 1425.039 399.255 1424.74 398.78 1424.441 398.304 1424.626 397.773 1424.812 397.243"/><polygon class="cls-57" points="1413.698 424.076 1413.941 423.57 1414.185 423.064 1414.733 422.938 1415.281 422.814 1415.719 423.164 1416.159 423.515 1416.159 424.076 1416.159 424.638 1415.719 424.988 1415.281 425.339 1414.733 425.214 1414.185 425.089 1413.941 424.583 1413.698 424.076"/><polygon class="cls-57" points="1424.812 450.909 1424.626 450.379 1424.441 449.849 1424.74 449.373 1425.039 448.897 1425.597 448.834 1426.155 448.771 1426.553 449.169 1426.95 449.566 1426.887 450.124 1426.824 450.682 1426.349 450.981 1425.872 451.28 1425.342 451.095 1424.812 450.909"/><polygon class="cls-57" points="1451.645 462.024 1451.139 461.78 1450.633 461.536 1450.508 460.988 1450.383 460.441 1450.733 460.001 1451.083 459.562 1451.645 459.562 1452.207 459.562 1452.557 460.001 1452.907 460.441 1452.782 460.988 1452.657 461.536 1452.151 461.78 1451.645 462.024"/><polygon class="cls-57" points="1478.478 450.909 1477.948 451.095 1477.417 451.28 1476.941 450.981 1476.466 450.682 1476.403 450.124 1476.34 449.566 1476.737 449.169 1477.135 448.771 1477.693 448.834 1478.251 448.897 1478.55 449.373 1478.849 449.849 1478.663 450.379 1478.478 450.909"/><polygon class="cls-57" points="1489.592 424.076 1489.349 424.583 1489.105 425.089 1488.557 425.214 1488.009 425.339 1487.57 424.988 1487.131 424.638 1487.131 424.076 1487.131 423.515 1487.57 423.164 1488.009 422.814 1488.557 422.938 1489.105 423.064 1489.349 423.57 1489.592 424.076"/><polygon class="cls-57" points="1478.478 397.243 1478.663 397.773 1478.849 398.304 1478.55 398.78 1478.251 399.255 1477.693 399.318 1477.135 399.381 1476.737 398.984 1476.34 398.587 1476.403 398.029 1476.466 397.47 1476.941 397.171 1477.417 396.872 1477.948 397.058 1478.478 397.243"/><rect class="cls-58" x="1411.00144" y="587.89739" width="81.28566" height="13.06098"/><polygon class="cls-59" points="1416.925 592.526 1417.805 592.95 1418.685 593.374 1418.903 594.327 1419.12 595.279 1418.511 596.042 1417.902 596.806 1416.925 596.806 1415.948 596.806 1415.339 596.042 1414.73 595.279 1414.947 594.327 1415.165 593.374 1416.045 592.95 1416.925 592.526"/><polygon class="cls-59" points="1434.285 592.526 1435.165 592.95 1436.045 593.374 1436.263 594.327 1436.48 595.279 1435.871 596.042 1435.262 596.806 1434.285 596.806 1433.308 596.806 1432.699 596.042 1432.09 595.279 1432.307 594.327 1432.525 593.374 1433.404 592.95 1434.285 592.526"/><polygon class="cls-59" points="1451.645 592.526 1452.526 592.95 1453.405 593.374 1453.623 594.327 1453.84 595.279 1453.231 596.042 1452.622 596.806 1451.645 596.806 1450.668 596.806 1450.059 596.042 1449.45 595.279 1449.667 594.327 1449.885 593.374 1450.765 592.95 1451.645 592.526"/><polygon class="cls-59" points="1469.005 592.526 1469.885 592.95 1470.765 593.374 1470.983 594.327 1471.2 595.279 1470.591 596.042 1469.982 596.806 1469.005 596.806 1468.028 596.806 1467.419 596.042 1466.81 595.279 1467.027 594.327 1467.245 593.374 1468.125 592.95 1469.005 592.526"/><polygon class="cls-59" points="1486.365 592.526 1487.245 592.95 1488.125 593.374 1488.343 594.327 1488.56 595.279 1487.951 596.042 1487.342 596.806 1486.365 596.806 1485.388 596.806 1484.779 596.042 1484.17 595.279 1484.387 594.327 1484.605 593.374 1485.484 592.95 1486.365 592.526"/><polygon class="cls-60" points="1451.645 535.194 1458.018 559.515 1451.645 628.962 1451.645 535.194"/><polygon class="cls-61" points="1451.645 535.194 1445.271 559.515 1451.645 628.962 1451.645 535.194"/><path class="cls-62" d="M1447.81675,242.77536c-7.93557,6.17193-33.87744,67.611-40.392,87.09471h24.25734C1435.08733,302.68269,1439.82313,271.72692,1447.81675,242.77536Z" transform="translate(0 0.0542)"/><path class="cls-63" d="M1398.9049,354.25107s-9.81207,44.15958-10.11906,81.57294c-.15363,18.71127,6.4152,117.08793,20.54646,128.49408l24.53328-.91962.00135-97.21431c-32.11812-7.37235-37.26135-67.66659,1.38105-86.48073l-.45954-27.29349C1422.71431,352.41156,1410.96337,353.48778,1398.9049,354.25107Z" transform="translate(0 0.0542)"/><path class="cls-64" d="M1445.21584,453.279c-13.19112-1.05516-23.61366-13.91283-23.61366-29.62116,0-15.70806,10.42254-28.56546,23.61366-29.62089Z" transform="translate(0 0.0542)"/></g><g id="estrellas"><path class="cls-65" d="M1853.77741,1019.95173a1.80862,1.80862,0,0,0,2.43324-.78165,1.81719,1.81719,0,1,0-3.23271-1.66077A1.8188,1.8188,0,0,0,1853.77741,1019.95173Z" transform="translate(0 0.0542)"/><path class="cls-65" d="M1865.92714,241.63218a1.80862,1.80862,0,0,0,2.43324-.78165,1.81713,1.81713,0,1,0-3.23271-1.6605A1.81857,1.81857,0,0,0,1865.92714,241.63218Z" transform="translate(0 0.0542)"/><path class="cls-65" d="M833.01077,572.36976a2.4201,2.4201,0,1,0-1.04377-3.2508A2.41944,2.41944,0,0,0,833.01077,572.36976Z" transform="translate(0 0.0542)"/><path class="cls-65" d="M870.80564,944.48106a1.81521,1.81521,0,1,0,1.65213-3.23271,1.81521,1.81521,0,0,0-1.65213,3.23271Z" transform="translate(0 0.0542)"/><path class="cls-65" d="M773.354,844.93746a1.80392,1.80392,0,0,0,2.447-.76329,1.81339,1.81339,0,1,0-3.22861-1.65213A1.79545,1.79545,0,0,0,773.354,844.93746Z" transform="translate(0 0.0542)"/><path class="cls-65" d="M665.70581,875.0727a1.81137,1.81137,0,1,0-.78165-2.43378A1.80457,1.80457,0,0,0,665.70581,875.0727Z" transform="translate(0 0.0542)"/><path class="cls-65" d="M542.1827,1059.22107a1.80877,1.80877,0,0,0,2.43324-.78165,1.81719,1.81719,0,1,0-3.23271-1.66077A1.81911,1.81911,0,0,0,542.1827,1059.22107Z" transform="translate(0 0.0542)"/><path class="cls-65" d="M609.673,1010.8881a2.418,2.418,0,1,0-1.06137-3.25944A2.44282,2.44282,0,0,0,609.673,1010.8881Z" transform="translate(0 0.0542)"/><path class="cls-65" d="M779.48651,882.92349a2.4169,2.4169,0,1,0-1.05219-3.25026A2.40643,2.40643,0,0,0,779.48651,882.92349Z" transform="translate(0 0.0542)"/><path class="cls-65" d="M1069.9417,999.067a2.41543,2.41543,0,1,1-3.024-1.60785A2.42011,2.42011,0,0,1,1069.9417,999.067Z" transform="translate(0 0.0542)"/><path class="cls-65" d="M840.04049,1059.54939a1.81713,1.81713,0,0,1-3.47706,1.05732,1.79262,1.79262,0,0,1,1.20339-2.24748A1.81732,1.81732,0,0,1,840.04049,1059.54939Z" transform="translate(0 0.0542)"/><path class="cls-65" d="M845.23151,769.001a1.80774,1.80774,0,1,1-2.26044-1.20771A1.81589,1.81589,0,0,1,845.23151,769.001Z" transform="translate(0 0.0542)"/><path class="cls-65" d="M727.71212,742.8672a1.80811,1.80811,0,1,1-3.45951,1.05273,1.80807,1.80807,0,0,1,3.45951-1.05273Z" transform="translate(0 0.0542)"/><path class="cls-65" d="M1002.10069,778.38435a1.81218,1.81218,0,1,1-3.46809,1.05219,1.81213,1.81213,0,0,1,3.46809-1.05219Z" transform="translate(0 0.0542)"/><path class="cls-65" d="M881.10857,719.96634a1.81086,1.81086,0,1,1-2.265-1.19907A1.81243,1.81243,0,0,1,881.10857,719.96634Z" transform="translate(0 0.0542)"/><path class="cls-65" d="M788.13677,857.83374a1.81255,1.81255,0,0,1-3.46761,1.05678,1.81253,1.81253,0,1,1,3.46761-1.05678Z" transform="translate(0 0.0542)"/><path class="cls-65" d="M772.27049,751.52259a2.41684,2.41684,0,1,1-3.02449-1.60353A2.42187,2.42187,0,0,1,772.27049,751.52259Z" transform="translate(0 0.0542)"/><path class="cls-65" d="M1041.16591,1027.283a3.50929,3.50929,0,1,1-4.37886-2.3355A3.51223,3.51223,0,0,1,1041.16591,1027.283Z" transform="translate(0 0.0542)"/><path class="cls-65" d="M882.95537,166.16151a1.81521,1.81521,0,1,0,1.65213-3.23271,1.81521,1.81521,0,0,0-1.65213,3.23271Z" transform="translate(0 0.0542)"/><path class="cls-65" d="M785.50373,66.61818a1.804,1.804,0,0,0,2.447-.76356,1.81341,1.81341,0,1,0-3.22866-1.65213A1.79594,1.79594,0,0,0,785.50373,66.61818Z" transform="translate(0 0.0542)"/><path class="cls-65" d="M677.85554,96.75315a1.81137,1.81137,0,1,0-.78165-2.43378A1.8045,1.8045,0,0,0,677.85554,96.75315Z" transform="translate(0 0.0542)"/><path class="cls-65" d="M554.33243,280.90152a1.80855,1.80855,0,0,0,2.43324-.78165,1.81719,1.81719,0,1,0-3.23271-1.66077A1.819,1.819,0,0,0,554.33243,280.90152Z" transform="translate(0 0.0542)"/><path class="cls-65" d="M664.63121,385.32105a1.81635,1.81635,0,1,0-.78165-2.43378A1.8164,1.8164,0,0,0,664.63121,385.32105Z" transform="translate(0 0.0542)"/><path class="cls-65" d="M830.8924,530.39988a1.83041,1.83041,0,0,0,2.44237-.79083,1.80534,1.80534,0,1,0-2.44237.79083Z" transform="translate(0 0.0542)"/><path class="cls-65" d="M796.81889,347.31693a1.81509,1.81509,0,0,0,1.65159-3.23271,1.7882,1.7882,0,0,0-2.42892.79029A1.81818,1.81818,0,0,0,796.81889,347.31693Z" transform="translate(0 0.0542)"/><path class="cls-65" d="M673.3352,461.48859a1.81329,1.81329,0,1,0-.77274-2.44242A1.81119,1.81119,0,0,0,673.3352,461.48859Z" transform="translate(0 0.0542)"/><path class="cls-65" d="M776.72873,319.92651a1.81457,1.81457,0,0,0,2.43783-.78165,1.84454,1.84454,0,0,0-.77706-2.45106,1.81719,1.81719,0,0,0-1.66077,3.23271Z" transform="translate(0 0.0542)"/><path class="cls-65" d="M938.47357,507.0681a1.80345,1.80345,0,1,0-.78165-2.43378A1.78784,1.78784,0,0,0,938.47357,507.0681Z" transform="translate(0 0.0542)"/><path class="cls-65" d="M943.181,318.27465a1.79,1.79,0,0,0,2.4246-.78165,1.81546,1.81546,0,0,0-.78165-2.44242,1.80928,1.80928,0,0,0-1.643,3.22407Z" transform="translate(0 0.0542)"/><path class="cls-65" d="M621.82271,232.56855a2.418,2.418,0,1,0-1.06137-3.25944A2.44278,2.44278,0,0,0,621.82271,232.56855Z" transform="translate(0 0.0542)"/><path class="cls-65" d="M791.63624,104.60394a2.41677,2.41677,0,1,0-1.05214-3.25026A2.40619,2.40619,0,0,0,791.63624,104.60394Z" transform="translate(0 0.0542)"/><path class="cls-65" d="M1082.09143,220.74741a2.41543,2.41543,0,1,1-3.024-1.60785A2.42,2.42,0,0,1,1082.09143,220.74741Z" transform="translate(0 0.0542)"/><path class="cls-65" d="M852.19022,281.22984a1.81713,1.81713,0,0,1-3.47706,1.05732,1.79224,1.79224,0,0,1,1.20344-2.24721A1.81694,1.81694,0,0,1,852.19022,281.22984Z" transform="translate(0 0.0542)"/><path class="cls-65" d="M1014.20068-.0542q-1.70243.11546-3.40478.1015a1.81,1.81,0,0,0-.01361,1.07,1.84008,1.84008,0,0,0,2.26043,1.22577,1.83454,1.83454,0,0,0,1.20771-2.27826C1014.23761.02258,1014.21619-.01379,1014.20068-.0542Z" transform="translate(0 0.0542)"/><path class="cls-65" d="M800.2865,79.51419a1.81255,1.81255,0,0,1-3.46761,1.05678,1.81253,1.81253,0,1,1,3.46761-1.05678Z" transform="translate(0 0.0542)"/><path class="cls-65" d="M1006.941,411.93873a2.41639,2.41639,0,1,1-3.01509-1.60731A2.42487,2.42487,0,0,1,1006.941,411.93873Z" transform="translate(0 0.0542)"/><path class="cls-65" d="M843.16628,317.32425a2.42021,2.42021,0,0,1-4.62672,1.421,2.44086,2.44086,0,0,1,1.60731-3.02859A2.40985,2.40985,0,0,1,843.16628,317.32425Z" transform="translate(0 0.0542)"/><path class="cls-65" d="M1053.31537,248.96349a3.50916,3.50916,0,1,1-4.37859-2.3355A3.51208,3.51208,0,0,1,1053.31537,248.96349Z" transform="translate(0 0.0542)"/><path class="cls-65" d="M1398.48856,513.46575a2.4201,2.4201,0,1,0-1.04355-3.2508A2.41952,2.41952,0,0,0,1398.48856,513.46575Z" transform="translate(0 0.0542)"/><path class="cls-65" d="M1436.2837,885.57705a1.81515,1.81515,0,1,0,1.65186-3.23271,1.81515,1.81515,0,0,0-1.65186,3.23271Z" transform="translate(0 0.0542)"/><path class="cls-65" d="M1338.832,786.03372a1.8038,1.8038,0,0,0,2.44681-.76356,1.81332,1.81332,0,1,0-3.22846-1.65213A1.7959,1.7959,0,0,0,1338.832,786.03372Z" transform="translate(0 0.0542)"/><path class="cls-65" d="M1231.18381,816.16869a1.81139,1.81139,0,1,0-.78165-2.43378A1.80427,1.80427,0,0,0,1231.18381,816.16869Z" transform="translate(0 0.0542)"/><path class="cls-65" d="M1107.6607,1000.31706a1.80871,1.80871,0,0,0,2.4333-.78165,1.81722,1.81722,0,1,0-3.23277-1.66077A1.8188,1.8188,0,0,0,1107.6607,1000.31706Z" transform="translate(0 0.0542)"/><path class="cls-65" d="M1350.14688,1066.73247a1.81509,1.81509,0,0,0,1.65159-3.23271,1.7879,1.7879,0,0,0-2.42865.79029A1.81808,1.81808,0,0,0,1350.14688,1066.73247Z" transform="translate(0 0.0542)"/><path class="cls-65" d="M1330.057,1039.34205a1.81447,1.81447,0,0,0,2.43783-.78165,1.84425,1.84425,0,0,0-.77733-2.45079,1.817,1.817,0,0,0-1.6605,3.23244Z" transform="translate(0 0.0542)"/><path class="cls-65" d="M1496.50909,1037.69019a1.79032,1.79032,0,0,0,2.42487-.78165,1.81556,1.81556,0,0,0-.78192-2.44242,1.80928,1.80928,0,0,0-1.64295,3.22407Z" transform="translate(0 0.0542)"/><path class="cls-65" d="M1175.151,951.98409a2.418,2.418,0,1,0-1.06137-3.25944A2.4423,2.4423,0,0,0,1175.151,951.98409Z" transform="translate(0 0.0542)"/><path class="cls-65" d="M1344.9645,824.01948a2.41671,2.41671,0,1,0-1.05246-3.25026A2.40575,2.40575,0,0,0,1344.9645,824.01948Z" transform="translate(0 0.0542)"/><path class="cls-65" d="M1635.4195,940.163a2.41543,2.41543,0,1,1-3.024-1.60785A2.42006,2.42006,0,0,1,1635.4195,940.163Z" transform="translate(0 0.0542)"/><path class="cls-65" d="M1405.51828,1000.64538a1.817,1.817,0,0,1-3.47679,1.05732,1.79206,1.79206,0,0,1,1.20312-2.24721A1.81674,1.81674,0,0,1,1405.51828,1000.64538Z" transform="translate(0 0.0542)"/><path class="cls-65" d="M1410.70957,710.097a1.80787,1.80787,0,1,1-2.26044-1.20771A1.81611,1.81611,0,0,1,1410.70957,710.097Z" transform="translate(0 0.0542)"/><path class="cls-65" d="M1293.19011,683.96319a1.80821,1.80821,0,1,1-3.45971,1.05273,1.80817,1.80817,0,0,1,3.45971-1.05273Z" transform="translate(0 0.0542)"/><path class="cls-65" d="M1567.57876,719.48061a1.8122,1.8122,0,1,1-3.46815,1.05219,1.81216,1.81216,0,0,1,3.46815-1.05219Z" transform="translate(0 0.0542)"/><path class="cls-65" d="M1446.58636,661.0626a1.81086,1.81086,0,1,1-2.265-1.19934A1.81214,1.81214,0,0,1,1446.58636,661.0626Z" transform="translate(0 0.0542)"/><path class="cls-65" d="M1353.61476,798.92973a1.81268,1.81268,0,0,1-3.46788,1.05678,1.81266,1.81266,0,1,1,3.46788-1.05678Z" transform="translate(0 0.0542)"/><path class="cls-65" d="M1396.49461,1036.73979a2.42034,2.42034,0,0,1-4.627,1.421,2.4408,2.4408,0,0,1,1.60758-3.02859A2.41,2.41,0,0,1,1396.49461,1036.73979Z" transform="translate(0 0.0542)"/><path class="cls-65" d="M1337.74821,692.61858a2.41673,2.41673,0,1,1-3.02427-1.60353A2.42194,2.42194,0,0,1,1337.74821,692.61858Z" transform="translate(0 0.0542)"/><path class="cls-65" d="M1606.64371,968.379a3.50929,3.50929,0,1,1-4.37859-2.3355A3.51223,3.51223,0,0,1,1606.64371,968.379Z" transform="translate(0 0.0542)"/><path class="cls-65" d="M1448.43343,107.2575a1.81515,1.81515,0,1,0,1.65186-3.23271,1.81515,1.81515,0,0,0-1.65186,3.23271Z" transform="translate(0 0.0542)"/><path class="cls-65" d="M1350.98172,7.71417a1.80371,1.80371,0,0,0,2.44674-.76356,1.81341,1.81341,0,1,0-3.22866-1.65213A1.79615,1.79615,0,0,0,1350.98172,7.71417Z" transform="translate(0 0.0542)"/><path class="cls-65" d="M1243.3336,37.84914a1.81136,1.81136,0,1,0-.78171-2.43378A1.80424,1.80424,0,0,0,1243.3336,37.84914Z" transform="translate(0 0.0542)"/><path class="cls-65" d="M1119.81016,221.99751a1.80862,1.80862,0,0,0,2.43351-.78165,1.81713,1.81713,0,1,0-3.23271-1.6605A1.8187,1.8187,0,0,0,1119.81016,221.99751Z" transform="translate(0 0.0542)"/><path class="cls-65" d="M1230.109,326.417a1.81639,1.81639,0,1,0-.78171-2.43351A1.81608,1.81608,0,0,0,1230.109,326.417Z" transform="translate(0 0.0542)"/><path class="cls-65" d="M1396.37014,471.49587a1.83043,1.83043,0,0,0,2.44242-.79056,1.80522,1.80522,0,1,0-2.44242.79056Z" transform="translate(0 0.0542)"/><path class="cls-65" d="M1362.29661,288.41292a1.81509,1.81509,0,0,0,1.65159-3.23271,1.78792,1.78792,0,0,0-2.42865.79029A1.818,1.818,0,0,0,1362.29661,288.41292Z" transform="translate(0 0.0542)"/><path class="cls-65" d="M1238.8132,402.58458a1.81329,1.81329,0,1,0-.77274-2.44242A1.81059,1.81059,0,0,0,1238.8132,402.58458Z" transform="translate(0 0.0542)"/><path class="cls-65" d="M1342.20672,261.02277a1.81482,1.81482,0,0,0,2.43783-.78192,1.84425,1.84425,0,0,0-.77733-2.45079,1.81713,1.81713,0,0,0-1.6605,3.23271Z" transform="translate(0 0.0542)"/><path class="cls-65" d="M1503.95137,448.16409a1.80345,1.80345,0,1,0-.78165-2.43351A1.7877,1.7877,0,0,0,1503.95137,448.16409Z" transform="translate(0 0.0542)"/><path class="cls-65" d="M1508.65882,259.37064a1.79032,1.79032,0,0,0,2.42487-.78165,1.81563,1.81563,0,0,0-.78192-2.44242,1.80928,1.80928,0,0,0-1.64295,3.22407Z" transform="translate(0 0.0542)"/><path class="cls-65" d="M1187.30071,173.66481a2.41813,2.41813,0,1,0-1.06131-3.25971A2.44254,2.44254,0,0,0,1187.30071,173.66481Z" transform="translate(0 0.0542)"/><path class="cls-65" d="M1357.1143,45.69993a2.4167,2.4167,0,1,0-1.05253-3.25026A2.40559,2.40559,0,0,0,1357.1143,45.69993Z" transform="translate(0 0.0542)"/><path class="cls-65" d="M1647.56923,161.8434a2.41543,2.41543,0,1,1-3.024-1.60785A2.42006,2.42006,0,0,1,1647.56923,161.8434Z" transform="translate(0 0.0542)"/><path class="cls-65" d="M1417.668,222.32583a1.817,1.817,0,0,1-3.47679,1.05732,1.79185,1.79185,0,0,1,1.20312-2.24721A1.817,1.817,0,0,1,1417.668,222.32583Z" transform="translate(0 0.0542)"/><path class="cls-65" d="M1365.76456,20.61018a1.81271,1.81271,0,0,1-3.46795,1.05678,1.8127,1.8127,0,1,1,3.46795-1.05678Z" transform="translate(0 0.0542)"/><path class="cls-65" d="M1572.41905,353.03472a2.41639,2.41639,0,1,1-3.01536-1.60731A2.42486,2.42486,0,0,1,1572.41905,353.03472Z" transform="translate(0 0.0542)"/><path class="cls-65" d="M1408.64434,258.42024a2.42034,2.42034,0,0,1-4.627,1.421,2.4408,2.4408,0,0,1,1.60758-3.02859A2.41018,2.41018,0,0,1,1408.64434,258.42024Z" transform="translate(0 0.0542)"/><path class="cls-65" d="M1618.79344,190.05948a3.50929,3.50929,0,1,1-4.37859-2.3355A3.51223,3.51223,0,0,1,1618.79344,190.05948Z" transform="translate(0 0.0542)"/><path class="cls-65" d="M1732.27768,525.24666a2.42022,2.42022,0,1,0-1.04355-3.25107A2.41944,2.41944,0,0,0,1732.27768,525.24666Z" transform="translate(0 0.0542)"/><path class="cls-65" d="M1770.07255,897.35769a1.81509,1.81509,0,1,0,1.65213-3.23244,1.81509,1.81509,0,0,0-1.65213,3.23244Z" transform="translate(0 0.0542)"/><path class="cls-65" d="M1672.62118,797.81436a1.80355,1.80355,0,0,0,2.44674-.76356,1.81335,1.81335,0,1,0-3.22866-1.65186A1.79561,1.79561,0,0,0,1672.62118,797.81436Z" transform="translate(0 0.0542)"/><path class="cls-65" d="M1564.973,827.94933a1.81131,1.81131,0,1,0-.78165-2.43351A1.80373,1.80373,0,0,0,1564.973,827.94933Z" transform="translate(0 0.0542)"/><path class="cls-65" d="M1441.44961,1012.098a1.80878,1.80878,0,0,0,2.43324-.78165,1.81721,1.81721,0,1,0-2.43324.78165Z" transform="translate(0 0.0542)"/><path class="cls-65" d="M1663.84618,1051.123a1.81457,1.81457,0,0,0,2.43756-.78165,1.8443,1.8443,0,0,0-.77706-2.45106,1.81713,1.81713,0,0,0-1.6605,3.23271Z" transform="translate(0 0.0542)"/><path class="cls-65" d="M1830.29821,1049.47083a1.78994,1.78994,0,0,0,2.4246-.78165,1.81561,1.81561,0,0,0-.78165-2.44242,1.80928,1.80928,0,0,0-1.643,3.22407Z" transform="translate(0 0.0542)"/><path class="cls-65" d="M1508.93989,963.765a2.41807,2.41807,0,1,0-1.06137-3.25944A2.44285,2.44285,0,0,0,1508.93989,963.765Z" transform="translate(0 0.0542)"/><path class="cls-65" d="M1678.75342,835.80039a2.41689,2.41689,0,1,0-1.05219-3.25053A2.40635,2.40635,0,0,0,1678.75342,835.80039Z" transform="translate(0 0.0542)"/><path class="cls-65" d="M1739.3074,1012.42629a1.817,1.817,0,0,1-3.47679,1.05705,1.79208,1.79208,0,0,1,1.20312-2.24721A1.81712,1.81712,0,0,1,1739.3074,1012.42629Z" transform="translate(0 0.0542)"/><path class="cls-65" d="M1744.49869,721.87794a1.80787,1.80787,0,1,1-2.26071-1.20771A1.81638,1.81638,0,0,1,1744.49869,721.87794Z" transform="translate(0 0.0542)"/><path class="cls-65" d="M1626.979,695.7441a1.80811,1.80811,0,1,1-3.45951,1.05273,1.80807,1.80807,0,0,1,3.45951-1.05273Z" transform="translate(0 0.0542)"/><path class="cls-65" d="M1901.36761,731.26125a1.81221,1.81221,0,1,1-3.46815,1.05219,1.81216,1.81216,0,0,1,3.46815-1.05219Z" transform="translate(0 0.0542)"/><path class="cls-65" d="M1780.37548,672.84324a1.81086,1.81086,0,1,1-2.265-1.19907A1.81185,1.81185,0,0,1,1780.37548,672.84324Z" transform="translate(0 0.0542)"/><path class="cls-65" d="M1687.404,810.71064a1.81268,1.81268,0,0,1-3.46788,1.05678,1.81266,1.81266,0,1,1,3.46788-1.05678Z" transform="translate(0 0.0542)"/><path class="cls-65" d="M1730.28373,1048.52043a2.42034,2.42034,0,0,1-4.627,1.421,2.44051,2.44051,0,0,1,1.60758-3.02832A2.41,2.41,0,0,1,1730.28373,1048.52043Z" transform="translate(0 0.0542)"/><path class="cls-65" d="M1671.5374,704.39949a2.41686,2.41686,0,1,1-3.02454-1.60353A2.42187,2.42187,0,0,1,1671.5374,704.39949Z" transform="translate(0 0.0542)"/><path class="cls-65" d="M1782.22228,119.03841a1.81521,1.81521,0,1,0,1.65213-3.23271,1.81521,1.81521,0,0,0-1.65213,3.23271Z" transform="translate(0 0.0542)"/><path class="cls-65" d="M1684.77091,19.49481a1.80368,1.80368,0,0,0,2.44674-.76329,1.81341,1.81341,0,1,0-3.22866-1.65213A1.79561,1.79561,0,0,0,1684.77091,19.49481Z" transform="translate(0 0.0542)"/><path class="cls-65" d="M1577.12272,49.63005a1.81131,1.81131,0,1,0-.78192-2.43378A1.80444,1.80444,0,0,0,1577.12272,49.63005Z" transform="translate(0 0.0542)"/><path class="cls-65" d="M1453.59934,233.77842a1.80878,1.80878,0,0,0,2.43324-.78165,1.81719,1.81719,0,1,0-3.23271-1.66077A1.81911,1.81911,0,0,0,1453.59934,233.77842Z" transform="translate(0 0.0542)"/><path class="cls-65" d="M1563.89812,338.198a1.81647,1.81647,0,1,0-.78165-2.43378A1.81663,1.81663,0,0,0,1563.89812,338.198Z" transform="translate(0 0.0542)"/><path class="cls-65" d="M1730.15926,483.27678a1.83069,1.83069,0,0,0,2.44242-.79083,1.80522,1.80522,0,1,0-2.44242.79083Z" transform="translate(0 0.0542)"/><path class="cls-65" d="M1696.0858,300.19383a1.81509,1.81509,0,0,0,1.65159-3.23271,1.7879,1.7879,0,0,0-2.42865.79029A1.81808,1.81808,0,0,0,1696.0858,300.19383Z" transform="translate(0 0.0542)"/><path class="cls-65" d="M1572.60211,414.36549a1.81336,1.81336,0,1,0-.77247-2.44242A1.81121,1.81121,0,0,0,1572.60211,414.36549Z" transform="translate(0 0.0542)"/><path class="cls-65" d="M1675.99564,272.80341a1.81481,1.81481,0,0,0,2.43783-.78165,1.84454,1.84454,0,0,0-.77706-2.45106,1.81719,1.81719,0,0,0-1.66077,3.23271Z" transform="translate(0 0.0542)"/><path class="cls-65" d="M1837.74049,459.945a1.80345,1.80345,0,1,0-.78165-2.43378A1.78777,1.78777,0,0,0,1837.74049,459.945Z" transform="translate(0 0.0542)"/><path class="cls-65" d="M1842.44794,271.15155a1.78981,1.78981,0,0,0,2.4246-.78192,1.81522,1.81522,0,0,0-.78165-2.44215,1.80928,1.80928,0,0,0-1.64295,3.22407Z" transform="translate(0 0.0542)"/><path class="cls-65" d="M1521.08962,185.44545a2.41807,2.41807,0,1,0-1.06137-3.25944A2.44278,2.44278,0,0,0,1521.08962,185.44545Z" transform="translate(0 0.0542)"/><path class="cls-65" d="M1690.90315,57.48084a2.4169,2.4169,0,1,0-1.05219-3.25026A2.40635,2.40635,0,0,0,1690.90315,57.48084Z" transform="translate(0 0.0542)"/><path class="cls-65" d="M1751.45713,234.10674a1.81713,1.81713,0,0,1-3.47706,1.05732,1.79262,1.79262,0,0,1,1.20339-2.24748A1.81734,1.81734,0,0,1,1751.45713,234.10674Z" transform="translate(0 0.0542)"/><path class="cls-65" d="M1699.55368,32.39109a1.81268,1.81268,0,0,1-3.46788,1.05678,1.81266,1.81266,0,1,1,3.46788-1.05678Z" transform="translate(0 0.0542)"/><path class="cls-65" d="M1906.20817,364.81563a2.41652,2.41652,0,1,1-3.01536-1.60758A2.42507,2.42507,0,0,1,1906.20817,364.81563Z" transform="translate(0 0.0542)"/><path class="cls-65" d="M1742.43346,270.20115a2.42034,2.42034,0,0,1-4.627,1.421,2.44068,2.44068,0,0,1,1.60758-3.02859A2.41,2.41,0,0,1,1742.43346,270.20115Z" transform="translate(0 0.0542)"/></g><g id="logo"><polygon class="cls-66" points="1431.373 419.583 1450.417 408.965 1431.373 398.289 1431.373 419.583"/><polygon class="cls-66" points="1453.706 408.907 1472 398.289 1472 419.583 1453.706 408.907"/><polygon class="cls-67" points="1465.017 415.486 1472 398.289 1472 419.583 1465.017 415.486"/><polygon class="cls-67" points="1438.413 415.486 1431.373 398.289 1431.373 419.583 1438.413 415.486"/><polygon class="cls-68" points="1431.661 421.141 1451.86 409.657 1471.596 421.141 1452.09 450.284 1431.661 421.141"/><polygon class="cls-69" points="1431.373 423.219 1431.373 439.031 1449.551 449.476 1431.373 423.219"/><polygon class="cls-69" points="1454.283 449.476 1472 423.219 1472 439.435 1454.283 449.476"/><polygon class="cls-70" points="1472 433.895 1454.283 449.476 1472 439.435 1472 433.895"/><polyline class="cls-70" points="1431.373 439.031 1449.551 449.476 1431.373 433.895"/></g></g></svg>