<svg xmlns="http://www.w3.org/2000/svg" xmlns:xlink="http://www.w3.org/1999/xlink" viewBox="0 0 795.62708 1018.26705"><defs><style>.cls-1{fill:#f07622;}.cls-2{fill:#d8681a;}.cls-3{fill:url(#Degradado_sin_nombre_12);}.cls-4{fill:#f4f4f4;}.cls-5{fill:#dedede;}</style><linearGradient id="Degradado_sin_nombre_12" x1="396.68339" y1="222.63996" x2="396.68339" y2="1018.26705" gradientUnits="userSpaceOnUse"><stop offset="0" stop-color="#f07622"/><stop offset="0.12643" stop-color="#f26d1f"/><stop offset="0.33657" stop-color="#f65317"/><stop offset="0.56742" stop-color="#fc300c"/><stop offset="0.86517" stop-color="#fc300c"/><stop offset="0.99438" stop-color="#fc300c"/></linearGradient></defs><title>FoxArtt-Logo-WEB</title><g id="orejas"><polygon class="cls-1" points="0 417.026 372.95 209.078 0 0 0 417.026"/><polygon class="cls-1" points="437.369 207.948 795.627 0 795.627 417.026 437.369 207.948"/></g><g id="sombra-orejas"><polygon class="cls-2" points="658.879 336.785 795.627 0 795.627 417.026 658.879 336.785"/><polygon class="cls-2" points="137.879 336.785 0 0 0 417.026 137.879 336.785"/></g><g id="cara"><polygon class="cls-3" points="5.651 447.54 401.204 222.64 787.716 447.54 405.725 1018.267 5.651 447.54"/></g><g id="cachetes"><polygon class="cls-4" points="0 488.226 0 797.887 355.998 1002.445 0 488.226"/><polygon class="cls-4" points="448.67 1002.445 795.627 488.226 795.627 805.798 448.67 1002.445"/></g><g id="sombra-cachetes"><polygon class="cls-5" points="795.627 697.304 448.67 1002.445 795.627 805.798 795.627 697.304"/><polyline class="cls-5" points="0 797.887 355.998 1002.445 0 697.304"/></g></svg>