<svg xmlns="http://www.w3.org/2000/svg" xmlns:xlink="http://www.w3.org/1999/xlink" viewBox="0 0 795.63 1018.27"><defs><style>.cls-1{fill:#f07622;}.cls-2{fill:#d8681a;}.cls-3{fill:url(#Degradado_sin_nombre_12);}.cls-4{fill:#f4f4f4;}.cls-5{fill:#dedede;}</style><linearGradient id="Degradado_sin_nombre_12" x1="396.68" y1="222.64" x2="396.68" y2="1018.27" gradientUnits="userSpaceOnUse"><stop offset="0" stop-color="#f07622"/><stop offset="0.13" stop-color="#f26d1f"/><stop offset="0.34" stop-color="#f65317"/><stop offset="0.57" stop-color="#fc300c"/><stop offset="0.87" stop-color="#fc300c"/><stop offset="0.99" stop-color="#fc300c"/></linearGradient></defs><title>FoxArtt-Logo-WEB-Reduced</title><g id="orejas"><polygon class="cls-1" points="0 417.03 372.95 209.08 0 0 0 417.03"/><polygon class="cls-1" points="437.37 207.95 795.63 0 795.63 417.03 437.37 207.95"/></g><g id="sombra-orejas"><polygon class="cls-2" points="658.88 336.79 795.63 0 795.63 417.03 658.88 336.79"/><polygon class="cls-2" points="137.88 336.79 0 0 0 417.03 137.88 336.79"/></g><g id="cara"><polygon class="cls-3" points="5.65 447.54 401.2 222.64 787.72 447.54 405.73 1018.27 5.65 447.54"/></g><g id="cachetes"><polygon class="cls-4" points="0 488.23 0 797.89 356 1002.45 0 488.23"/><polygon class="cls-4" points="448.67 1002.45 795.63 488.23 795.63 805.8 448.67 1002.45"/></g><g id="sombra-cachetes"><polygon class="cls-5" points="795.63 697.3 448.67 1002.45 795.63 805.8 795.63 697.3"/><polyline class="cls-5" points="0 797.89 356 1002.45 0 697.3"/></g></svg>