<svg xmlns="http://www.w3.org/2000/svg" xmlns:xlink="http://www.w3.org/1999/xlink" viewBox="0 0 600.12 1004"><defs><style>.cls-1{font-size:172.78px;fill:#4a4751;font-family:Arciform, Arciform Sans;letter-spacing:-0.04em;}.cls-2{letter-spacing:0.02em;}.cls-3{letter-spacing:0.04em;}.cls-4{letter-spacing:0.01em;}.cls-5{letter-spacing:0.1em;}.cls-6{letter-spacing:0.06em;}.cls-7{letter-spacing:0em;}.cls-8{fill:#f07622;}.cls-9{fill:#d8681a;}.cls-10{fill:url(#Degradado_sin_nombre_12);}.cls-11{fill:#f4f4f4;}.cls-12{fill:#dedede;}</style><linearGradient id="Degradado_sin_nombre_12" x1="296.65" y1="166.49" x2="296.65" y2="761.48" gradientUnits="userSpaceOnUse"><stop offset="0" stop-color="#f07622"/><stop offset="0.13" stop-color="#f26d1f"/><stop offset="0.34" stop-color="#f65317"/><stop offset="0.57" stop-color="#fc300c"/><stop offset="0.87" stop-color="#fc300c"/><stop offset="0.99" stop-color="#fc300c"/></linearGradient></defs><title>FoxArtt-Logo-Letters-White-WEB-Reduced</title><g id="letras"><text class="cls-1" transform="translate(14.83 960.29) scale(1.06 1)">F<tspan class="cls-2" x="77.41" y="0">o</tspan><tspan class="cls-3" x="176.41" y="0">x</tspan><tspan class="cls-4" x="254.33" y="0">A</tspan><tspan class="cls-5" x="353.5" y="0">r</tspan><tspan class="cls-6" x="420.88" y="0">t</tspan><tspan class="cls-7" x="490.34" y="0">t</tspan></text></g><g id="orejas"><polygon class="cls-8" points="0 311.86 278.9 156.35 0 0 0 311.86"/><polygon class="cls-8" points="327.07 155.51 594.99 0 594.99 311.86 327.07 155.51"/></g><g id="sombra-orejas"><polygon class="cls-9" points="492.72 251.85 594.99 0 594.99 311.86 492.72 251.85"/><polygon class="cls-9" points="103.11 251.85 0 0 0 311.86 103.11 251.85"/></g><g id="cara"><polygon class="cls-10" points="4.23 334.68 300.03 166.5 589.07 334.68 303.41 761.48 4.23 334.68"/></g><g id="cachetes"><polygon class="cls-11" points="0 365.11 0 596.68 266.22 749.65 0 365.11"/><polygon class="cls-11" points="335.52 749.65 594.99 365.11 594.99 602.59 335.52 749.65"/></g><g id="sombra-cachetes"><polygon class="cls-12" points="594.99 521.46 335.52 749.65 594.99 602.59 594.99 521.46"/><polyline class="cls-12" points="0 596.68 266.22 749.65 0 521.46"/></g></svg>