<svg xmlns="http://www.w3.org/2000/svg" xmlns:xlink="http://www.w3.org/1999/xlink" viewBox="0 0 600.11621 1004"><defs><style>.cls-1{font-size:172.7823px;font-family:Arciform, Arciform Sans;letter-spacing:-0.03899em;}.cls-1,.cls-11{fill:#f4f4f4;}.cls-2{letter-spacing:0.019em;}.cls-3{letter-spacing:0.03899em;}.cls-4{letter-spacing:0.00699em;}.cls-5{letter-spacing:0.099em;}.cls-6{letter-spacing:0.05899em;}.cls-7{letter-spacing:0.00001em;}.cls-8{fill:#f07622;}.cls-9{fill:#d8681a;}.cls-10{fill:url(#Degradado_sin_nombre_12);}.cls-12{fill:#dedede;}</style><linearGradient id="Degradado_sin_nombre_12" x1="296.64819" y1="166.49485" x2="296.64819" y2="761.48153" gradientUnits="userSpaceOnUse"><stop offset="0" stop-color="#f07622"/><stop offset="0.12643" stop-color="#f26d1f"/><stop offset="0.33657" stop-color="#f65317"/><stop offset="0.56742" stop-color="#fc300c"/><stop offset="0.86517" stop-color="#fc300c"/><stop offset="0.99438" stop-color="#fc300c"/></linearGradient></defs><title>FoxArtt-Logo-Letters-WithoutBackground-Transparent-WEB</title><g id="letras"><text class="cls-1" transform="translate(14.83154 960.28516) scale(1.06492 1)">F<tspan class="cls-2" x="77.40888" y="0">o</tspan><tspan class="cls-3" x="176.41006" y="0">x</tspan><tspan class="cls-4" x="254.33018" y="0">A</tspan><tspan class="cls-5" x="353.50284" y="0">r</tspan><tspan class="cls-6" x="420.88496" y="0">t</tspan><tspan class="cls-7" x="490.33957" y="0">t</tspan></text></g><g id="orejas"><polygon class="cls-8" points="0 311.861 278.9 156.353 0 0 0 311.861"/><polygon class="cls-8" points="327.074 155.508 594.987 0 594.987 311.861 327.074 155.508"/></g><g id="sombra-orejas"><polygon class="cls-9" points="492.723 251.855 594.987 0 594.987 311.861 492.723 251.855"/><polygon class="cls-9" points="103.108 251.855 0 0 0 311.861 103.108 251.855"/></g><g id="cara"><polygon class="cls-10" points="4.226 334.68 300.029 166.495 589.071 334.68 303.409 761.482 4.226 334.68"/></g><g id="cachetes"><polygon class="cls-11" points="0 365.105 0 596.677 266.223 749.649 0 365.105"/><polygon class="cls-11" points="335.525 749.649 594.987 365.105 594.987 602.593 335.525 749.649"/></g><g id="sombra-cachetes"><polygon class="cls-12" points="594.987 521.458 335.525 749.649 594.987 602.593 594.987 521.458"/><polyline class="cls-12" points="0 596.677 266.223 749.649 0 521.458"/></g></svg>